{
	"asset":{
		"generator":"Khronos glTF Blender I/O v4.0.44",
		"version":"2.0"
	},
	"scene":0,
	"scenes":[
		{
			"name":"Scene",
			"nodes":[
				0
			]
		}
	],
	"nodes":[
		{
			"mesh":0,
			"name":"finger_L"
		}
	],
	"materials":[
		{
			"doubleSided":true,
			"name":"finger_material",
			"normalTexture":{
				"index":0,
				"texCoord":1
			},
			"occlusionTexture":{
				"index":1,
				"texCoord":1
			},
			"pbrMetallicRoughness":{
				"baseColorTexture":{
					"index":2,
					"texCoord":1
				},
				"metallicRoughnessTexture":{
					"index":1,
					"texCoord":1
				}
			}
		}
	],
	"meshes":[
		{
			"name":"finger_L",
			"primitives":[
				{
					"attributes":{
						"POSITION":0,
						"NORMAL":1,
						"TEXCOORD_0":2,
						"TEXCOORD_1":3
					},
					"indices":4,
					"material":0
				}
			]
		}
	],
	"textures":[
		{
			"sampler":0,
			"source":0,
			"extensions":{
				"KHR_texture_basisu":{
					"source":3
				}
			}
		},
		{
			"sampler":0,
			"source":1,
			"extensions":{
				"KHR_texture_basisu":{
					"source":4
				}
			}
		},
		{
			"sampler":0,
			"source":2,
			"extensions":{
				"KHR_texture_basisu":{
					"source":5
				}
			}
		}
	],
	"images":[
		{
			"mimeType":"image/png",
			"name":"finger_normal",
			"uri":"finger_normal.png"
		},
		{
			"mimeType":"image/png",
			"name":"finger_occlusion_roughness_metallic",
			"uri":"finger_occlusion_roughness_metallic.png"
		},
		{
			"mimeType":"image/png",
			"name":"finger_color",
			"uri":"finger_color.png"
		},
		{
			"mimeType":"image/ktx2",
			"uri":"finger_normal.ktx2"
		},
		{
			"mimeType":"image/ktx2",
			"uri":"finger_occlusion_roughness_metallic.ktx2"
		},
		{
			"mimeType":"image/ktx2",
			"uri":"finger_color.ktx2"
		}
	],
	"accessors":[
		{
			"bufferView":0,
			"componentType":5126,
			"count":4137,
			"max":[
				0.010500093922019005,
				0.054136838763952255,
				4.399928729981184e-05
			],
			"min":[
				-0.010500093922019005,
				0.0001332983374595642,
				-0.028224322944879532
			],
			"type":"VEC3"
		},
		{
			"bufferView":1,
			"componentType":5126,
			"count":4137,
			"type":"VEC3"
		},
		{
			"bufferView":2,
			"componentType":5126,
			"count":4137,
			"type":"VEC2"
		},
		{
			"bufferView":3,
			"componentType":5126,
			"count":4137,
			"type":"VEC2"
		},
		{
			"bufferView":4,
			"componentType":5123,
			"count":13428,
			"type":"SCALAR"
		}
	],
	"bufferViews":[
		{
			"buffer":0,
			"byteLength":49644,
			"byteOffset":0,
			"target":34962
		},
		{
			"buffer":0,
			"byteLength":49644,
			"byteOffset":49644,
			"target":34962
		},
		{
			"buffer":0,
			"byteLength":33096,
			"byteOffset":99288,
			"target":34962
		},
		{
			"buffer":0,
			"byteLength":33096,
			"byteOffset":132384,
			"target":34962
		},
		{
			"buffer":0,
			"byteLength":26856,
			"byteOffset":165480,
			"target":34963
		}
	],
	"samplers":[
		{
			"magFilter":9729,
			"minFilter":9987
		}
	],
	"buffers":[
		{
			"byteLength":192336,
			"uri":"finger_L.bin"
		}
	],
	"extensionsUsed":[
		"KHR_texture_basisu"
	]
}
