# Blender 4.0.2
# www.blender.org
o finray_finger_R_mount_low
v 0.002753 0.017000 0.030286
v 0.010000 0.010498 0.004000
v 0.005013 0.017000 0.031774
v 0.002753 -0.017000 0.030286
v 0.027000 0.010500 0.004000
v 0.010000 -0.010498 0.004000
v 0.005013 -0.017000 0.031774
v 0.027000 -0.010500 0.004000
v 0.001000 -0.010500 0.004000
v 0.016582 -0.017000 0.035707
v 0.021247 -0.017000 0.039055
v 0.001000 0.010500 0.004000
v 0.016582 0.017000 0.035707
v 0.030356 -0.017000 0.053428
v 0.021247 0.017000 0.039055
v 0.030356 0.017000 0.053428
v 0.023500 -0.010500 0.004000
v 0.023500 0.010500 0.004000
v 0.031392 0.017000 0.059076
v 0.031392 -0.017000 0.059076
v 0.027001 -0.010496 -0.000004
v 0.001000 -0.010500 0.000000
v 0.027001 0.010496 -0.000004
v 0.011000 -0.010498 0.005000
v 0.014000 -0.010500 0.000000
v 0.014000 -0.010500 0.005000
v 0.001000 0.010500 0.000000
v 0.033736 -0.017000 0.066167
v 0.011000 0.010498 0.005000
v 0.014000 0.010500 0.000000
v 0.014000 0.010500 0.005000
v 0.036889 -0.017000 0.066985
v 0.039193 -0.017000 0.066196
v 0.040894 -0.017000 0.064387
v 0.001500 -0.017000 0.022000
v 0.031756 -0.017000 0.063580
v 0.033736 0.017000 0.066167
v 0.041500 -0.017000 0.062000
v 0.040484 -0.017000 0.019804
v 0.004500 -0.017000 0.019000
v 0.041500 -0.017000 0.022000
v 0.028262 -0.017000 0.048081
v 0.001500 -0.017000 0.027000
v 0.011365 -0.017000 0.033309
v 0.038500 -0.017000 0.019000
v 0.025189 -0.017000 0.043231
v 0.002202 -0.017000 0.020072
v 0.036889 -0.013300 0.066985
v 0.004500 -0.010700 0.019000
v 0.033736 -0.013300 0.066167
v 0.002753 -0.013300 0.030286
v 0.030356 -0.013300 0.053428
v 0.011365 -0.013300 0.033309
v 0.025189 -0.013300 0.043231
v 0.005013 -0.013300 0.031774
v 0.031756 -0.013300 0.063580
v 0.021247 -0.013300 0.039055
v 0.001500 -0.013300 0.027000
v 0.016582 -0.013300 0.035707
v 0.031392 -0.013300 0.059076
v 0.028262 -0.013300 0.048081
v 0.002202 -0.013300 0.020072
v 0.040484 -0.013350 0.019804
v 0.040894 -0.013300 0.064387
v 0.041500 -0.013300 0.022000
v 0.001500 -0.013300 0.022000
v 0.038500 -0.013350 0.019000
v 0.041500 -0.013300 0.062000
v 0.039210 -0.013300 0.066196
v 0.036889 0.017000 0.066985
v 0.039193 0.017000 0.066196
v 0.040894 0.017000 0.064387
v 0.001500 0.017000 0.022000
v 0.031756 0.017000 0.063580
v 0.041500 0.017000 0.062000
v 0.040484 0.017000 0.019804
v 0.004500 0.017000 0.019000
v 0.041500 0.017000 0.022000
v 0.028262 0.017000 0.048081
v 0.001500 0.017000 0.027000
v 0.011365 0.017000 0.033309
v 0.038500 0.017000 0.019000
v 0.025189 0.017000 0.043231
v 0.002202 0.017000 0.020072
v 0.036889 0.013300 0.066985
v 0.025536 -0.010700 0.007649
v 0.026500 -0.010700 0.008000
v 0.025023 -0.010700 0.006760
v 0.024979 -0.010700 0.005383
v 0.029649 -0.010700 0.008536
v 0.022019 -0.010700 0.004000
v 0.023310 -0.010700 0.010500
v 0.017000 -0.010700 0.004000
v 0.017000 -0.010700 0.012991
v 0.028914 -0.010700 0.010500
v 0.017000 -0.010700 0.019000
v 0.004500 0.010700 0.019000
v 0.033736 0.013300 0.066167
v 0.030879 -0.011700 0.013879
v 0.002753 0.013300 0.030286
v 0.030356 0.013300 0.053428
v 0.030000 -0.010707 0.011723
v 0.030000 -0.010700 0.009500
v 0.004500 -0.013700 0.019000
v 0.036773 -0.013700 0.018963
v 0.028760 -0.010700 0.008023
v 0.023701 -0.010700 0.004018
v 0.024558 -0.010700 0.004460
v 0.017000 -0.011700 0.014066
v 0.017000 -0.010741 0.013962
v 0.028500 -0.013700 0.011500
v 0.028500 -0.011700 0.011500
v 0.035121 -0.013700 0.018121
v 0.023500 -0.011700 0.011500
v 0.023500 -0.013700 0.011500
v 0.035881 -0.013700 0.018673
v 0.011365 0.013300 0.033309
v 0.025189 0.013300 0.043231
v 0.005013 0.013300 0.031774
v 0.031756 0.013300 0.063580
v 0.021247 0.013300 0.039055
v 0.001500 0.013300 0.027000
v 0.016582 0.013300 0.035707
v 0.031392 0.013300 0.059076
v 0.028262 0.013300 0.048081
v 0.002202 0.013300 0.020072
v 0.040484 0.013350 0.019804
v 0.040894 0.013300 0.064387
v 0.041500 0.013300 0.022000
v 0.001500 0.013300 0.022000
v 0.038500 0.013350 0.019000
v 0.041500 0.013300 0.062000
v 0.039210 0.013300 0.066196
v 0.025536 0.010700 0.007649
v 0.026500 0.010700 0.008000
v 0.025023 0.010700 0.006760
v 0.024979 0.010700 0.005383
v 0.029649 0.010700 0.008536
v 0.022019 0.010700 0.004000
v 0.023310 0.010700 0.010500
v 0.017000 -0.010497 0.012991
v 0.017000 0.010700 0.004000
v 0.017000 -0.010494 0.004448
v 0.017000 0.010700 0.012991
v 0.028914 0.010700 0.010500
v 0.017000 -0.010494 0.004000
v 0.017000 0.010700 0.019000
v 0.017000 -0.010499 0.019000
v 0.030879 0.011700 0.013879
v 0.030000 0.010707 0.011723
v 0.017000 -0.010497 0.013962
v 0.011000 -0.010500 0.019000
v 0.014000 -0.010500 0.019000
v 0.030000 0.010700 0.009500
v 0.004500 0.013700 0.019000
v 0.023500 -0.010500 0.004016
v 0.036773 0.013700 0.018963
v 0.028760 0.010700 0.008023
v 0.023701 0.010700 0.004018
v 0.024558 0.010700 0.004460
v 0.017000 0.011700 0.014066
v 0.017000 0.010741 0.013962
v 0.028500 0.013700 0.011500
v 0.028500 0.011700 0.011500
v 0.035121 0.013700 0.018121
v 0.023500 0.011700 0.011500
v 0.023500 0.013700 0.011500
v 0.035881 0.013700 0.018673
v 0.017000 0.010497 0.012991
v 0.017000 0.010494 0.004448
v 0.017000 0.010494 0.004000
v 0.017000 0.010499 0.019000
v 0.017000 0.010497 0.013962
v 0.011000 0.010500 0.019000
v 0.014000 0.010500 0.019000
v 0.023500 0.010500 0.004016
vn -0.2596 0.7071 -0.6577
vn -0.1310 0.7134 -0.6884
vn 0.9768 -0.0000 -0.2143
vn 0.9261 -0.0000 -0.3774
vn 0.3227 0.0010 0.9465
vn 0.5423 0.0013 0.8402
vn 0.3229 0.0008 0.9464
vn -0.9835 -0.0000 0.1811
vn -0.9729 -0.0000 -0.2311
vn -0.9397 -0.0000 -0.3420
vn -0.9848 -0.0000 -0.1736
vn -0.3678 0.0090 -0.9299
vn -0.3085 0.0070 -0.9512
vn -0.1869 -0.0000 -0.9824
vn -1.0000 -0.0000 -0.0000
vn 0.9923 -0.0000 0.1241
vn 0.8772 -0.0011 0.4801
vn -0.7941 -0.0000 0.6078
vn -0.2164 -0.0028 -0.9763
vn -0.3085 -0.0070 -0.9512
vn 0.0883 -0.0028 -0.9961
vn 0.9075 -0.0000 -0.4201
vn 0.9582 -0.0000 -0.2860
vn 0.9766 -0.0000 -0.2151
vn -0.8920 -0.0000 0.4520
vn -0.9618 -0.0000 0.2738
vn -0.0000 1.0000 -0.0000
vn 0.8774 0.0009 0.4798
vn -0.4226 -0.0000 -0.9063
vn -0.2164 0.0028 -0.9763
vn -0.5027 -0.0000 0.8645
vn -0.3278 -0.0000 0.9447
vn -0.9914 -0.0000 0.1307
vn -0.9967 -0.0000 0.0806
vn -0.0012 1.0000 -0.0013
vn -0.0009 1.0000 -0.0010
vn 0.5431 -0.0015 0.8397
vn 0.8774 -0.0009 0.4798
vn -0.7071 -0.0000 0.7071
vn -0.6582 -0.0000 0.7529
vn -0.0000 -0.0000 -1.0000
vn -0.0002 -0.0000 -1.0000
vn -0.7896 -0.0000 0.6137
vn -0.9344 -0.0000 0.3561
vn -0.2512 -0.0000 0.9679
vn -0.0000 0.7071 -0.7071
vn 0.0883 0.0029 -0.9961
vn 0.1915 0.0029 -0.9815
vn -0.0030 1.0000 -0.0033
vn 0.2379 -0.0000 -0.9713
vn 0.4583 -0.0000 -0.8888
vn -0.0000 -0.0000 1.0000
vn -0.3086 0.0062 -0.9512
vn -0.3086 -0.0062 -0.9512
vn 0.9737 -0.0000 -0.2277
vn 0.9617 -0.0000 -0.2740
vn 0.9098 -0.0000 -0.4150
vn -0.0000 -1.0000 -0.0000
vn -0.3982 -0.0000 0.9173
vn 0.3227 -0.0010 0.9465
vn 0.5423 -0.0013 0.8402
vn -0.5496 -0.0000 0.8354
vn 0.1973 -0.0012 -0.9803
vn 0.3758 -0.0000 -0.9267
vn 0.1915 -0.0029 -0.9815
vn -0.9835 -0.0000 0.1810
vn 0.9848 -0.0000 -0.1735
vn -0.1310 -0.7134 -0.6884
vn -0.0000 -0.7071 -0.7071
vn 0.5265 -0.6817 -0.5079
vn 0.5265 -0.6817 -0.5080
vn -0.0003 -0.0000 -1.0000
vn 0.1974 0.0012 -0.9803
vn -0.0012 -1.0000 -0.0013
vn -0.0009 -1.0000 -0.0010
vn -0.0030 -1.0000 -0.0033
vn -0.3678 -0.0091 -0.9299
vn -0.0000 1.0000 -0.0082
vn 0.7071 -0.0000 -0.7071
vn -0.2596 -0.7071 -0.6577
vn -0.0001 1.0000 0.0003
vn -0.0000 1.0000 0.0002
vn -0.0002 1.0000 0.0003
vn 0.8660 -0.0000 -0.5000
vn 0.1786 -0.0000 -0.9839
vn 0.2637 -0.0000 -0.9646
vn 0.5878 -0.0000 -0.8090
vn 0.4540 -0.0000 -0.8910
vn 0.3420 -0.0000 -0.9397
vn 0.0011 1.0000 -0.0001
vn 0.0007 1.0000 -0.0001
vn 0.0004 1.0000 -0.0000
vn 0.5000 -0.0000 -0.8660
vn -0.0000 -1.0000 -0.0082
vn 0.0005 1.0000 -0.0001
vn -0.0003 1.0000 0.0002
vn -0.0004 1.0000 -0.0000
vn 0.5265 0.6817 -0.5080
vn 0.5265 0.6817 -0.5079
vn 0.0002 1.0000 0.0001
vn 0.0002 1.0000 0.0004
vn -0.0002 -1.0000 0.0003
vn 0.0001 -1.0000 0.0001
vn 0.0002 -1.0000 0.0004
vn -0.0003 -1.0000 0.0002
vn 0.0005 -1.0000 -0.0001
vn -0.0004 -1.0000 -0.0000
vn 0.5431 0.0015 0.8397
vn 0.8773 0.0009 0.4799
vn 0.0002 -1.0000 0.0001
vn 0.0002 -1.0000 -0.0000
vn 0.0011 -1.0000 -0.0001
vn 0.0014 -1.0000 -0.0002
vn 0.9397 -0.0000 -0.3420
vn 1.0000 -0.0000 -0.0000
vn 1.0000 -0.0000 0.0003
vn 0.0044 -0.0000 -1.0000
vn 0.3229 -0.0008 0.9464
vn -0.3688 -0.0245 -0.9292
vn -0.3688 0.0245 -0.9292
vn 0.0014 1.0000 -0.0002
vn 0.0002 1.0000 -0.0000
vn 0.0003 1.0000 0.0001
vn 0.0004 -1.0000 -0.0000
vn 0.0007 -1.0000 -0.0001
vn 0.0003 -1.0000 0.0001
vt 0.045221 0.189269
vt 0.046546 0.264348
vt 0.064120 0.262173
vt 0.034940 0.457169
vt 0.032254 0.463619
vt 0.188475 0.980697
vt 0.196899 0.978603
vt 0.002438 0.770499
vt 0.002438 0.744214
vt 0.002438 0.770499
vt 0.006127 0.734077
vt 0.922445 0.457088
vt 0.900620 0.310441
vt 0.900620 0.533344
vt 0.958544 0.390567
vt 0.958544 0.390567
vt 0.987405 0.390567
vt 0.212682 0.954902
vt 0.209527 0.967040
vt 0.212716 0.954492
vt 0.161493 0.962799
vt 0.171901 0.976395
vt 0.018208 0.728443
vt 0.959747 0.274485
vt 0.207082 0.732133
vt 0.212716 0.744214
vt 0.143127 0.881323
vt 0.154131 0.909432
vt 0.094326 0.287278
vt 0.104129 0.282039
vt 0.081724 0.816272
vt 0.054296 0.803665
vt 0.159579 0.939123
vt 0.063945 0.325382
vt 0.076251 0.336432
vt 0.086509 0.331621
vt 0.197143 0.978472
vt 0.209336 0.967293
vt 0.000000 0.000000
vt 0.106247 0.833873
vt 0.207082 0.732133
vt 0.137017 0.172657
vt 0.138612 0.103550
vt 0.106247 0.833873
vt 0.126968 0.855825
vt 0.355231 0.739913
vt 0.362066 0.739913
vt 0.007553 0.786079
vt 0.092576 0.538997
vt 0.096177 0.591393
vt 0.103442 0.555349
vt 0.046103 0.320136
vt 0.196945 0.728443
vt 0.052970 0.339877
vt 0.955123 0.390814
vt 0.938241 0.390567
vt 0.091321 0.321390
vt 0.090410 0.297628
vt 0.034960 0.424543
vt 0.034960 0.427214
vt 0.034960 0.430032
vt 0.034960 0.433759
vt 0.020907 0.795595
vt 0.131267 0.652407
vt 0.954911 0.394140
vt 0.938241 0.390567
vt 0.906118 0.834366
vt 0.173761 0.688538
vt 0.196945 0.728443
vt 0.034960 0.451166
vt 0.537176 0.423707
vt 0.905953 0.842707
vt 0.027362 0.350968
vt 0.138612 0.036037
vt 0.096023 0.595075
vt 0.026756 0.493158
vt 0.097014 0.598625
vt 0.139564 0.198442
vt 0.090544 0.294760
vt 0.922445 0.533344
vt 0.482634 0.447002
vt 0.470330 0.456309
vt 0.459546 0.416476
vt 0.933357 0.310441
vt 0.026858 0.479829
vt 0.032260 0.463623
vt 0.135415 0.251173
vt 0.027362 0.189362
vt 0.900620 0.587905
vt 0.922445 0.587905
vt 0.900623 0.561966
vt 0.907457 0.561966
vt 0.918497 0.516230
vt 0.026858 0.454537
vt 0.032260 0.454537
vt 0.034960 0.436584
vt 0.427800 0.526291
vt 0.429657 0.490565
vt 0.034960 0.439408
vt 0.034960 0.445517
vt 0.026858 0.482372
vt 0.026858 0.484914
vt 0.034960 0.438702
vt 0.362245 0.397590
vt 0.205406 0.434917
vt 0.925331 0.495203
vt 0.118992 0.282174
vt 0.034960 0.448341
vt 0.551118 0.379198
vt 0.925331 0.509397
vt 0.539658 0.381016
vt 0.708467 0.403003
vt 0.324425 0.443216
vt 0.136841 0.440970
vt 0.900623 0.495203
vt 0.380045 0.393345
vt 0.995020 0.305491
vt 0.473240 0.400676
vt 0.466407 0.400676
vt 0.034960 0.424000
vt 0.988919 0.390567
vt 0.932909 0.457505
vt 0.134272 0.269048
vt 0.129123 0.278066
vt 0.473278 0.371394
vt 0.823354 0.396785
vt 0.907457 0.428439
vt 0.900623 0.428439
vt 0.034960 0.406439
vt 0.034960 0.419995
s 1
f 144/1/1 166/2/2 140/3/2
f 102/4/3 149/5/4 99/5/4
f 85/6/5 71/7/6 70/6/7
f 80/8/8 130/9/9 122/10/8
f 66/9/9 47/11/10 35/9/11
f 161/12/12 155/13/13 167/14/14
f 94/15/15 141/16/15 143/17/15
f 68/18/16 34/19/17 38/20/16
f 74/21/18 98/22/18 37/22/18
f 40/23/19 104/23/20 105/24/21
f 127/25/22 65/26/23 63/25/22
f 65/26/23 38/20/16 41/26/24
f 42/27/25 52/28/26 61/27/25
f 84/11/10 130/9/9 73/9/11
f 134/29/27 136/30/27 140/3/27
f 72/19/28 132/18/16 75/20/16
f 155/23/13 84/11/29 77/23/30
f 59/31/31 44/32/32 10/31/31
f 36/21/18 50/22/18 56/21/18
f 20/33/33 56/21/34 60/33/33
f 145/34/35 154/35/36 138/36/27
f 69/37/37 34/19/17 64/38/38
f 6/39/39 29/39/39 2/39/39
f 81/32/32 123/31/31 13/31/31
f 10/31/31 57/40/40 59/31/31
f 43/8/8 66/9/9 35/9/11
f 63/25/22 41/26/24 39/41/22
f 27/42/41 25/43/42 22/42/41
f 15/44/40 118/45/43 83/45/43
f 9/46/15 27/47/15 22/47/15
f 1/48/44 122/10/8 100/48/44
f 37/22/45 85/6/45 70/6/45
f 167/49/27 165/50/27 163/51/27
f 164/52/46 140/3/2 166/2/2
f 46/45/43 61/27/25 54/45/43
f 20/33/33 52/28/26 14/28/26
f 157/24/47 77/23/30 82/53/48
f 154/35/36 145/34/35 150/54/49
f 173/55/15 147/56/15 162/55/15
f 158/57/27 145/34/35 138/36/27
f 135/58/27 145/34/35 158/57/27
f 107/59/50 160/60/51 108/60/51
f 83/45/43 125/27/25 79/27/25
f 129/26/52 66/9/52 65/26/52
f 97/23/53 126/11/29 155/23/13
f 49/23/54 104/23/20 62/11/29
f 137/61/55 88/62/56 89/61/55
f 137/61/55 108/60/57 160/60/57
f 54/45/43 11/44/40 46/45/43
f 104/23/20 47/11/29 62/11/29
f 82/53/27 15/44/27 78/26/27
f 36/21/58 33/7/58 28/22/58
f 7/63/59 53/32/32 55/63/59
f 48/6/60 33/7/61 69/64/37
f 161/65/15 144/15/15 162/55/15
f 151/55/15 96/56/15 148/66/15
f 66/9/9 126/11/10 62/11/10
f 100/48/62 3/63/59 1/48/62
f 129/26/58 125/27/58 118/45/58
f 2/67/52 9/68/52 6/67/52
f 67/69/63 39/41/64 45/53/65
f 28/22/45 48/6/45 50/22/45
f 51/48/62 7/63/59 55/63/59
f 4/48/44 58/10/66 43/8/8
f 10/31/58 44/32/58 40/23/58
f 157/24/47 67/69/63 105/24/21
f 75/20/16 129/26/23 78/26/24
f 154/70/67 102/4/3 103/70/67
f 152/71/15 29/72/15 24/72/15
f 120/21/34 19/33/33 124/33/33
f 92/3/68 112/52/69 114/2/68
f 112/52/70 102/54/71 99/73/70
f 25/43/42 23/74/72 21/74/72
f 168/75/27 155/76/27 157/77/27
f 131/69/73 63/25/64 67/69/63
f 93/78/58 92/3/58 94/1/58
f 106/57/58 90/36/58 95/34/74
f 95/34/74 90/36/58 103/35/75
f 87/58/58 106/57/58 95/34/74
f 92/3/58 87/79/58 95/34/74
f 103/35/75 102/54/76 95/34/74
f 86/29/58 92/3/58 88/30/58
f 126/11/29 49/23/54 62/11/29
f 114/80/14 115/14/14 109/12/77
f 109/12/77 115/14/14 104/13/20
f 13/31/31 121/40/40 15/44/40
f 96/81/78 110/82/78 49/83/78
f 49/84/54 109/12/77 104/13/20
f 75/20/27 74/21/27 71/7/27
f 86/29/58 87/79/58 92/3/58
s 0
f 165/85/79 99/86/79 149/86/79
s 1
f 142/78/27 140/3/27 139/87/27
f 140/3/27 145/34/35 135/79/27
f 101/28/26 19/33/33 16/28/26
f 94/1/80 114/2/68 109/88/80
f 111/89/41 114/80/14 112/90/41
f 101/28/26 79/27/25 125/27/25
f 116/75/58 105/77/58 104/76/58
f 104/76/58 113/50/58 116/75/58
f 163/89/41 166/80/14 167/14/14
f 155/76/27 168/75/27 165/50/27
f 88/30/58 92/3/58 91/87/58
f 27/91/81 12/92/82 2/93/83
s 0
f 99/86/79 111/94/79 112/95/79
s 1
f 88/62/56 134/96/84 86/96/84
f 18/97/52 8/98/52 5/98/52
f 135/99/85 106/100/86 87/99/85
f 161/12/12 97/84/53 155/13/13
f 94/15/15 151/55/15 141/16/15
f 109/65/15 110/55/15 94/15/15
f 173/55/15 144/15/15 169/16/15
f 113/50/58 115/49/58 111/51/58
f 165/85/87 116/101/88 113/85/87
f 166/80/14 161/12/12 167/14/14
f 168/101/88 105/102/21 116/101/88
f 86/96/89 135/103/85 87/103/85
f 169/104/90 170/105/91 31/106/92
f 136/30/27 137/107/27 139/87/27
f 106/100/86 138/108/93 90/108/93
f 147/81/94 97/83/94 162/82/94
f 175/109/95 29/110/96 174/111/97
f 152/112/41 49/83/54 97/83/53
s 0
f 149/86/79 163/94/79 165/85/79
s 1
f 150/54/98 164/52/99 149/73/99
f 76/41/64 131/69/73 82/53/48
f 171/113/100 18/114/100 30/115/101
f 6/93/102 22/91/103 25/115/104
f 127/25/22 78/26/24 129/26/23
f 24/110/105 153/109/106 152/111/107
f 134/29/27 140/3/27 135/79/27
f 72/19/28 133/37/108 128/38/109
f 3/63/59 117/32/32 81/32/32
f 17/114/110 156/114/111 146/113/110
f 141/104/112 151/116/113 153/109/106
f 90/108/114 154/70/67 103/70/67
f 57/40/27 54/45/27 65/26/27
f 170/17/15 169/16/15 144/15/15
f 17/117/115 176/117/115 156/117/115
f 23/118/116 8/119/116 21/118/116
f 156/120/117 159/59/50 107/59/50
f 144/1/1 161/88/1 166/2/2
f 102/4/3 150/4/3 149/5/4
f 85/6/5 133/64/108 71/7/6
f 80/8/8 73/9/11 130/9/9
f 66/9/9 62/11/10 47/11/10
f 146/121/15 93/121/15 143/17/15
f 93/121/15 94/15/15 143/17/15
f 68/18/16 64/38/38 34/19/17
f 74/21/18 120/21/18 98/22/18
f 105/24/21 67/69/63 45/53/65
f 45/53/65 40/23/19 105/24/21
f 127/25/22 129/26/23 65/26/23
f 65/26/23 68/18/16 38/20/16
f 42/27/25 14/28/26 52/28/26
f 84/11/10 126/11/10 130/9/9
f 72/19/28 128/38/109 132/18/16
f 155/23/13 126/11/29 84/11/29
f 59/31/31 53/32/32 44/32/32
f 36/21/18 28/22/18 50/22/18
f 20/33/33 36/21/34 56/21/34
f 69/37/37 33/7/61 34/19/17
f 6/39/39 24/39/39 29/39/39
f 81/32/32 117/32/32 123/31/31
f 10/31/31 11/44/40 57/40/40
f 43/8/8 58/10/66 66/9/9
f 63/25/22 65/26/23 41/26/24
f 27/42/41 30/43/42 25/43/42
f 15/44/40 121/40/40 118/45/43
f 9/46/15 12/46/15 27/47/15
f 1/48/44 80/8/8 122/10/8
f 37/22/45 98/22/45 85/6/45
f 167/49/27 155/76/27 165/50/27
f 164/52/46 145/34/46 140/3/2
f 46/45/43 42/27/25 61/27/25
f 20/33/33 60/33/33 52/28/26
f 157/24/47 155/23/13 77/23/30
f 82/53/48 131/69/73 157/24/47
f 173/55/15 172/66/15 147/56/15
f 107/59/50 159/59/50 160/60/51
f 83/45/43 118/45/43 125/27/25
f 129/26/52 130/9/52 66/9/52
f 137/61/55 136/62/56 88/62/56
f 137/61/55 89/61/55 108/60/57
f 54/45/43 57/40/40 11/44/40
f 104/23/20 40/23/19 47/11/29
f 73/9/27 80/8/27 77/23/27
f 80/8/27 1/48/27 3/63/27
f 3/63/27 81/32/27 77/23/27
f 80/8/27 3/63/27 77/23/27
f 77/23/27 84/11/27 73/9/27
f 76/41/27 82/53/27 78/26/27
f 82/53/27 77/23/27 13/31/27
f 75/20/27 78/26/27 79/27/27
f 79/27/27 78/26/27 83/45/27
f 16/28/27 19/33/27 75/20/27
f 79/27/27 16/28/27 75/20/27
f 82/53/27 13/31/27 15/44/27
f 78/26/27 15/44/27 83/45/27
f 77/23/27 81/32/27 13/31/27
f 20/33/58 38/20/58 36/21/58
f 38/20/58 34/19/58 33/7/58
f 36/21/58 38/20/58 33/7/58
f 33/7/58 32/6/58 28/22/58
f 7/63/59 44/32/32 53/32/32
f 48/6/60 32/6/118 33/7/61
f 151/55/15 110/55/15 96/56/15
f 66/9/9 130/9/9 126/11/10
f 100/48/62 119/63/59 3/63/59
f 117/32/58 119/63/58 130/9/58
f 119/63/58 100/48/58 122/10/58
f 130/9/58 119/63/58 122/10/58
f 129/26/58 132/18/58 125/27/58
f 132/18/58 128/38/58 133/64/58
f 124/33/58 132/18/58 120/21/58
f 133/64/58 85/6/58 120/21/58
f 85/6/58 98/22/58 120/21/58
f 132/18/58 124/33/58 101/28/58
f 133/64/58 120/21/58 132/18/58
f 130/9/58 129/26/58 117/32/58
f 132/18/58 101/28/58 125/27/58
f 123/31/58 117/32/58 129/26/58
f 121/40/58 123/31/58 129/26/58
f 118/45/58 121/40/58 129/26/58
f 2/67/52 12/68/52 9/68/52
f 67/69/63 63/25/64 39/41/64
f 28/22/45 32/6/45 48/6/45
f 51/48/62 4/48/62 7/63/59
f 4/48/44 51/48/44 58/10/8
f 4/48/58 43/8/58 7/63/58
f 43/8/58 35/9/58 40/23/58
f 35/9/58 47/11/58 40/23/58
f 40/23/58 45/53/58 10/31/58
f 45/53/58 39/41/58 41/26/58
f 10/31/58 45/53/58 11/44/58
f 41/26/58 38/20/58 42/27/58
f 38/20/58 20/33/58 14/28/58
f 38/20/58 14/28/58 42/27/58
f 41/26/58 42/27/58 46/45/58
f 11/44/58 41/26/58 46/45/58
f 43/8/58 40/23/58 7/63/58
f 44/32/58 7/63/58 40/23/58
f 41/26/58 11/44/58 45/53/58
f 157/24/47 131/69/73 67/69/63
f 75/20/16 132/18/16 129/26/23
f 154/70/67 150/4/3 102/4/3
f 152/71/15 174/71/15 29/72/15
f 120/21/34 74/21/34 19/33/33
f 92/3/68 95/34/69 112/52/69
f 112/52/70 95/34/70 102/54/71
f 25/43/42 30/43/42 23/74/72
f 131/69/73 127/25/64 63/25/64
f 93/78/58 91/87/58 92/3/58
f 126/11/29 97/23/53 49/23/54
f 13/31/31 123/31/31 121/40/40
f 49/84/54 110/122/119 109/12/77
f 72/19/27 75/20/27 71/7/27
f 75/20/27 19/33/27 74/21/27
f 74/21/27 37/22/27 71/7/27
f 37/22/27 70/6/27 71/7/27
s 0
f 165/85/79 113/85/79 99/86/79
s 1
f 142/78/27 144/1/27 140/3/27
f 101/28/26 124/33/33 19/33/33
f 94/1/80 92/3/68 114/2/68
f 111/89/41 115/14/14 114/80/14
f 101/28/26 16/28/26 79/27/25
f 163/89/41 164/90/41 166/80/14
f 91/87/58 107/123/58 89/107/58
f 107/123/58 108/124/58 89/107/58
f 89/107/58 88/30/58 91/87/58
f 29/39/96 31/106/92 2/93/83
f 31/106/92 30/115/101 2/93/83
f 30/115/101 27/91/81 2/93/83
s 0
f 99/86/79 113/85/79 111/94/79
s 1
f 88/62/56 136/62/56 134/96/84
f 18/97/52 17/97/52 8/98/52
f 135/99/85 158/100/86 106/100/86
f 161/12/12 162/122/120 97/84/53
f 94/15/15 110/55/15 151/55/15
f 173/55/15 162/55/15 144/15/15
f 113/50/58 104/76/58 115/49/58
f 165/85/87 168/101/88 116/101/88
f 168/101/88 157/102/47 105/102/21
f 86/96/89 134/96/89 135/103/85
f 31/106/92 175/109/95 169/104/90
f 175/109/95 172/125/121 173/116/121
f 169/104/90 175/109/95 173/116/121
f 160/124/27 159/123/27 137/107/27
f 159/123/27 139/87/27 137/107/27
f 139/87/27 140/3/27 136/30/27
f 106/100/86 158/100/86 138/108/93
f 175/109/95 31/106/92 29/110/96
f 148/66/41 96/56/41 153/126/41
f 96/56/41 49/83/54 152/112/41
f 153/126/41 96/56/41 152/112/41
f 97/83/53 147/56/41 174/112/41
f 147/56/41 172/66/41 175/126/41
f 147/56/41 175/126/41 174/112/41
f 174/112/41 152/112/41 97/83/53
s 0
f 149/86/79 164/95/79 163/94/79
s 1
f 150/54/98 145/34/99 164/52/99
f 76/41/64 127/25/64 131/69/73
f 31/106/92 170/105/91 171/113/100
f 171/113/100 176/114/122 18/114/100
f 18/114/100 5/127/100 23/128/123
f 23/128/123 30/115/101 18/114/100
f 30/115/101 31/106/92 171/113/100
f 25/115/104 26/106/124 6/93/102
f 26/106/124 24/39/105 6/93/102
f 6/93/102 9/92/111 22/91/103
f 127/25/22 76/41/22 78/26/24
f 24/110/105 26/106/124 153/109/106
f 72/19/28 71/7/6 133/37/108
f 3/63/59 119/63/59 117/32/32
f 146/113/110 143/105/125 26/106/124
f 26/106/124 25/115/104 146/113/110
f 25/115/104 21/128/126 17/114/110
f 146/113/110 25/115/104 17/114/110
f 21/128/126 8/127/110 17/114/110
f 148/125/113 153/109/106 151/116/113
f 153/109/106 26/106/124 141/104/112
f 26/106/124 143/105/125 141/104/112
f 90/108/114 138/108/114 154/70/67
f 60/33/27 56/21/27 68/18/27
f 56/21/27 50/22/27 69/64/27
f 50/22/27 48/6/27 69/64/27
f 69/64/27 64/38/27 68/18/27
f 65/26/27 66/9/27 53/32/27
f 66/9/27 58/10/27 55/63/27
f 53/32/27 66/9/27 55/63/27
f 58/10/27 51/48/27 55/63/27
f 69/64/27 68/18/27 56/21/27
f 68/18/27 65/26/27 61/27/27
f 52/28/27 68/18/27 61/27/27
f 52/28/27 60/33/27 68/18/27
f 65/26/27 53/32/27 59/31/27
f 65/26/27 59/31/27 57/40/27
f 54/45/27 61/27/27 65/26/27
f 144/15/15 142/121/15 170/17/15
f 142/121/15 171/121/15 170/17/15
f 17/117/115 18/117/115 176/117/115
f 23/118/116 5/119/116 8/119/116
f 176/120/117 171/129/117 139/130/117
f 171/129/117 142/129/117 139/130/117
f 139/130/117 159/59/50 176/120/117
f 107/59/50 91/130/117 156/120/117
f 91/130/117 93/129/117 146/129/117
f 156/120/117 91/130/117 146/129/117
f 156/120/117 176/120/117 159/59/50
