{
	"asset":{
		"generator":"Khronos glTF Blender I/O v1.8.19",
		"version":"2.0"
	},
	"scene":0,
	"scenes":[
		{
			"name":"Scene",
			"nodes":[
				0
			]
		}
	],
	"nodes":[
		{
			"mesh":0,
			"name":"finray_finger_R",
			"rotation":[
				0,
				-0.7071068286895752,
				0,
				0.7071068286895752
			]
		}
	],
	"materials":[
		{
			"doubleSided":true,
			"name":"finray_finger_material",
			"normalTexture":{
				"index":0
			},
			"occlusionTexture":{
				"index":1
			},
			"pbrMetallicRoughness":{
				"baseColorTexture":{
					"index":2
				},
				"metallicRoughnessTexture":{
					"index":1
				}
			}
		}
	],
	"meshes":[
		{
			"name":"finray_finger_R",
			"primitives":[
				{
					"attributes":{
						"POSITION":0,
						"NORMAL":1,
						"TEXCOORD_0":2
					},
					"indices":3,
					"material":0
				}
			]
		}
	],
	"textures":[
		{
			"sampler":0,
			"source":0,
			"extensions":{
				"KHR_texture_basisu":{
					"source":3
				}
			}
		},
		{
			"sampler":0,
			"source":1,
			"extensions":{
				"KHR_texture_basisu":{
					"source":4
				}
			}
		},
		{
			"sampler":0,
			"source":2,
			"extensions":{
				"KHR_texture_basisu":{
					"source":5
				}
			}
		}
	],
	"images":[
		{
			"mimeType":"image/png",
			"name":"finray_finger_R_normal",
			"uri":"finray_finger_R_normal.png"
		},
		{
			"mimeType":"image/png",
			"name":"finray_finger_R_occlusion_roughness_metallic",
			"uri":"finray_finger_R_occlusion_roughness_metallic.png"
		},
		{
			"mimeType":"image/png",
			"name":"finray_finger_R_color",
			"uri":"finray_finger_R_color.png"
		},
		{
			"mimeType":"image/ktx2",
			"uri":"finray_finger_R_normal.ktx2"
		},
		{
			"mimeType":"image/ktx2",
			"uri":"finray_finger_R_occlusion_roughness_metallic.ktx2"
		},
		{
			"mimeType":"image/ktx2",
			"uri":"finray_finger_R_color.ktx2"
		}
	],
	"accessors":[
		{
			"bufferView":0,
			"componentType":5126,
			"count":14109,
			"max":[
				0.041499990969896317,
				0.1454778015613556,
				0.018690060824155807
			],
			"min":[
				-5.820766091346741e-10,
				-1.3704609669318302e-09,
				-0.018690075725317
			],
			"type":"VEC3"
		},
		{
			"bufferView":1,
			"componentType":5126,
			"count":14109,
			"type":"VEC3"
		},
		{
			"bufferView":2,
			"componentType":5126,
			"count":14109,
			"type":"VEC2"
		},
		{
			"bufferView":3,
			"componentType":5123,
			"count":24312,
			"type":"SCALAR"
		}
	],
	"bufferViews":[
		{
			"buffer":0,
			"byteLength":169308,
			"byteOffset":0
		},
		{
			"buffer":0,
			"byteLength":169308,
			"byteOffset":169308
		},
		{
			"buffer":0,
			"byteLength":112872,
			"byteOffset":338616
		},
		{
			"buffer":0,
			"byteLength":48624,
			"byteOffset":451488
		}
	],
	"samplers":[
		{
			"magFilter":9729,
			"minFilter":9987
		}
	],
	"buffers":[
		{
			"byteLength":500112,
			"uri":"finray_finger_R.bin"
		}
	],
	"extensionsUsed":[
		"KHR_texture_basisu"
	]
}
