{
	"asset":{
		"generator":"glTF-Transform v3.10.1",
		"version":"2.0"
	},
	"accessors":[
		{
			"type":"VEC3",
			"componentType":5126,
			"count":5997,
			"max":[
				0.035010822117328644,
				0.006998864002525806,
				0.008270449005067348
			],
			"min":[
				-0.03650619834661484,
				-0.006998864002525806,
				-0.008270449005067348
			],
			"bufferView":0,
			"byteOffset":0
		},
		{
			"type":"VEC3",
			"componentType":5126,
			"count":5997,
			"bufferView":0,
			"byteOffset":12
		},
		{
			"type":"VEC2",
			"componentType":5126,
			"count":5997,
			"bufferView":0,
			"byteOffset":24
		},
		{
			"type":"VEC3",
			"componentType":5126,
			"count":21163,
			"max":[
				0.051422957330942154,
				0.007003330625593662,
				0.008276023901998997
			],
			"min":[
				-0.17450906336307526,
				-0.007003330625593662,
				-0.01593008078634739
			],
			"bufferView":1,
			"byteOffset":0
		},
		{
			"type":"VEC3",
			"componentType":5126,
			"count":21163,
			"bufferView":1,
			"byteOffset":12
		},
		{
			"type":"VEC2",
			"componentType":5126,
			"count":21163,
			"bufferView":1,
			"byteOffset":24
		},
		{
			"type":"SCALAR",
			"componentType":5123,
			"count":21792,
			"bufferView":2,
			"byteOffset":0
		},
		{
			"type":"SCALAR",
			"componentType":5123,
			"count":69384,
			"bufferView":2,
			"byteOffset":43584
		}
	],
	"bufferViews":[
		{
			"buffer":0,
			"byteOffset":0,
			"byteLength":191904,
			"byteStride":32,
			"target":34962
		},
		{
			"buffer":0,
			"byteOffset":191904,
			"byteLength":677216,
			"byteStride":32,
			"target":34962
		},
		{
			"buffer":0,
			"byteOffset":869120,
			"byteLength":182352,
			"target":34963
		}
	],
	"samplers":[
		{
			"magFilter":9729,
			"minFilter":9987,
			"wrapS":10497,
			"wrapT":10497
		}
	],
	"textures":[
		{
			"source":0,
			"sampler":0,
			"extensions":{
				"KHR_texture_basisu":{
					"source":3
				}
			}
		},
		{
			"source":1,
			"sampler":0,
			"extensions":{
				"KHR_texture_basisu":{
					"source":4
				}
			}
		},
		{
			"source":2,
			"sampler":0,
			"extensions":{
				"KHR_texture_basisu":{
					"source":5
				}
			}
		}
	],
	"images":[
		{
			"name":"cambridge_jubilee_stainless_plastic_knife_normal",
			"mimeType":"image/png",
			"uri":"cambridge_jubilee_stainless_plastic_knife_normal.png"
		},
		{
			"name":"cambridge_jubilee_stainless_plastic_knife_occlusion_roughness_metallic",
			"mimeType":"image/png",
			"uri":"cambridge_jubilee_stainless_plastic_knife_occlusion_roughness_metallic.png"
		},
		{
			"name":"cambridge_jubilee_stainless_plastic_knife_color",
			"mimeType":"image/png",
			"uri":"cambridge_jubilee_stainless_plastic_knife_color.png"
		},
		{
			"mimeType":"image/ktx2",
			"uri":"cambridge_jubilee_stainless_plastic_knife_normal.ktx2"
		},
		{
			"mimeType":"image/ktx2",
			"uri":"cambridge_jubilee_stainless_plastic_knife_occlusion_roughness_metallic.ktx2"
		},
		{
			"mimeType":"image/ktx2",
			"uri":"cambridge_jubilee_stainless_plastic_knife_color.ktx2"
		}
	],
	"buffers":[
		{
			"uri":"cambridge_jubilee_stainless_plastic_knife.bin",
			"byteLength":1051472
		}
	],
	"materials":[
		{
			"name":"cambridge_jubilee_stainless_plastic_knife_color",
			"doubleSided":true,
			"pbrMetallicRoughness":{
				"baseColorFactor":[
					0.001820709789171815,
					0.025187339633703232,
					0.07818696647882462,
					1
				],
				"metallicRoughnessTexture":{
					"index":1
				}
			},
			"normalTexture":{
				"index":0
			},
			"occlusionTexture":{
				"index":1
			}
		},
		{
			"name":"cambridge_jubilee_stainless_plastic_knife_material",
			"doubleSided":true,
			"pbrMetallicRoughness":{
				"baseColorTexture":{
					"index":2
				},
				"metallicRoughnessTexture":{
					"index":1
				}
			},
			"normalTexture":{
				"index":0
			},
			"occlusionTexture":{
				"index":1
			}
		}
	],
	"meshes":[
		{
			"name":"cambridge_jubilee_stainless_plastic_knife",
			"primitives":[
				{
					"attributes":{
						"POSITION":0,
						"NORMAL":1,
						"TEXCOORD_0":2
					},
					"mode":4,
					"material":0,
					"indices":6
				},
				{
					"attributes":{
						"POSITION":3,
						"NORMAL":4,
						"TEXCOORD_0":5
					},
					"mode":4,
					"material":1,
					"indices":7
				}
			]
		}
	],
	"nodes":[
		{
			"name":"cambridge_jubilee_stainless_plastic_knife",
			"mesh":0
		}
	],
	"scenes":[
		{
			"name":"Scene",
			"nodes":[
				0
			]
		}
	],
	"scene":0,
	"extensionsUsed":[
		"KHR_texture_basisu"
	]
}
