{
	"asset":{
		"generator":"glTF-Transform v3.10.1",
		"version":"2.0"
	},
	"accessors":[
		{
			"type":"VEC3",
			"componentType":5126,
			"count":8841,
			"max":[
				0.13249996304512024,
				0.012750239111483097,
				0.1879003793001175
			],
			"min":[
				-0.13249996304512024,
				-2.3264542292622536e-08,
				-0.1879003793001175
			],
			"bufferView":0,
			"byteOffset":0
		},
		{
			"type":"VEC3",
			"componentType":5126,
			"count":8841,
			"bufferView":0,
			"byteOffset":12
		},
		{
			"type":"VEC2",
			"componentType":5126,
			"count":8841,
			"bufferView":0,
			"byteOffset":24
		},
		{
			"type":"SCALAR",
			"componentType":5123,
			"count":28050,
			"bufferView":1,
			"byteOffset":0
		}
	],
	"bufferViews":[
		{
			"buffer":0,
			"byteOffset":0,
			"byteLength":282912,
			"byteStride":32,
			"target":34962
		},
		{
			"buffer":0,
			"byteOffset":282912,
			"byteLength":56100,
			"target":34963
		}
	],
	"samplers":[
		{
			"magFilter":9729,
			"minFilter":9987,
			"wrapS":10497,
			"wrapT":10497
		}
	],
	"textures":[
		{
			"source":2,
			"sampler":0,
			"extensions":{
				"KHR_texture_basisu":{
					"source":5
				}
			}
		},
		{
			"source":0,
			"sampler":0,
			"extensions":{
				"KHR_texture_basisu":{
					"source":3
				}
			}
		},
		{
			"source":1,
			"sampler":0,
			"extensions":{
				"KHR_texture_basisu":{
					"source":4
				}
			}
		}
	],
	"images":[
		{
			"name":"oxo_plastic_cutting_board_normal",
			"mimeType":"image/png",
			"uri":"oxo_plastic_cutting_board_normal.png"
		},
		{
			"name":"oxo_plastic_cutting_board_occlusion_roughness_metallic",
			"mimeType":"image/png",
			"uri":"oxo_plastic_cutting_board_occlusion_roughness_metallic.png"
		},
		{
			"name":"oxo_plastic_cutting_board_color",
			"mimeType":"image/png",
			"uri":"oxo_plastic_cutting_board_color.png"
		},
		{
			"mimeType":"image/ktx2",
			"uri":"oxo_plastic_cutting_board_normal.ktx2"
		},
		{
			"mimeType":"image/ktx2",
			"uri":"oxo_plastic_cutting_board_occlusion_roughness_metallic.ktx2"
		},
		{
			"mimeType":"image/ktx2",
			"uri":"oxo_plastic_cutting_board_color.ktx2"
		}
	],
	"buffers":[
		{
			"uri":"oxo_plastic_cutting_board.bin",
			"byteLength":339012
		}
	],
	"materials":[
		{
			"name":"oxo_plastic_cutting_board_material",
			"doubleSided":true,
			"pbrMetallicRoughness":{
				"baseColorTexture":{
					"index":0
				},
				"metallicRoughnessTexture":{
					"index":2
				}
			},
			"normalTexture":{
				"index":1
			},
			"occlusionTexture":{
				"index":2
			}
		}
	],
	"meshes":[
		{
			"name":"oxo_plastic_cutting_board",
			"primitives":[
				{
					"attributes":{
						"POSITION":0,
						"NORMAL":1,
						"TEXCOORD_0":2
					},
					"mode":4,
					"material":0,
					"indices":3
				}
			]
		}
	],
	"nodes":[
		{
			"name":"oxo_plastic_cutting_board",
			"mesh":0
		}
	],
	"scenes":[
		{
			"name":"Scene",
			"nodes":[
				0
			]
		}
	],
	"scene":0,
	"extensionsUsed":[
		"KHR_texture_basisu"
	]
}
