{
	"asset":{
		"generator":"Khronos glTF Blender I/O v4.2.69",
		"version":"2.0"
	},
	"scene":0,
	"scenes":[
		{
			"name":"Scene",
			"nodes":[
				0
			]
		}
	],
	"nodes":[
		{
			"mesh":0,
			"name":"fake_ycb_orange"
		}
	],
	"materials":[
		{
			"doubleSided":true,
			"name":"fake_ycb_orange_material.001",
			"normalTexture":{
				"index":0
			},
			"occlusionTexture":{
				"index":1
			},
			"pbrMetallicRoughness":{
				"baseColorTexture":{
					"index":2
				},
				"metallicRoughnessTexture":{
					"index":1
				}
			}
		}
	],
	"meshes":[
		{
			"name":"fake_ycb_orange",
			"primitives":[
				{
					"attributes":{
						"POSITION":0,
						"NORMAL":1,
						"TEXCOORD_0":2
					},
					"indices":3,
					"material":0
				}
			]
		}
	],
	"textures":[
		{
			"sampler":0,
			"source":0,
			"extensions":{
				"KHR_texture_basisu":{
					"source":3
				}
			}
		},
		{
			"sampler":0,
			"source":1,
			"extensions":{
				"KHR_texture_basisu":{
					"source":4
				}
			}
		},
		{
			"sampler":0,
			"source":2,
			"extensions":{
				"KHR_texture_basisu":{
					"source":5
				}
			}
		}
	],
	"images":[
		{
			"mimeType":"image/png",
			"name":"fake_ycb_orange_normal",
			"uri":"fake_ycb_orange_normal.png"
		},
		{
			"mimeType":"image/png",
			"name":"fake_ycb_orange_occlusion_roughness_metallic",
			"uri":"fake_ycb_orange_occlusion_roughness_metallic.png"
		},
		{
			"mimeType":"image/png",
			"name":"fake_ycb_orange_color",
			"uri":"fake_ycb_orange_color.png"
		},
		{
			"mimeType":"image/ktx2",
			"uri":"fake_ycb_orange_normal.ktx2"
		},
		{
			"mimeType":"image/ktx2",
			"uri":"fake_ycb_orange_occlusion_roughness_metallic.ktx2"
		},
		{
			"mimeType":"image/ktx2",
			"uri":"fake_ycb_orange_color.ktx2"
		}
	],
	"accessors":[
		{
			"bufferView":0,
			"componentType":5126,
			"count":774,
			"max":[
				0.036137621849775314,
				0.03389614820480347,
				0.036880698055028915
			],
			"min":[
				-0.035626765340566635,
				-0.03739568591117859,
				-0.03691794350743294
			],
			"type":"VEC3"
		},
		{
			"bufferView":1,
			"componentType":5126,
			"count":774,
			"type":"VEC3"
		},
		{
			"bufferView":2,
			"componentType":5126,
			"count":774,
			"type":"VEC2"
		},
		{
			"bufferView":3,
			"componentType":5123,
			"count":3888,
			"type":"SCALAR"
		}
	],
	"bufferViews":[
		{
			"buffer":0,
			"byteLength":9288,
			"byteOffset":0,
			"target":34962
		},
		{
			"buffer":0,
			"byteLength":9288,
			"byteOffset":9288,
			"target":34962
		},
		{
			"buffer":0,
			"byteLength":6192,
			"byteOffset":18576,
			"target":34962
		},
		{
			"buffer":0,
			"byteLength":7776,
			"byteOffset":24768,
			"target":34963
		}
	],
	"samplers":[
		{
			"magFilter":9729,
			"minFilter":9987
		}
	],
	"buffers":[
		{
			"byteLength":32544,
			"uri":"fake_ycb_orange.bin"
		}
	],
	"extensionsUsed":[
		"KHR_texture_basisu"
	]
}
