{
	"asset":{
		"generator":"Khronos glTF Blender I/O v3.3.27",
		"version":"2.0"
	},
	"scene":0,
	"scenes":[
		{
			"name":"Scene",
			"nodes":[
				0
			]
		}
	],
	"nodes":[
		{
			"mesh":0,
			"name":"red_bell_pepper_no_stem_low"
		}
	],
	"materials":[
		{
			"doubleSided":true,
			"name":"bell_pepper_no_stem_material",
			"normalTexture":{
				"index":0
			},
			"occlusionTexture":{
				"index":1
			},
			"pbrMetallicRoughness":{
				"baseColorTexture":{
					"index":2
				},
				"metallicRoughnessTexture":{
					"index":1
				}
			}
		}
	],
	"meshes":[
		{
			"name":"red_bell_pepper_no_stem_low",
			"primitives":[
				{
					"attributes":{
						"POSITION":0,
						"NORMAL":1,
						"TEXCOORD_0":2
					},
					"indices":3,
					"material":0
				}
			]
		}
	],
	"textures":[
		{
			"sampler":0,
			"source":0,
			"extensions":{
				"KHR_texture_basisu":{
					"source":3
				}
			}
		},
		{
			"sampler":0,
			"source":1,
			"extensions":{
				"KHR_texture_basisu":{
					"source":4
				}
			}
		},
		{
			"sampler":0,
			"source":2,
			"extensions":{
				"KHR_texture_basisu":{
					"source":5
				}
			}
		}
	],
	"images":[
		{
			"mimeType":"image/png",
			"name":"bell_pepper_no_stem_normal",
			"uri":"bell_pepper_no_stem_normal.png"
		},
		{
			"mimeType":"image/png",
			"name":"bell_pepper_no_stem_occlusion_roughness_metallic",
			"uri":"bell_pepper_no_stem_occlusion_roughness_metallic.png"
		},
		{
			"mimeType":"image/png",
			"name":"bell_pepper_no_stem_color",
			"uri":"bell_pepper_no_stem_color.png"
		},
		{
			"mimeType":"image/ktx2",
			"uri":"bell_pepper_no_stem_normal.ktx2"
		},
		{
			"mimeType":"image/ktx2",
			"uri":"bell_pepper_no_stem_occlusion_roughness_metallic.ktx2"
		},
		{
			"mimeType":"image/ktx2",
			"uri":"bell_pepper_no_stem_color.ktx2"
		}
	],
	"accessors":[
		{
			"bufferView":0,
			"componentType":5126,
			"count":633,
			"max":[
				0.03794770687818527,
				0.042701516300439835,
				0.09252839535474777
			],
			"min":[
				-0.038238391280174255,
				-0.04250871762633324,
				1.4897435903549194e-05
			],
			"type":"VEC3"
		},
		{
			"bufferView":1,
			"componentType":5126,
			"count":633,
			"type":"VEC3"
		},
		{
			"bufferView":2,
			"componentType":5126,
			"count":633,
			"type":"VEC2"
		},
		{
			"bufferView":3,
			"componentType":5123,
			"count":2988,
			"type":"SCALAR"
		}
	],
	"bufferViews":[
		{
			"buffer":0,
			"byteLength":7596,
			"byteOffset":0,
			"target":34962
		},
		{
			"buffer":0,
			"byteLength":7596,
			"byteOffset":7596,
			"target":34962
		},
		{
			"buffer":0,
			"byteLength":5064,
			"byteOffset":15192,
			"target":34962
		},
		{
			"buffer":0,
			"byteLength":5976,
			"byteOffset":20256,
			"target":34963
		}
	],
	"samplers":[
		{
			"magFilter":9729,
			"minFilter":9987
		}
	],
	"buffers":[
		{
			"byteLength":26232,
			"uri":"red_bell_pepper_no_stem_low.bin"
		}
	],
	"extensionsUsed":[
		"KHR_texture_basisu"
	]
}
