{
	"asset":{
		"generator":"glTF-Transform v3.10.1",
		"version":"2.0"
	},
	"accessors":[
		{
			"type":"VEC3",
			"componentType":5126,
			"count":7840,
			"max":[
				0.04496195912361145,
				0.006199156865477562,
				0.007464339956641197
			],
			"min":[
				-0.04494565725326538,
				-0.006199156865477562,
				-0.0074639879167079926
			],
			"bufferView":0,
			"byteOffset":0
		},
		{
			"type":"VEC3",
			"componentType":5126,
			"count":7840,
			"bufferView":0,
			"byteOffset":12
		},
		{
			"type":"VEC2",
			"componentType":5126,
			"count":7840,
			"bufferView":0,
			"byteOffset":24
		},
		{
			"type":"VEC3",
			"componentType":5126,
			"count":14655,
			"max":[
				0.044997524470090866,
				0.009990477003157139,
				0.017680492252111435
			],
			"min":[
				-0.12495063990354538,
				-0.0062043373472988605,
				-0.017680492252111435
			],
			"bufferView":1,
			"byteOffset":0
		},
		{
			"type":"VEC3",
			"componentType":5126,
			"count":14655,
			"bufferView":1,
			"byteOffset":12
		},
		{
			"type":"VEC2",
			"componentType":5126,
			"count":14655,
			"bufferView":1,
			"byteOffset":24
		},
		{
			"type":"SCALAR",
			"componentType":5123,
			"count":28692,
			"bufferView":2,
			"byteOffset":0
		},
		{
			"type":"SCALAR",
			"componentType":5123,
			"count":59628,
			"bufferView":2,
			"byteOffset":57384
		}
	],
	"bufferViews":[
		{
			"buffer":0,
			"byteOffset":0,
			"byteLength":250880,
			"byteStride":32,
			"target":34962
		},
		{
			"buffer":0,
			"byteOffset":250880,
			"byteLength":468960,
			"byteStride":32,
			"target":34962
		},
		{
			"buffer":0,
			"byteOffset":719840,
			"byteLength":176640,
			"target":34963
		}
	],
	"samplers":[
		{
			"magFilter":9729,
			"minFilter":9987,
			"wrapS":10497,
			"wrapT":10497
		}
	],
	"textures":[
		{
			"source":0,
			"sampler":0,
			"extensions":{
				"KHR_texture_basisu":{
					"source":3
				}
			}
		},
		{
			"source":1,
			"sampler":0,
			"extensions":{
				"KHR_texture_basisu":{
					"source":4
				}
			}
		},
		{
			"source":2,
			"sampler":0,
			"extensions":{
				"KHR_texture_basisu":{
					"source":5
				}
			}
		}
	],
	"images":[
		{
			"name":"cambridge_jubilee_stainless_plastic_teaspoon_normal",
			"mimeType":"image/png",
			"uri":"cambridge_jubilee_stainless_plastic_teaspoon_normal.png"
		},
		{
			"name":"cambridge_jubilee_stainless_plastic_teaspoon_occlusion_roughness_metallic",
			"mimeType":"image/png",
			"uri":"cambridge_jubilee_stainless_plastic_teaspoon_occlusion_roughness_metallic.png"
		},
		{
			"name":"cambridge_jubilee_stainless_plastic_teaspoon_color",
			"mimeType":"image/png",
			"uri":"cambridge_jubilee_stainless_plastic_teaspoon_color.png"
		},
		{
			"mimeType":"image/ktx2",
			"uri":"cambridge_jubilee_stainless_plastic_teaspoon_normal.ktx2"
		},
		{
			"mimeType":"image/ktx2",
			"uri":"cambridge_jubilee_stainless_plastic_teaspoon_occlusion_roughness_metallic.ktx2"
		},
		{
			"mimeType":"image/ktx2",
			"uri":"cambridge_jubilee_stainless_plastic_teaspoon_color.ktx2"
		}
	],
	"buffers":[
		{
			"uri":"cambridge_jubilee_stainless_plastic_teaspoon.bin",
			"byteLength":896480
		}
	],
	"materials":[
		{
			"name":"cambridge_jubilee_plastic_teaspoon_color",
			"doubleSided":true,
			"pbrMetallicRoughness":{
				"baseColorFactor":[
					0.40,
					0.0,
					0.0,
					1
				],
				"metallicRoughnessTexture":{
					"index":1
				}
			},
			"normalTexture":{
				"index":0
			},
			"occlusionTexture":{
				"index":1
			}
		},
		{
			"name":"cambridge_jubilee_plastic_teaspoon_material",
			"doubleSided":true,
			"pbrMetallicRoughness":{
				"baseColorTexture":{
					"index":2
				},
				"metallicRoughnessTexture":{
					"index":1
				}
			},
			"normalTexture":{
				"index":0
			},
			"occlusionTexture":{
				"index":1
			}
		}
	],
	"meshes":[
		{
			"name":"cambridge_jubilee_plastic_teaspoon",
			"primitives":[
				{
					"attributes":{
						"POSITION":0,
						"NORMAL":1,
						"TEXCOORD_0":2
					},
					"mode":4,
					"material":0,
					"indices":6
				},
				{
					"attributes":{
						"POSITION":3,
						"NORMAL":4,
						"TEXCOORD_0":5
					},
					"mode":4,
					"material":1,
					"indices":7
				}
			]
		}
	],
	"nodes":[
		{
			"name":"cambridge_jubilee_stainless_plastic_teaspoon",
			"mesh":0
		}
	],
	"scenes":[
		{
			"name":"Scene",
			"nodes":[
				0
			]
		}
	],
	"scene":0,
	"extensionsUsed":[
		"KHR_texture_basisu"
	]
}
