{
	"asset":{
		"generator":"Khronos glTF Blender I/O v4.3.47",
		"version":"2.0"
	},
	"scene":0,
	"scenes":[
		{
			"name":"Scene",
			"nodes":[
				0
			]
		}
	],
	"nodes":[
		{
			"mesh":0,
			"name":"spoon_oxo_wood_high"
		}
	],
	"materials":[
		{
			"doubleSided":true,
			"name":"spoon_oxo_wood_material",
			"normalTexture":{
				"index":0
			},
			"occlusionTexture":{
				"index":1
			},
			"pbrMetallicRoughness":{
				"baseColorTexture":{
					"index":2
				},
				"metallicRoughnessTexture":{
					"index":1
				}
			}
		}
	],
	"meshes":[
		{
			"name":"spoon_oxo_steel_issue8814_high",
			"primitives":[
				{
					"attributes":{
						"POSITION":0,
						"NORMAL":1,
						"TEXCOORD_0":2
					},
					"indices":3,
					"material":0
				}
			]
		}
	],
	"textures":[
		{
			"sampler":0,
			"source":0,
			"extensions":{
				"KHR_texture_basisu":{
					"source":3
				}
			}
		},
		{
			"sampler":0,
			"source":1,
			"extensions":{
				"KHR_texture_basisu":{
					"source":4
				}
			}
		},
		{
			"sampler":0,
			"source":2,
			"extensions":{
				"KHR_texture_basisu":{
					"source":5
				}
			}
		}
	],
	"images":[
		{
			"mimeType":"image/png",
			"name":"spoon_oxo_wood_normal",
			"uri":"spoon_oxo_wood_normal.png"
		},
		{
			"mimeType":"image/png",
			"name":"spoon_oxo_wood_occlusion_roughness_metallic",
			"uri":"spoon_oxo_wood_occlusion_roughness_metallic.png"
		},
		{
			"mimeType":"image/png",
			"name":"spoon_oxo_wood_color",
			"uri":"spoon_oxo_wood_color.png"
		},
		{
			"mimeType":"image/ktx2",
			"uri":"spoon_oxo_wood_normal.ktx2"
		},
		{
			"mimeType":"image/ktx2",
			"uri":"spoon_oxo_wood_occlusion_roughness_metallic.ktx2"
		},
		{
			"mimeType":"image/ktx2",
			"uri":"spoon_oxo_wood_color.ktx2"
		}
	],
	"accessors":[
		{
			"bufferView":0,
			"componentType":5126,
			"count":31216,
			"max":[
				2.384185791015625e-07,
				0.049187321215867996,
				0.02950005978345871
			],
			"min":[
				-0.27491295337677,
				-0.012874992564320564,
				-0.02949994057416916
			],
			"type":"VEC3"
		},
		{
			"bufferView":1,
			"componentType":5126,
			"count":31216,
			"type":"VEC3"
		},
		{
			"bufferView":2,
			"componentType":5126,
			"count":31216,
			"type":"VEC2"
		},
		{
			"bufferView":3,
			"componentType":5123,
			"count":135768,
			"type":"SCALAR"
		}
	],
	"bufferViews":[
		{
			"buffer":0,
			"byteLength":374592,
			"byteOffset":0,
			"target":34962
		},
		{
			"buffer":0,
			"byteLength":374592,
			"byteOffset":374592,
			"target":34962
		},
		{
			"buffer":0,
			"byteLength":249728,
			"byteOffset":749184,
			"target":34962
		},
		{
			"buffer":0,
			"byteLength":271536,
			"byteOffset":998912,
			"target":34963
		}
	],
	"samplers":[
		{
			"magFilter":9729,
			"minFilter":9987
		}
	],
	"buffers":[
		{
			"byteLength":1270448,
			"uri":"spoon_oxo_steel.bin"
		}
	],
	"extensionsUsed":[
		"KHR_texture_basisu"
	]
}
