{
	"asset":{
		"generator":"Khronos glTF Blender I/O v4.2.69",
		"version":"2.0"
	},
	"scene":0,
	"scenes":[
		{
			"name":"Scene",
			"nodes":[
				0
			]
		}
	],
	"nodes":[
		{
			"mesh":0,
			"name":"finray_finger_MA-049-PT-0005_MA-049-PT-0006_2024_07_23_L"
		}
	],
	"materials":[
		{
			"doubleSided":true,
			"name":"finray_finger_MA-049-PT-0005_MA-049-PT-0006_2024_07_23_material",
			"normalTexture":{
				"index":0
			},
			"occlusionTexture":{
				"index":1
			},
			"pbrMetallicRoughness":{
				"baseColorTexture":{
					"index":2
				},
				"metallicRoughnessTexture":{
					"index":1
				}
			}
		}
	],
	"meshes":[
		{
			"name":"finray_finger_MA-049-PT-0005_MA-049-PT-0006_2024_07_23_L",
			"primitives":[
				{
					"attributes":{
						"POSITION":0,
						"NORMAL":1,
						"TEXCOORD_0":2
					},
					"indices":3,
					"material":0
				}
			]
		}
	],
	"textures":[
		{
			"sampler":0,
			"source":0,
			"extensions":{
				"KHR_texture_basisu":{
					"source":3
				}
			}
		},
		{
			"sampler":0,
			"source":1,
			"extensions":{
				"KHR_texture_basisu":{
					"source":4
				}
			}
		},
		{
			"sampler":0,
			"source":2,
			"extensions":{
				"KHR_texture_basisu":{
					"source":5
				}
			}
		}
	],
	"images":[
		{
			"mimeType":"image/png",
			"name":"finray_finger_MA-049-PT-0005_MA-049-PT-0006_2024_07_23_normal",
			"uri":"finray_finger_MA-049-PT-0005_MA-049-PT-0006_2024_07_23_normal.png"
		},
		{
			"mimeType":"image/png",
			"name":"finray_finger_MA-049-PT-0005_MA-049-PT-0006_2024_07_23_occlusion_roughness_metallic",
			"uri":"finray_finger_MA-049-PT-0005_MA-049-PT-0006_2024_07_23_occlusion_roughness_metallic.png"
		},
		{
			"mimeType":"image/png",
			"name":"finray_finger_MA-049-PT-0005_MA-049-PT-0006_2024_07_23_color",
			"uri":"finray_finger_MA-049-PT-0005_MA-049-PT-0006_2024_07_23_color.png"
		},
		{
			"mimeType":"image/ktx2",
			"uri":"finray_finger_MA-049-PT-0005_MA-049-PT-0006_2024_07_23_normal.ktx2"
		},
		{
			"mimeType":"image/ktx2",
			"uri":"finray_finger_MA-049-PT-0005_MA-049-PT-0006_2024_07_23_occlusion_roughness_metallic.ktx2"
		},
		{
			"mimeType":"image/ktx2",
			"uri":"finray_finger_MA-049-PT-0005_MA-049-PT-0006_2024_07_23_color.ktx2"
		}
	],
	"accessors":[
		{
			"bufferView":0,
			"componentType":5126,
			"count":8326,
			"max":[
				0.010633433237671852,
				0.11666612327098846,
				0.02553716115653515
			],
			"min":[
				-0.032991763204336166,
				-0.013051037676632404,
				-0.025551646947860718
			],
			"type":"VEC3"
		},
		{
			"bufferView":1,
			"componentType":5126,
			"count":8326,
			"type":"VEC3"
		},
		{
			"bufferView":2,
			"componentType":5126,
			"count":8326,
			"type":"VEC2"
		},
		{
			"bufferView":3,
			"componentType":5123,
			"count":24528,
			"type":"SCALAR"
		}
	],
	"bufferViews":[
		{
			"buffer":0,
			"byteLength":99912,
			"byteOffset":0,
			"target":34962
		},
		{
			"buffer":0,
			"byteLength":99912,
			"byteOffset":99912,
			"target":34962
		},
		{
			"buffer":0,
			"byteLength":66608,
			"byteOffset":199824,
			"target":34962
		},
		{
			"buffer":0,
			"byteLength":49056,
			"byteOffset":266432,
			"target":34963
		}
	],
	"samplers":[
		{
			"magFilter":9729,
			"minFilter":9987
		}
	],
	"buffers":[
		{
			"byteLength":315488,
			"uri":"finray_finger_MA-049-PT-0005_MA-049-PT-0006_2024_07_23_L.bin"
		}
	],
	"extensionsUsed":[
		"KHR_texture_basisu"
	]
}
