{
	"asset":{
		"generator":"Khronos glTF Blender I/O v4.3.47",
		"version":"2.0"
	},
	"scene":0,
	"scenes":[
		{
			"name":"Scene",
			"nodes":[
				0
			]
		}
	],
	"nodes":[
		{
			"mesh":0,
			"name":"flir_blackfly_camera_marshall_28_lens_franka_mount"
		}
	],
	"materials":[
		{
			"name":"flir_blackfly_camera_marshall_28_lens_franka_mount_material",
			"normalTexture":{
				"index":0
			},
			"occlusionTexture":{
				"index":1
			},
			"pbrMetallicRoughness":{
				"baseColorTexture":{
					"index":2
				},
				"metallicRoughnessTexture":{
					"index":1
				}
			}
		}
	],
	"meshes":[
		{
			"name":"flir_blackfly_camera_marshall_28_lens_franka_mount",
			"primitives":[
				{
					"attributes":{
						"POSITION":0,
						"NORMAL":1,
						"TEXCOORD_0":2
					},
					"indices":3,
					"material":0
				}
			]
		}
	],
	"textures":[
		{
			"sampler":0,
			"source":0,
			"extensions":{
				"KHR_texture_basisu":{
					"source":3
				}
			}
		},
		{
			"sampler":0,
			"source":1,
			"extensions":{
				"KHR_texture_basisu":{
					"source":4
				}
			}
		},
		{
			"sampler":0,
			"source":2,
			"extensions":{
				"KHR_texture_basisu":{
					"source":5
				}
			}
		}
	],
	"images":[
		{
			"mimeType":"image/png",
			"name":"flir_blackfly_camera_marshall_28_lens_franka_mount_normal",
			"uri":"flir_blackfly_camera_marshall_28_lens_franka_mount_normal.png"
		},
		{
			"mimeType":"image/png",
			"name":"flir_blackfly_camera_marshall_28_lens_franka_mount_occlusion_roughness_metallic",
			"uri":"flir_blackfly_camera_marshall_28_lens_franka_mount_occlusion_roughness_metallic.png"
		},
		{
			"mimeType":"image/png",
			"name":"flir_blackfly_camera_marshall_28_lens_franka_mount_color",
			"uri":"flir_blackfly_camera_marshall_28_lens_franka_mount_color.png"
		},
		{
			"mimeType":"image/ktx2",
			"uri":"flir_blackfly_camera_marshall_28_lens_franka_mount_normal.ktx2"
		},
		{
			"mimeType":"image/ktx2",
			"uri":"flir_blackfly_camera_marshall_28_lens_franka_mount_occlusion_roughness_metallic.ktx2"
		},
		{
			"mimeType":"image/ktx2",
			"uri":"flir_blackfly_camera_marshall_28_lens_franka_mount_color.ktx2"
		}
	],
	"accessors":[
		{
			"bufferView":0,
			"componentType":5126,
			"count":12318,
			"max":[
				0.027500057592988014,
				0.04670002683997154,
				0.041549813002347946
			],
			"min":[
				-0.027500061318278313,
				-7.649032518486365e-09,
				-0.05326859652996063
			],
			"type":"VEC3"
		},
		{
			"bufferView":1,
			"componentType":5126,
			"count":12318,
			"type":"VEC3"
		},
		{
			"bufferView":2,
			"componentType":5126,
			"count":12318,
			"type":"VEC2"
		},
		{
			"bufferView":3,
			"componentType":5123,
			"count":45600,
			"type":"SCALAR"
		}
	],
	"bufferViews":[
		{
			"buffer":0,
			"byteLength":147816,
			"byteOffset":0,
			"target":34962
		},
		{
			"buffer":0,
			"byteLength":147816,
			"byteOffset":147816,
			"target":34962
		},
		{
			"buffer":0,
			"byteLength":98544,
			"byteOffset":295632,
			"target":34962
		},
		{
			"buffer":0,
			"byteLength":91200,
			"byteOffset":394176,
			"target":34963
		}
	],
	"samplers":[
		{
			"magFilter":9729,
			"minFilter":9987
		}
	],
	"buffers":[
		{
			"byteLength":485376,
			"uri":"flir_blackfly_camera_marshall_28_lens_franka_mount.bin"
		}
	],
	"extensionsUsed":[
		"KHR_texture_basisu"
	]
}
