{
	"asset":{
		"generator":"Khronos glTF Blender I/O v4.2.69",
		"version":"2.0"
	},
	"scene":0,
	"scenes":[
		{
			"name":"Scene",
			"nodes":[
				0
			]
		}
	],
	"nodes":[
		{
			"mesh":0,
			"name":"schunk_franka_adapter"
		}
	],
	"materials":[
		{
			"doubleSided":true,
			"name":"schunk_franka_adapter_material",
			"normalTexture":{
				"index":0
			},
			"occlusionTexture":{
				"index":1
			},
			"pbrMetallicRoughness":{
				"baseColorTexture":{
					"index":2
				},
				"metallicRoughnessTexture":{
					"index":1
				}
			}
		}
	],
	"meshes":[
		{
			"name":"schunk_franka_adapter",
			"primitives":[
				{
					"attributes":{
						"POSITION":0,
						"NORMAL":1,
						"TEXCOORD_0":2
					},
					"indices":3,
					"material":0
				}
			]
		}
	],
	"textures":[
		{
			"sampler":0,
			"source":0,
			"extensions":{
				"KHR_texture_basisu":{
					"source":3
				}
			}
		},
		{
			"sampler":0,
			"source":1,
			"extensions":{
				"KHR_texture_basisu":{
					"source":4
				}
			}
		},
		{
			"sampler":0,
			"source":2,
			"extensions":{
				"KHR_texture_basisu":{
					"source":5
				}
			}
		}
	],
	"images":[
		{
			"mimeType":"image/png",
			"name":"schunk_franka_adapter_normal",
			"uri":"schunk_franka_adapter_normal.png"
		},
		{
			"mimeType":"image/png",
			"name":"schunk_franka_adapter_occlusion_roughness_metallic",
			"uri":"schunk_franka_adapter_occlusion_roughness_metallic.png"
		},
		{
			"mimeType":"image/png",
			"name":"schunk_franka_adapter_color",
			"uri":"schunk_franka_adapter_color.png"
		},
		{
			"mimeType":"image/ktx2",
			"uri":"schunk_franka_adapter_normal.ktx2"
		},
		{
			"mimeType":"image/ktx2",
			"uri":"schunk_franka_adapter_occlusion_roughness_metallic.ktx2"
		},
		{
			"mimeType":"image/ktx2",
			"uri":"schunk_franka_adapter_color.ktx2"
		}
	],
	"accessors":[
		{
			"bufferView":0,
			"componentType":5126,
			"count":2240,
			"max":[
				0.03249996155500412,
				0.032500009983778,
				6.47497202521663e-08
			],
			"min":[
				-0.03249996155500412,
				-0.032500009983778,
				-0.015699954703450203
			],
			"type":"VEC3"
		},
		{
			"bufferView":1,
			"componentType":5126,
			"count":2240,
			"type":"VEC3"
		},
		{
			"bufferView":2,
			"componentType":5126,
			"count":2240,
			"type":"VEC2"
		},
		{
			"bufferView":3,
			"componentType":5123,
			"count":6300,
			"type":"SCALAR"
		}
	],
	"bufferViews":[
		{
			"buffer":0,
			"byteLength":26880,
			"byteOffset":0,
			"target":34962
		},
		{
			"buffer":0,
			"byteLength":26880,
			"byteOffset":26880,
			"target":34962
		},
		{
			"buffer":0,
			"byteLength":17920,
			"byteOffset":53760,
			"target":34962
		},
		{
			"buffer":0,
			"byteLength":12600,
			"byteOffset":71680,
			"target":34963
		}
	],
	"samplers":[
		{
			"magFilter":9729,
			"minFilter":9987
		}
	],
	"buffers":[
		{
			"byteLength":84280,
			"uri":"schunk_franka_adapter.bin"
		}
	],
	"extensionsUsed":[
		"KHR_texture_basisu"
	]
}
