{
	"asset":{
		"generator":"Khronos glTF Blender I/O v4.2.69",
		"version":"2.0"
	},
	"scene":0,
	"scenes":[
		{
			"name":"Scene",
			"nodes":[
				0
			]
		}
	],
	"nodes":[
		{
			"mesh":0,
			"name":"schunk_wsg50_base"
		}
	],
	"materials":[
		{
			"doubleSided":true,
			"name":"schunk_wsg50_base_material",
			"normalTexture":{
				"index":0
			},
			"pbrMetallicRoughness":{
				"baseColorTexture":{
					"index":1
				},
				"metallicRoughnessTexture":{
					"index":2
				}
			}
		}
	],
	"meshes":[
		{
			"name":"schunk_wsg50_base",
			"primitives":[
				{
					"attributes":{
						"POSITION":0,
						"NORMAL":1,
						"TEXCOORD_0":2
					},
					"indices":3,
					"material":0
				}
			]
		}
	],
	"textures":[
		{
			"sampler":0,
			"source":0,
			"extensions":{
				"KHR_texture_basisu":{
					"source":3
				}
			}
		},
		{
			"sampler":0,
			"source":1,
			"extensions":{
				"KHR_texture_basisu":{
					"source":4
				}
			}
		},
		{
			"sampler":0,
			"source":2,
			"extensions":{
				"KHR_texture_basisu":{
					"source":5
				}
			}
		}
	],
	"images":[
		{
			"mimeType":"image/png",
			"name":"schunk_wsg50_base_normal",
			"uri":"schunk_wsg50_base_normal.png"
		},
		{
			"mimeType":"image/png",
			"name":"schunk_wsg50_base_color",
			"uri":"schunk_wsg50_base_color.png"
		},
		{
			"mimeType":"image/png",
			"name":"schunk_wsg50_base_occlusion_roughness_metallic",
			"uri":"schunk_wsg50_base_occlusion_roughness_metallic.png"
		},
		{
			"mimeType":"image/ktx2",
			"uri":"schunk_wsg50_base_normal.ktx2"
		},
		{
			"mimeType":"image/ktx2",
			"uri":"schunk_wsg50_base_color.ktx2"
		},
		{
			"mimeType":"image/ktx2",
			"uri":"schunk_wsg50_base_occlusion_roughness_metallic.ktx2"
		}
	],
	"accessors":[
		{
			"bufferView":0,
			"componentType":5126,
			"count":361,
			"max":[
				0.0729999989271164,
				0.02500000037252903,
				0.036249998956918716
			],
			"min":[
				-0.0729999989271164,
				-0.02500000037252903,
				-0.036249998956918716
			],
			"type":"VEC3"
		},
		{
			"bufferView":1,
			"componentType":5126,
			"count":361,
			"type":"VEC3"
		},
		{
			"bufferView":2,
			"componentType":5126,
			"count":361,
			"type":"VEC2"
		},
		{
			"bufferView":3,
			"componentType":5123,
			"count":798,
			"type":"SCALAR"
		}
	],
	"bufferViews":[
		{
			"buffer":0,
			"byteLength":4332,
			"byteOffset":0,
			"target":34962
		},
		{
			"buffer":0,
			"byteLength":4332,
			"byteOffset":4332,
			"target":34962
		},
		{
			"buffer":0,
			"byteLength":2888,
			"byteOffset":8664,
			"target":34962
		},
		{
			"buffer":0,
			"byteLength":1596,
			"byteOffset":11552,
			"target":34963
		}
	],
	"samplers":[
		{
			"magFilter":9729,
			"minFilter":9987
		}
	],
	"buffers":[
		{
			"byteLength":13148,
			"uri":"schunk_wsg50_base.bin"
		}
	],
	"extensionsUsed":[
		"KHR_texture_basisu"
	]
}
