{
	"asset":{
		"generator":"Khronos glTF Blender I/O v4.3.47",
		"version":"2.0"
	},
	"scene":0,
	"scenes":[
		{
			"name":"Scene",
			"nodes":[
				0
			]
		}
	],
	"nodes":[
		{
			"mesh":0,
			"name":"evo_bowl_blue"
		}
	],
	"materials":[
		{
			"doubleSided":true,
			"name":"evo_bowl_blue_material",
			"normalTexture":{
				"index":0
			},
			"pbrMetallicRoughness":{
				"baseColorTexture":{
					"index":1
				},
				"metallicRoughnessTexture":{
					"index":2
				}
			}
		}
	],
	"meshes":[
		{
			"name":"evo_bowl_blue",
			"primitives":[
				{
					"attributes":{
						"POSITION":0,
						"NORMAL":1,
						"TEXCOORD_0":2
					},
					"indices":3,
					"material":0
				}
			]
		}
	],
	"textures":[
		{
			"sampler":0,
			"source":0,
			"extensions":{
				"KHR_texture_basisu":{
					"source":3
				}
			}
		},
		{
			"sampler":0,
			"source":1,
			"extensions":{
				"KHR_texture_basisu":{
					"source":4
				}
			}
		},
		{
			"sampler":0,
			"source":2,
			"extensions":{
				"KHR_texture_basisu":{
					"source":5
				}
			}
		}
	],
	"images":[
		{
			"mimeType":"image/png",
			"name":"evo_bowl_blue_normal",
			"uri":"evo_bowl_blue_normal.png"
		},
		{
			"mimeType":"image/png",
			"name":"evo_bowl_blue_color",
			"uri":"evo_bowl_blue_color.png"
		},
		{
			"mimeType":"image/png",
			"name":"evo_bowl_blue_occlusion_roughness_metallic",
			"uri":"evo_bowl_blue_occlusion_roughness_metallic.png"
		},
		{
			"mimeType":"image/ktx2",
			"uri":"evo_bowl_blue_normal.ktx2"
		},
		{
			"mimeType":"image/ktx2",
			"uri":"evo_bowl_blue_color.ktx2"
		},
		{
			"mimeType":"image/ktx2",
			"uri":"evo_bowl_blue_occlusion_roughness_metallic.ktx2"
		}
	],
	"accessors":[
		{
			"bufferView":0,
			"componentType":5126,
			"count":4603,
			"max":[
				0.07342399656772614,
				0.030629999935626984,
				0.07342399656772614
			],
			"min":[
				-0.07342399656772614,
				-0.030629999935626984,
				-0.07342399656772614
			],
			"type":"VEC3"
		},
		{
			"bufferView":1,
			"componentType":5126,
			"count":4603,
			"type":"VEC3"
		},
		{
			"bufferView":2,
			"componentType":5126,
			"count":4603,
			"type":"VEC2"
		},
		{
			"bufferView":3,
			"componentType":5123,
			"count":26400,
			"type":"SCALAR"
		}
	],
	"bufferViews":[
		{
			"buffer":0,
			"byteLength":55236,
			"byteOffset":0,
			"target":34962
		},
		{
			"buffer":0,
			"byteLength":55236,
			"byteOffset":55236,
			"target":34962
		},
		{
			"buffer":0,
			"byteLength":36824,
			"byteOffset":110472,
			"target":34962
		},
		{
			"buffer":0,
			"byteLength":52800,
			"byteOffset":147296,
			"target":34963
		}
	],
	"samplers":[
		{
			"magFilter":9729,
			"minFilter":9987
		}
	],
	"buffers":[
		{
			"byteLength":200096,
			"uri":"evo_bowl.bin"
		}
	],
	"extensionsUsed":[
		"KHR_texture_basisu"
	]
}
