{
	"asset":{
		"generator":"Khronos glTF Blender I/O v4.1.63",
		"version":"2.0"
	},
	"scene":0,
	"scenes":[
		{
			"name":"Scene",
			"nodes":[
				0
			]
		}
	],
	"nodes":[
		{
			"mesh":0,
			"name":"generic_fruit_bowl"
		}
	],
	"materials":[
		{
			"doubleSided":true,
			"name":"generic_fruit_bowl_material",
			"normalTexture":{
				"index":0
			},
			"occlusionTexture":{
				"index":1
			},
			"pbrMetallicRoughness":{
				"baseColorTexture":{
					"index":2
				},
				"metallicRoughnessTexture":{
					"index":1
				}
			}
		}
	],
	"meshes":[
		{
			"name":"generic_fruit_bowl",
			"primitives":[
				{
					"attributes":{
						"POSITION":0,
						"NORMAL":1,
						"TEXCOORD_0":2
					},
					"indices":3,
					"material":0
				}
			]
		}
	],
	"textures":[
		{
			"sampler":0,
			"source":0,
			"extensions":{
				"KHR_texture_basisu":{
					"source":3
				}
			}
		},
		{
			"sampler":0,
			"source":1,
			"extensions":{
				"KHR_texture_basisu":{
					"source":4
				}
			}
		},
		{
			"sampler":0,
			"source":2,
			"extensions":{
				"KHR_texture_basisu":{
					"source":5
				}
			}
		}
	],
	"images":[
		{
			"mimeType":"image/png",
			"name":"generic_fruit_bowl_normal",
			"uri":"generic_fruit_bowl_normal.png"
		},
		{
			"mimeType":"image/png",
			"name":"generic_fruit_bowl_occlusion_roughness_metallic",
			"uri":"generic_fruit_bowl_occlusion_roughness_metallic.png"
		},
		{
			"mimeType":"image/png",
			"name":"generic_fruit_bowl_color",
			"uri":"generic_fruit_bowl_color.png"
		},
		{
			"mimeType":"image/ktx2",
			"uri":"generic_fruit_bowl_normal.ktx2"
		},
		{
			"mimeType":"image/ktx2",
			"uri":"generic_fruit_bowl_occlusion_roughness_metallic.ktx2"
		},
		{
			"mimeType":"image/ktx2",
			"uri":"generic_fruit_bowl_color.ktx2"
		}
	],
	"accessors":[
		{
			"bufferView":0,
			"componentType":5126,
			"count":2539,
			"max":[
				0.10000000149011612,
				0.09150000661611557,
				0.09980267286300659
			],
			"min":[
				-0.10000000149011612,
				0,
				-0.09980267286300659
			],
			"type":"VEC3"
		},
		{
			"bufferView":1,
			"componentType":5126,
			"count":2539,
			"type":"VEC3"
		},
		{
			"bufferView":2,
			"componentType":5126,
			"count":2539,
			"type":"VEC2"
		},
		{
			"bufferView":3,
			"componentType":5123,
			"count":14100,
			"type":"SCALAR"
		}
	],
	"bufferViews":[
		{
			"buffer":0,
			"byteLength":30468,
			"byteOffset":0,
			"target":34962
		},
		{
			"buffer":0,
			"byteLength":30468,
			"byteOffset":30468,
			"target":34962
		},
		{
			"buffer":0,
			"byteLength":20312,
			"byteOffset":60936,
			"target":34962
		},
		{
			"buffer":0,
			"byteLength":28200,
			"byteOffset":81248,
			"target":34963
		}
	],
	"samplers":[
		{
			"magFilter":9729,
			"minFilter":9987
		}
	],
	"buffers":[
		{
			"byteLength":109448,
			"uri":"generic_fruit_bowl.bin"
		}
	],
	"extensionsUsed":[
		"KHR_texture_basisu"
	]
}
