{
	"asset":{
		"generator":"Khronos glTF Blender I/O v1.6.16",
		"version":"2.0"
	},
	"scene":0,
	"scenes":[
		{
			"name":"Scene",
			"nodes":[
				0
			]
		}
	],
	"nodes":[
		{
			"mesh":0,
			"name":"container_amuse_white_issue7265_body_low"
		}
	],
	"materials":[
		{
			"doubleSided":true,
			"name":"container_amuse_white_issue7265_body_material",
			"normalTexture":{
				"index":0
			},
			"occlusionTexture":{
				"index":1
			},
			"pbrMetallicRoughness":{
				"baseColorTexture":{
					"index":2
				},
				"metallicRoughnessTexture":{
					"index":1
				}
			}
		}
	],
	"meshes":[
		{
			"name":"container_amuse_white_issue7265_body_low",
			"primitives":[
				{
					"attributes":{
						"POSITION":0,
						"NORMAL":1,
						"TEXCOORD_0":2
					},
					"indices":3,
					"material":0
				}
			]
		}
	],
	"textures":[
		{
			"sampler":0,
			"source":0,
			"extensions":{
				"KHR_texture_basisu":{
					"source":3
				}
			}
		},
		{
			"sampler":0,
			"source":1,
			"extensions":{
				"KHR_texture_basisu":{
					"source":4
				}
			}
		},
		{
			"sampler":0,
			"source":2,
			"extensions":{
				"KHR_texture_basisu":{
					"source":5
				}
			}
		}
	],
	"images":[
		{
			"mimeType":"image/png",
			"name":"container_amuse_white_issue7265_body_normal",
			"uri":"container_amuse_white_issue7265_body_normal.png"
		},
		{
			"mimeType":"image/png",
			"name":"container_amuse_white_issue7265_body_occlusion_roughness_metallic",
			"uri":"container_amuse_white_issue7265_body_occlusion_roughness_metallic.png"
		},
		{
			"mimeType":"image/png",
			"name":"container_amuse_white_issue7265_body_color",
			"uri":"container_amuse_white_issue7265_body_color.png"
		},
		{
			"mimeType":"image/ktx2",
			"uri":"container_amuse_white_issue7265_body_normal.ktx2"
		},
		{
			"mimeType":"image/ktx2",
			"uri":"container_amuse_white_issue7265_body_occlusion_roughness_metallic.ktx2"
		},
		{
			"mimeType":"image/ktx2",
			"uri":"container_amuse_white_issue7265_body_color.ktx2"
		}
	],
	"accessors":[
		{
			"bufferView":0,
			"componentType":5126,
			"count":1518,
			"max":[
				0.12349963188171387,
				0.0814996212720871,
				0.042500000447034836
			],
			"min":[
				-0.12349963188171387,
				-0.0814996212720871,
				-0.042500000447034836
			],
			"type":"VEC3"
		},
		{
			"bufferView":1,
			"componentType":5126,
			"count":1518,
			"type":"VEC3"
		},
		{
			"bufferView":2,
			"componentType":5126,
			"count":1518,
			"type":"VEC2"
		},
		{
			"bufferView":3,
			"componentType":5123,
			"count":5712,
			"type":"SCALAR"
		}
	],
	"bufferViews":[
		{
			"buffer":0,
			"byteLength":18216,
			"byteOffset":0
		},
		{
			"buffer":0,
			"byteLength":18216,
			"byteOffset":18216
		},
		{
			"buffer":0,
			"byteLength":12144,
			"byteOffset":36432
		},
		{
			"buffer":0,
			"byteLength":11424,
			"byteOffset":48576
		}
	],
	"samplers":[
		{
			"magFilter":9729,
			"minFilter":9987
		}
	],
	"buffers":[
		{
			"byteLength":60000,
			"uri":"container_amuse_white_issue7265_body_low.bin"
		}
	],
	"extensionsUsed":[
		"KHR_texture_basisu"
	]
}
