{
	"asset":{
		"generator":"Khronos glTF Blender I/O v4.1.63",
		"version":"2.0"
	},
	"scene":0,
	"scenes":[
		{
			"name":"Scene",
			"nodes":[
				0
			]
		}
	],
	"nodes":[
		{
			"mesh":0,
			"name":"bose_pear"
		}
	],
	"materials":[
		{
			"doubleSided":true,
			"name":"bose_pear_material",
			"normalTexture":{
				"index":0
			},
			"occlusionTexture":{
				"index":1
			},
			"pbrMetallicRoughness":{
				"baseColorTexture":{
					"index":2
				},
				"metallicRoughnessTexture":{
					"index":1
				}
			}
		}
	],
	"meshes":[
		{
			"name":"bose_pear",
			"primitives":[
				{
					"attributes":{
						"POSITION":0,
						"NORMAL":1,
						"TEXCOORD_0":2
					},
					"indices":3,
					"material":0
				}
			]
		}
	],
	"textures":[
		{
			"sampler":0,
			"source":0,
			"extensions":{
				"KHR_texture_basisu":{
					"source":3
				}
			}
		},
		{
			"sampler":0,
			"source":1,
			"extensions":{
				"KHR_texture_basisu":{
					"source":4
				}
			}
		},
		{
			"sampler":0,
			"source":2,
			"extensions":{
				"KHR_texture_basisu":{
					"source":5
				}
			}
		}
	],
	"images":[
		{
			"mimeType":"image/png",
			"name":"bose_pear_normal",
			"uri":"bose_pear_normal.png"
		},
		{
			"mimeType":"image/png",
			"name":"bose_pear_occlusion_roughness_metallic",
			"uri":"bose_pear_occlusion_roughness_metallic.png"
		},
		{
			"mimeType":"image/png",
			"name":"bose_pear_color",
			"uri":"bose_pear_color.png"
		},
		{
			"mimeType":"image/ktx2",
			"uri":"bose_pear_normal.ktx2"
		},
		{
			"mimeType":"image/ktx2",
			"uri":"bose_pear_occlusion_roughness_metallic.ktx2"
		},
		{
			"mimeType":"image/ktx2",
			"uri":"bose_pear_color.ktx2"
		}
	],
	"accessors":[
		{
			"bufferView":0,
			"componentType":5126,
			"count":1501,
			"max":[
				0.0364421010017395,
				0.07149133086204529,
				0.03389311954379082
			],
			"min":[
				-0.038260746747255325,
				-0.0428948700428009,
				-0.03428277745842934
			],
			"type":"VEC3"
		},
		{
			"bufferView":1,
			"componentType":5126,
			"count":1501,
			"type":"VEC3"
		},
		{
			"bufferView":2,
			"componentType":5126,
			"count":1501,
			"type":"VEC2"
		},
		{
			"bufferView":3,
			"componentType":5123,
			"count":8340,
			"type":"SCALAR"
		}
	],
	"bufferViews":[
		{
			"buffer":0,
			"byteLength":18012,
			"byteOffset":0,
			"target":34962
		},
		{
			"buffer":0,
			"byteLength":18012,
			"byteOffset":18012,
			"target":34962
		},
		{
			"buffer":0,
			"byteLength":12008,
			"byteOffset":36024,
			"target":34962
		},
		{
			"buffer":0,
			"byteLength":16680,
			"byteOffset":48032,
			"target":34963
		}
	],
	"samplers":[
		{
			"magFilter":9729,
			"minFilter":9987
		}
	],
	"buffers":[
		{
			"byteLength":64712,
			"uri":"bose_pear.bin"
		}
	],
	"extensionsUsed":[
		"KHR_texture_basisu"
	]
}
