{
	"asset":{
		"generator":"Khronos glTF Blender I/O v4.1.63",
		"version":"2.0"
	},
	"scene":0,
	"scenes":[
		{
			"name":"Scene",
			"nodes":[
				0
			]
		}
	],
	"nodes":[
		{
			"mesh":0,
			"name":"starkrimson_pear"
		}
	],
	"materials":[
		{
			"doubleSided":true,
			"name":"starkrimson_pear_material",
			"normalTexture":{
				"index":0
			},
			"occlusionTexture":{
				"index":1
			},
			"pbrMetallicRoughness":{
				"baseColorTexture":{
					"index":2
				},
				"metallicRoughnessTexture":{
					"index":1
				}
			}
		}
	],
	"meshes":[
		{
			"name":"starkrimson_pear",
			"primitives":[
				{
					"attributes":{
						"POSITION":0,
						"NORMAL":1,
						"TEXCOORD_0":2
					},
					"indices":3,
					"material":0
				}
			]
		}
	],
	"textures":[
		{
			"sampler":0,
			"source":0,
			"extensions":{
				"KHR_texture_basisu":{
					"source":3
				}
			}
		},
		{
			"sampler":0,
			"source":1,
			"extensions":{
				"KHR_texture_basisu":{
					"source":4
				}
			}
		},
		{
			"sampler":0,
			"source":2,
			"extensions":{
				"KHR_texture_basisu":{
					"source":5
				}
			}
		}
	],
	"images":[
		{
			"mimeType":"image/png",
			"name":"starkrimson_pear_normal",
			"uri":"starkrimson_pear_normal.png"
		},
		{
			"mimeType":"image/png",
			"name":"starkrimson_pear_occlusion_roughness_metallic",
			"uri":"starkrimson_pear_occlusion_roughness_metallic.png"
		},
		{
			"mimeType":"image/png",
			"name":"starkrimson_pear_color",
			"uri":"starkrimson_pear_color.png"
		},
		{
			"mimeType":"image/ktx2",
			"uri":"starkrimson_pear_normal.ktx2"
		},
		{
			"mimeType":"image/ktx2",
			"uri":"starkrimson_pear_occlusion_roughness_metallic.ktx2"
		},
		{
			"mimeType":"image/ktx2",
			"uri":"starkrimson_pear_color.ktx2"
		}
	],
	"accessors":[
		{
			"bufferView":0,
			"componentType":5126,
			"count":1239,
			"max":[
				0.03722710534930229,
				0.04948687180876732,
				0.03205547854304314
			],
			"min":[
				-0.037626758217811584,
				-0.03276795521378517,
				-0.0336146354675293
			],
			"type":"VEC3"
		},
		{
			"bufferView":1,
			"componentType":5126,
			"count":1239,
			"type":"VEC3"
		},
		{
			"bufferView":2,
			"componentType":5126,
			"count":1239,
			"type":"VEC2"
		},
		{
			"bufferView":3,
			"componentType":5123,
			"count":6924,
			"type":"SCALAR"
		}
	],
	"bufferViews":[
		{
			"buffer":0,
			"byteLength":14868,
			"byteOffset":0,
			"target":34962
		},
		{
			"buffer":0,
			"byteLength":14868,
			"byteOffset":14868,
			"target":34962
		},
		{
			"buffer":0,
			"byteLength":9912,
			"byteOffset":29736,
			"target":34962
		},
		{
			"buffer":0,
			"byteLength":13848,
			"byteOffset":39648,
			"target":34963
		}
	],
	"samplers":[
		{
			"magFilter":9729,
			"minFilter":9987
		}
	],
	"buffers":[
		{
			"byteLength":53496,
			"uri":"starkrimson_pear.bin"
		}
	],
	"extensionsUsed":[
		"KHR_texture_basisu"
	]
}
