{
	"asset":{
		"generator":"Khronos glTF Blender I/O v4.0.44",
		"version":"2.0"
	},
	"scene":0,
	"scenes":[
		{
			"name":"Scene",
			"nodes":[
				0
			]
		}
	],
	"nodes":[
		{
			"mesh":0,
			"name":"station_table_top"
		}
	],
	"materials":[
		{
			"doubleSided":true,
			"name":"station_table_top_material",
			"normalTexture":{
				"index":0
			},
			"occlusionTexture":{
				"index":1
			},
			"pbrMetallicRoughness":{
				"baseColorTexture":{
					"index":2
				},
				"baseColorFactor" : [0.1, 0.1, 0.1, 1],
				"metallicRoughnessTexture":{
					"index":1
				}
			}
		}
	],
	"meshes":[
		{
			"name":"station_table_top",
			"primitives":[
				{
					"attributes":{
						"POSITION":0,
						"NORMAL":1,
						"TEXCOORD_0":2
					},
					"indices":3,
					"material":0
				}
			]
		}
	],
	"textures":[
		{
			"sampler":0,
			"source":0,
			"extensions":{
				"KHR_texture_basisu":{
					"source":3
				}
			}
		},
		{
			"sampler":0,
			"source":1,
			"extensions":{
				"KHR_texture_basisu":{
					"source":4
				}
			}
		},
		{
			"sampler":0,
			"source":2,
			"extensions":{
				"KHR_texture_basisu":{
					"source":5
				}
			}
		}
	],
	"images":[
		{
			"mimeType":"image/png",
			"name":"station_table_top_normal",
			"uri":"station_table_top_normal.png"
		},
		{
			"mimeType":"image/png",
			"name":"station_table_top_occlusion_roughness_metallic",
			"uri":"station_table_top_occlusion_roughness_metallic.png"
		},
		{
			"mimeType":"image/png",
			"name":"station_table_top_color",
			"uri":"station_table_top_color.png"
		},
		{
			"mimeType":"image/ktx2",
			"uri":"station_table_top_normal.ktx2"
		},
		{
			"mimeType":"image/ktx2",
			"uri":"station_table_top_occlusion_roughness_metallic.ktx2"
		},
		{
			"mimeType":"image/ktx2",
			"uri":"station_table_top_color.ktx2"
		}
	],
	"accessors":[
		{
			"bufferView":0,
			"componentType":5126,
			"count":15439,
			"max":[
				0.4129387438297272,
				1.0244548320770264e-07,
				0.6999996304512024
			],
			"min":[
				-0.4129387140274048,
				-0.5190500020980835,
				-0.6999996304512024
			],
			"type":"VEC3"
		},
		{
			"bufferView":1,
			"componentType":5126,
			"count":15439,
			"type":"VEC3"
		},
		{
			"bufferView":2,
			"componentType":5126,
			"count":15439,
			"type":"VEC2"
		},
		{
			"bufferView":3,
			"componentType":5123,
			"count":42516,
			"type":"SCALAR"
		}
	],
	"bufferViews":[
		{
			"buffer":0,
			"byteLength":185268,
			"byteOffset":0,
			"target":34962
		},
		{
			"buffer":0,
			"byteLength":185268,
			"byteOffset":185268,
			"target":34962
		},
		{
			"buffer":0,
			"byteLength":123512,
			"byteOffset":370536,
			"target":34962
		},
		{
			"buffer":0,
			"byteLength":85032,
			"byteOffset":494048,
			"target":34963
		}
	],
	"samplers":[
		{
			"magFilter":9729,
			"minFilter":9987
		}
	],
	"buffers":[
		{
			"byteLength":579080,
			"uri":"station_table_top.bin"
		}
	],
	"extensionsUsed":[
		"KHR_texture_basisu"
	]
}
