{
	"asset":{
		"generator":"Khronos glTF Blender I/O v4.0.44",
		"version":"2.0"
	},
	"scene":0,
	"scenes":[
		{
			"name":"Scene",
			"nodes":[
				0
			]
		}
	],
	"nodes":[
		{
			"mesh":0,
			"name":"station_arm_cart_gantry"
		}
	],
	"materials":[
		{
			"doubleSided":true,
			"name":"station_arm_cart_gantry_material",
			"normalTexture":{
				"index":0
			},
			"occlusionTexture":{
				"index":1
			},
			"pbrMetallicRoughness":{
				"baseColorTexture":{
					"index":2
				},
				"metallicRoughnessTexture":{
					"index":1
				}
			}
		}
	],
	"meshes":[
		{
			"name":"station_arm_cart_gantry",
			"primitives":[
				{
					"attributes":{
						"POSITION":0,
						"NORMAL":1,
						"TEXCOORD_0":2
					},
					"indices":3,
					"material":0
				}
			]
		}
	],
	"textures":[
		{
			"sampler":0,
			"source":0,
			"extensions":{
				"KHR_texture_basisu":{
					"source":3
				}
			}
		},
		{
			"sampler":0,
			"source":1,
			"extensions":{
				"KHR_texture_basisu":{
					"source":4
				}
			}
		},
		{
			"sampler":0,
			"source":2,
			"extensions":{
				"KHR_texture_basisu":{
					"source":5
				}
			}
		}
	],
	"images":[
		{
			"mimeType":"image/png",
			"name":"station_arm_cart_gantry_normal",
			"uri":"station_arm_cart_gantry_normal.png"
		},
		{
			"mimeType":"image/png",
			"name":"station_arm_cart_gantry_occlusion_roughness_metallic",
			"uri":"station_arm_cart_gantry_occlusion_roughness_metallic.png"
		},
		{
			"mimeType":"image/png",
			"name":"station_arm_cart_gantry_color",
			"uri":"station_arm_cart_gantry_color.png"
		},
		{
			"mimeType":"image/ktx2",
			"uri":"station_arm_cart_gantry_normal.ktx2"
		},
		{
			"mimeType":"image/ktx2",
			"uri":"station_arm_cart_gantry_occlusion_roughness_metallic.ktx2"
		},
		{
			"mimeType":"image/ktx2",
			"uri":"station_arm_cart_gantry_color.ktx2"
		}
	],
	"accessors":[
		{
			"bufferView":0,
			"componentType":5126,
			"count":14725,
			"max":[
				0.34247806668281555,
				0.06889697909355164,
				0.11000009626150131
			],
			"min":[
				-0.34247803688049316,
				-0.11197823286056519,
				-0.1100001111626625
			],
			"type":"VEC3"
		},
		{
			"bufferView":1,
			"componentType":5126,
			"count":14725,
			"type":"VEC3"
		},
		{
			"bufferView":2,
			"componentType":5126,
			"count":14725,
			"type":"VEC2"
		},
		{
			"bufferView":3,
			"componentType":5123,
			"count":44724,
			"type":"SCALAR"
		}
	],
	"bufferViews":[
		{
			"buffer":0,
			"byteLength":176700,
			"byteOffset":0,
			"target":34962
		},
		{
			"buffer":0,
			"byteLength":176700,
			"byteOffset":176700,
			"target":34962
		},
		{
			"buffer":0,
			"byteLength":117800,
			"byteOffset":353400,
			"target":34962
		},
		{
			"buffer":0,
			"byteLength":89448,
			"byteOffset":471200,
			"target":34963
		}
	],
	"samplers":[
		{
			"magFilter":9729,
			"minFilter":9987
		}
	],
	"buffers":[
		{
			"byteLength":560648,
			"uri":"station_arm_cart_gantry.bin"
		}
	],
	"extensionsUsed":[
		"KHR_texture_basisu"
	]
}
