{
	"asset":{
		"generator":"Khronos glTF Blender I/O v4.0.44",
		"version":"2.0"
	},
	"scene":0,
	"scenes":[
		{
			"name":"Scene",
			"nodes":[
				0
			]
		}
	],
	"nodes":[
		{
			"mesh":0,
			"name":"station_arm_cart"
		}
	],
	"materials":[
		{
			"doubleSided":true,
			"name":"station_arm_cart_material",
			"normalTexture":{
				"index":0
			},
			"occlusionTexture":{
				"index":1
			},
			"pbrMetallicRoughness":{
				"baseColorTexture":{
					"index":2
				},
				"metallicRoughnessTexture":{
					"index":1
				}
			}
		}
	],
	"meshes":[
		{
			"name":"station_arm_cart",
			"primitives":[
				{
					"attributes":{
						"POSITION":0,
						"NORMAL":1,
						"TEXCOORD_0":2
					},
					"indices":3,
					"material":0
				}
			]
		}
	],
	"textures":[
		{
			"sampler":0,
			"source":0,
			"extensions":{
				"KHR_texture_basisu":{
					"source":3
				}
			}
		},
		{
			"sampler":0,
			"source":1,
			"extensions":{
				"KHR_texture_basisu":{
					"source":4
				}
			}
		},
		{
			"sampler":0,
			"source":2,
			"extensions":{
				"KHR_texture_basisu":{
					"source":5
				}
			}
		}
	],
	"images":[
		{
			"mimeType":"image/png",
			"name":"station_arm_cart_normal",
			"uri":"station_arm_cart_normal.png"
		},
		{
			"mimeType":"image/png",
			"name":"station_arm_cart_occlusion_roughness_metallic",
			"uri":"station_arm_cart_occlusion_roughness_metallic.png"
		},
		{
			"mimeType":"image/png",
			"name":"station_arm_cart_color",
			"uri":"station_arm_cart_color.png"
		},
		{
			"mimeType":"image/ktx2",
			"uri":"station_arm_cart_normal.ktx2"
		},
		{
			"mimeType":"image/ktx2",
			"uri":"station_arm_cart_occlusion_roughness_metallic.ktx2"
		},
		{
			"mimeType":"image/ktx2",
			"uri":"station_arm_cart_color.ktx2"
		}
	],
	"accessors":[
		{
			"bufferView":0,
			"componentType":5126,
			"count":50756,
			"max":[
				0.3517880439758301,
				0,
				0.3447999954223633
			],
			"min":[
				-0.3517880141735077,
				-0.532550036907196,
				-0.34480008482933044
			],
			"type":"VEC3"
		},
		{
			"bufferView":1,
			"componentType":5126,
			"count":50756,
			"type":"VEC3"
		},
		{
			"bufferView":2,
			"componentType":5126,
			"count":50756,
			"type":"VEC2"
		},
		{
			"bufferView":3,
			"componentType":5123,
			"count":165438,
			"type":"SCALAR"
		}
	],
	"bufferViews":[
		{
			"buffer":0,
			"byteLength":609072,
			"byteOffset":0,
			"target":34962
		},
		{
			"buffer":0,
			"byteLength":609072,
			"byteOffset":609072,
			"target":34962
		},
		{
			"buffer":0,
			"byteLength":406048,
			"byteOffset":1218144,
			"target":34962
		},
		{
			"buffer":0,
			"byteLength":330876,
			"byteOffset":1624192,
			"target":34963
		}
	],
	"samplers":[
		{
			"magFilter":9729,
			"minFilter":9987
		}
	],
	"buffers":[
		{
			"byteLength":1955068,
			"uri":"station_arm_cart.bin"
		}
	],
	"extensionsUsed":[
		"KHR_texture_basisu"
	]
}
