{
	"asset":{
		"generator":"Khronos glTF Blender I/O v4.0.44",
		"version":"2.0"
	},
	"scene":0,
	"scenes":[
		{
			"name":"Scene",
			"nodes":[
				0
			]
		}
	],
	"nodes":[
		{
			"mesh":0,
			"name":"station_table_cart"
		}
	],
	"materials":[
		{
			"doubleSided":true,
			"name":"station_table_cart_material",
			"normalTexture":{
				"index":0
			},
			"occlusionTexture":{
				"index":1
			},
			"pbrMetallicRoughness":{
				"baseColorTexture":{
					"index":2
				},
				"metallicRoughnessTexture":{
					"index":1
				}
			}
		}
	],
	"meshes":[
		{
			"name":"station_table_cart",
			"primitives":[
				{
					"attributes":{
						"POSITION":0,
						"NORMAL":1,
						"TEXCOORD_0":2
					},
					"indices":3,
					"material":0
				}
			]
		}
	],
	"textures":[
		{
			"sampler":0,
			"source":0,
			"extensions":{
				"KHR_texture_basisu":{
					"source":3
				}
			}
		},
		{
			"sampler":0,
			"source":1,
			"extensions":{
				"KHR_texture_basisu":{
					"source":4
				}
			}
		},
		{
			"sampler":0,
			"source":2,
			"extensions":{
				"KHR_texture_basisu":{
					"source":5
				}
			}
		}
	],
	"images":[
		{
			"mimeType":"image/png",
			"name":"station_table_cart_normal",
			"uri":"station_table_cart_normal.png"
		},
		{
			"mimeType":"image/png",
			"name":"station_table_cart_occlusion_roughness_metallic",
			"uri":"station_table_cart_occlusion_roughness_metallic.png"
		},
		{
			"mimeType":"image/png",
			"name":"station_table_cart_color",
			"uri":"station_table_cart_color.png"
		},
		{
			"mimeType":"image/ktx2",
			"uri":"station_table_cart_normal.ktx2"
		},
		{
			"mimeType":"image/ktx2",
			"uri":"station_table_cart_occlusion_roughness_metallic.ktx2"
		},
		{
			"mimeType":"image/ktx2",
			"uri":"station_table_cart_color.ktx2"
		}
	],
	"accessors":[
		{
			"bufferView":0,
			"componentType":5126,
			"count":112688,
			"max":[
				0.3517880439758301,
				1.3486323356628418,
				0.34480008482933044
			],
			"min":[
				-0.8735122680664062,
				-0.532550036907196,
				-0.9013620615005493
			],
			"type":"VEC3"
		},
		{
			"bufferView":1,
			"componentType":5126,
			"count":112688,
			"type":"VEC3"
		},
		{
			"bufferView":2,
			"componentType":5126,
			"count":112688,
			"type":"VEC2"
		},
		{
			"bufferView":3,
			"componentType":5125,
			"count":379704,
			"type":"SCALAR"
		}
	],
	"bufferViews":[
		{
			"buffer":0,
			"byteLength":1352256,
			"byteOffset":0,
			"target":34962
		},
		{
			"buffer":0,
			"byteLength":1352256,
			"byteOffset":1352256,
			"target":34962
		},
		{
			"buffer":0,
			"byteLength":901504,
			"byteOffset":2704512,
			"target":34962
		},
		{
			"buffer":0,
			"byteLength":1518816,
			"byteOffset":3606016,
			"target":34963
		}
	],
	"samplers":[
		{
			"magFilter":9729,
			"minFilter":9987
		}
	],
	"buffers":[
		{
			"byteLength":5124832,
			"uri":"station_table_cart.bin"
		}
	],
	"extensionsUsed":[
		"KHR_texture_basisu"
	]
}
