{
	"asset":{
		"generator":"Khronos glTF Blender I/O v4.0.44",
		"version":"2.0"
	},
	"scene":0,
	"scenes":[
		{
			"name":"Scene",
			"nodes":[
				0
			]
		}
	],
	"nodes":[
		{
			"mesh":0,
			"name":"station_arm_cart_base_plate"
		}
	],
	"materials":[
		{
			"doubleSided":true,
			"name":"station_arm_cart_base_plate_material",
			"normalTexture":{
				"index":0
			},
			"occlusionTexture":{
				"index":1
			},
			"pbrMetallicRoughness":{
				"baseColorTexture":{
					"index":2
				},
				"metallicRoughnessTexture":{
					"index":1
				}
			}
		}
	],
	"meshes":[
		{
			"name":"station_arm_cart_base_plate",
			"primitives":[
				{
					"attributes":{
						"POSITION":0,
						"NORMAL":1,
						"TEXCOORD_0":2
					},
					"indices":3,
					"material":0
				}
			]
		}
	],
	"textures":[
		{
			"sampler":0,
			"source":0,
			"extensions":{
				"KHR_texture_basisu":{
					"source":3
				}
			}
		},
		{
			"sampler":0,
			"source":1,
			"extensions":{
				"KHR_texture_basisu":{
					"source":4
				}
			}
		},
		{
			"sampler":0,
			"source":2,
			"extensions":{
				"KHR_texture_basisu":{
					"source":5
				}
			}
		}
	],
	"images":[
		{
			"mimeType":"image/png",
			"name":"station_arm_cart_base_plate_normal",
			"uri":"station_arm_cart_base_plate_normal.png"
		},
		{
			"mimeType":"image/png",
			"name":"station_arm_cart_base_plate_occlusion_roughness_metallic",
			"uri":"station_arm_cart_base_plate_occlusion_roughness_metallic.png"
		},
		{
			"mimeType":"image/png",
			"name":"station_arm_cart_base_plate_color",
			"uri":"station_arm_cart_base_plate_color.png"
		},
		{
			"mimeType":"image/ktx2",
			"uri":"station_arm_cart_base_plate_normal.ktx2"
		},
		{
			"mimeType":"image/ktx2",
			"uri":"station_arm_cart_base_plate_occlusion_roughness_metallic.ktx2"
		},
		{
			"mimeType":"image/ktx2",
			"uri":"station_arm_cart_base_plate_color.ktx2"
		}
	],
	"accessors":[
		{
			"bufferView":0,
			"componentType":5126,
			"count":1752,
			"max":[
				0.11000002920627594,
				0.012700054794549942,
				0.10999997705221176
			],
			"min":[
				-0.11000002920627594,
				1.862645149230957e-09,
				-0.10999997705221176
			],
			"type":"VEC3"
		},
		{
			"bufferView":1,
			"componentType":5126,
			"count":1752,
			"type":"VEC3"
		},
		{
			"bufferView":2,
			"componentType":5126,
			"count":1752,
			"type":"VEC2"
		},
		{
			"bufferView":3,
			"componentType":5123,
			"count":5028,
			"type":"SCALAR"
		}
	],
	"bufferViews":[
		{
			"buffer":0,
			"byteLength":21024,
			"byteOffset":0,
			"target":34962
		},
		{
			"buffer":0,
			"byteLength":21024,
			"byteOffset":21024,
			"target":34962
		},
		{
			"buffer":0,
			"byteLength":14016,
			"byteOffset":42048,
			"target":34962
		},
		{
			"buffer":0,
			"byteLength":10056,
			"byteOffset":56064,
			"target":34963
		}
	],
	"samplers":[
		{
			"magFilter":9729,
			"minFilter":9987
		}
	],
	"buffers":[
		{
			"byteLength":66120,
			"uri":"station_arm_cart_base_plate.bin"
		}
	],
	"extensionsUsed":[
		"KHR_texture_basisu"
	]
}
