{
  "accessors": [
    {
      "name": "Torus-Mesh_positions",
      "componentType": 5126,
      "count": 2304,
      "min": [
        -0.05000000074505806,
        -0.009999999776482582,
        -0.05000000074505806
      ],
      "max": [
        0.05000000074505806,
        0.009999999776482582,
        0.05000000074505806
      ],
      "type": "VEC3",
      "bufferView": 0,
      "byteOffset": 0
    },
    {
      "name": "Torus-Mesh_normals",
      "componentType": 5126,
      "count": 2304,
      "min": [
        -0.9639999866485596,
        -0.9657999873161316,
        -0.9639999866485596
      ],
      "max": [
        0.9639999866485596,
        0.9657999873161316,
        0.9639999866485596
      ],
      "type": "VEC3",
      "bufferView": 0,
      "byteOffset": 27648
    },
    {
      "name": "Torus-Mesh_texcoords",
      "componentType": 5126,
      "count": 2304,
      "min": [
        0,
        0
      ],
      "max": [
        1,
        1
      ],
      "type": "VEC2",
      "bufferView": 1,
      "byteOffset": 0
    },
    {
      "name": "Torus-Mesh_0_indices",
      "componentType": 5123,
      "count": 3456,
      "min": [
        0
      ],
      "max": [
        2303
      ],
      "type": "SCALAR",
      "bufferView": 2,
      "byteOffset": 0
    }
  ],
  "asset": {
    "generator": "obj2gltf",
    "version": "2.0"
  },
  "buffers": [
    {
      "name": "torus",
      "byteLength": 80640,
      "uri": "torus.bin"
    }
  ],
  "bufferViews": [
    {
      "name": "bufferView_0",
      "buffer": 0,
      "byteLength": 55296,
      "byteOffset": 0,
      "byteStride": 12,
      "target": 34962
    },
    {
      "name": "bufferView_1",
      "buffer": 0,
      "byteLength": 18432,
      "byteOffset": 55296,
      "byteStride": 8,
      "target": 34962
    },
    {
      "name": "bufferView_2",
      "buffer": 0,
      "byteLength": 6912,
      "byteOffset": 73728,
      "target": 34963
    }
  ],
  "images": [
    {
      "name": "tiger",
      "uri": "torus_color.png"
    }
  ],
  "materials": [
    {
      "name": "None",
      "pbrMetallicRoughness": {
        "baseColorTexture": {
          "index": 0
        },
        "baseColorFactor": [
          1,
          1,
          1,
          1
        ],
        "metallicFactor": 0,
        "roughnessFactor": 0.5
      },
      "emissiveFactor": [
        0,
        0,
        0
      ],
      "alphaMode": "OPAQUE",
      "doubleSided": false
    }
  ],
  "meshes": [
    {
      "name": "Torus-Mesh",
      "primitives": [
        {
          "attributes": {
            "POSITION": 0,
            "NORMAL": 1,
            "TEXCOORD_0": 2
          },
          "indices": 3,
          "material": 0,
          "mode": 4
        }
      ]
    }
  ],
  "nodes": [
    {
      "name": "Torus",
      "mesh": 0
    }
  ],
  "samplers": [
    {
      "magFilter": 9729,
      "minFilter": 9986,
      "wrapS": 10497,
      "wrapT": 10497
    }
  ],
  "scene": 0,
  "scenes": [
    {
      "nodes": [
        0
      ]
    }
  ],
  "textures": [
    {
      "name": "tiger",
      "sampler": 0,
      "source": 0
    }
  ]
}
