{
	"asset":{
		"generator":"Khronos glTF Blender I/O v4.3.47",
		"version":"2.0"
	},
	"scene":0,
	"scenes":[
		{
			"name":"Scene",
			"nodes":[
				0
			]
		}
	],
	"nodes":[
		{
			"mesh":0,
			"name":"fake_blue_sweet_crispin_apple"
		}
	],
	"materials":[
		{
			"doubleSided":true,
			"name":"fake_blue_sweet_crispin_apple_material",
			"normalTexture":{
				"index":0
			},
			"occlusionTexture":{
				"index":1
			},
			"pbrMetallicRoughness":{
				"baseColorTexture":{
					"index":2
				},
				"metallicRoughnessTexture":{
					"index":1
				}
			}
		}
	],
	"meshes":[
		{
			"name":"fake_blue_sweet_crispin_apple",
			"primitives":[
				{
					"attributes":{
						"POSITION":0,
						"NORMAL":1,
						"TEXCOORD_0":2
					},
					"indices":3,
					"material":0
				}
			]
		}
	],
	"textures":[
		{
			"sampler":0,
			"source":0,
			"extensions":{
				"KHR_texture_basisu":{
					"source":3
				}
			}
		},
		{
			"sampler":0,
			"source":1,
			"extensions":{
				"KHR_texture_basisu":{
					"source":4
				}
			}
		},
		{
			"sampler":0,
			"source":2,
			"extensions":{
				"KHR_texture_basisu":{
					"source":5
				}
			}
		}
	],
	"images":[
		{
			"mimeType":"image/png",
			"name":"fake_green_sweet_crispin_apple_normal",
			"uri":"fake_green_sweet_crispin_apple_normal.png"
		},
		{
			"mimeType":"image/png",
			"name":"fake_green_sweet_crispin_apple_occlusion_roughness_metallic",
			"uri":"fake_green_sweet_crispin_apple_occlusion_roughness_metallic.png"
		},
		{
			"mimeType":"image/png",
			"name":"fake_blue_sweet_crispin_apple_color",
			"uri":"fake_blue_sweet_crispin_apple_color.png"
		},
		{
			"mimeType":"image/ktx2",
			"uri":"fake_green_sweet_crispin_apple_normal.ktx2"
		},
		{
			"mimeType":"image/ktx2",
			"uri":"fake_green_sweet_crispin_apple_occlusion_roughness_metallic.ktx2"
		},
		{
			"mimeType":"image/ktx2",
			"uri":"fake_blue_sweet_crispin_apple_color.ktx2"
		}
	],
	"accessors":[
		{
			"bufferView":0,
			"componentType":5126,
			"count":1075,
			"max":[
				0.0368589386343956,
				0.032233450561761856,
				0.03416109457612038
			],
			"min":[
				-0.035629477351903915,
				-0.03355294466018677,
				-0.0352492518723011
			],
			"type":"VEC3"
		},
		{
			"bufferView":1,
			"componentType":5126,
			"count":1075,
			"type":"VEC3"
		},
		{
			"bufferView":2,
			"componentType":5126,
			"count":1075,
			"type":"VEC2"
		},
		{
			"bufferView":3,
			"componentType":5123,
			"count":5460,
			"type":"SCALAR"
		}
	],
	"bufferViews":[
		{
			"buffer":0,
			"byteLength":12900,
			"byteOffset":0,
			"target":34962
		},
		{
			"buffer":0,
			"byteLength":12900,
			"byteOffset":12900,
			"target":34962
		},
		{
			"buffer":0,
			"byteLength":8600,
			"byteOffset":25800,
			"target":34962
		},
		{
			"buffer":0,
			"byteLength":10920,
			"byteOffset":34400,
			"target":34963
		}
	],
	"samplers":[
		{
			"magFilter":9729,
			"minFilter":9987
		}
	],
	"buffers":[
		{
			"byteLength":45320,
			"uri":"fake_green_sweet_crispin_apple.bin"
		}
	],
	"extensionsUsed":[
		"KHR_texture_basisu"
	]
}
