{
	"asset":{
		"generator":"Khronos glTF Blender I/O v4.1.63",
		"version":"2.0"
	},
	"scene":0,
	"scenes":[
		{
			"name":"Scene",
			"nodes":[
				0
			]
		}
	],
	"nodes":[
		{
			"mesh":0,
			"name":"gala_apple"
		}
	],
	"materials":[
		{
			"doubleSided":true,
			"name":"gala_apple_material",
			"normalTexture":{
				"index":0
			},
			"occlusionTexture":{
				"index":1
			},
			"pbrMetallicRoughness":{
				"baseColorTexture":{
					"index":2
				},
				"metallicRoughnessTexture":{
					"index":1
				}
			}
		}
	],
	"meshes":[
		{
			"name":"mesh",
			"primitives":[
				{
					"attributes":{
						"POSITION":0,
						"NORMAL":1,
						"TEXCOORD_0":2
					},
					"indices":3,
					"material":0
				}
			]
		}
	],
	"textures":[
		{
			"sampler":0,
			"source":0,
			"extensions":{
				"KHR_texture_basisu":{
					"source":3
				}
			}
		},
		{
			"sampler":0,
			"source":1,
			"extensions":{
				"KHR_texture_basisu":{
					"source":4
				}
			}
		},
		{
			"sampler":0,
			"source":2,
			"extensions":{
				"KHR_texture_basisu":{
					"source":5
				}
			}
		}
	],
	"images":[
		{
			"mimeType":"image/png",
			"name":"gala_apple_normal",
			"uri":"gala_apple_normal.png"
		},
		{
			"mimeType":"image/png",
			"name":"gala_apple_occlusion_roughness_metallic",
			"uri":"gala_apple_occlusion_roughness_metallic.png"
		},
		{
			"mimeType":"image/png",
			"name":"gala_apple_color",
			"uri":"gala_apple_color.png"
		},
		{
			"mimeType":"image/ktx2",
			"uri":"gala_apple_normal.ktx2"
		},
		{
			"mimeType":"image/ktx2",
			"uri":"gala_apple_occlusion_roughness_metallic.ktx2"
		},
		{
			"mimeType":"image/ktx2",
			"uri":"gala_apple_color.ktx2"
		}
	],
	"accessors":[
		{
			"bufferView":0,
			"componentType":5126,
			"count":1804,
			"max":[
				0.033283721655607224,
				0.03323861584067345,
				0.03161025792360306
			],
			"min":[
				-0.03206406161189079,
				-0.033427998423576355,
				-0.03298501670360565
			],
			"type":"VEC3"
		},
		{
			"bufferView":1,
			"componentType":5126,
			"count":1804,
			"type":"VEC3"
		},
		{
			"bufferView":2,
			"componentType":5126,
			"count":1804,
			"type":"VEC2"
		},
		{
			"bufferView":3,
			"componentType":5123,
			"count":9558,
			"type":"SCALAR"
		}
	],
	"bufferViews":[
		{
			"buffer":0,
			"byteLength":21648,
			"byteOffset":0,
			"target":34962
		},
		{
			"buffer":0,
			"byteLength":21648,
			"byteOffset":21648,
			"target":34962
		},
		{
			"buffer":0,
			"byteLength":14432,
			"byteOffset":43296,
			"target":34962
		},
		{
			"buffer":0,
			"byteLength":19116,
			"byteOffset":57728,
			"target":34963
		}
	],
	"samplers":[
		{
			"magFilter":9729,
			"minFilter":9987
		}
	],
	"buffers":[
		{
			"byteLength":76844,
			"uri":"gala_apple.bin"
		}
	],
	"extensionsUsed":[
		"KHR_texture_basisu"
	]
}
