{
	"asset":{
		"generator":"Khronos glTF Blender I/O v4.1.63",
		"version":"2.0"
	},
	"scene":0,
	"scenes":[
		{
			"name":"Scene",
			"nodes":[
				0
			]
		}
	],
	"nodes":[
		{
			"mesh":0,
			"name":"golden_delicious_apple"
		}
	],
	"materials":[
		{
			"doubleSided":true,
			"name":"golden_delicious_apple_material",
			"normalTexture":{
				"index":0
			},
			"occlusionTexture":{
				"index":1
			},
			"pbrMetallicRoughness":{
				"baseColorTexture":{
					"index":2
				},
				"metallicRoughnessTexture":{
					"index":1
				}
			}
		}
	],
	"meshes":[
		{
			"name":"golden_delicious_apple",
			"primitives":[
				{
					"attributes":{
						"POSITION":0,
						"NORMAL":1,
						"TEXCOORD_0":2
					},
					"indices":3,
					"material":0
				}
			]
		}
	],
	"textures":[
		{
			"sampler":0,
			"source":0,
			"extensions":{
				"KHR_texture_basisu":{
					"source":3
				}
			}
		},
		{
			"sampler":0,
			"source":1,
			"extensions":{
				"KHR_texture_basisu":{
					"source":4
				}
			}
		},
		{
			"sampler":0,
			"source":2,
			"extensions":{
				"KHR_texture_basisu":{
					"source":5
				}
			}
		}
	],
	"images":[
		{
			"mimeType":"image/png",
			"name":"golden_delicious_apple_normal",
			"uri":"golden_delicious_apple_normal.png"
		},
		{
			"mimeType":"image/png",
			"name":"golden_delicious_apple_occlusion_roughness_metallic",
			"uri":"golden_delicious_apple_occlusion_roughness_metallic.png"
		},
		{
			"mimeType":"image/png",
			"name":"golden_delicious_apple_color",
			"uri":"golden_delicious_apple_color.png"
		},
		{
			"mimeType":"image/ktx2",
			"uri":"golden_delicious_apple_normal.ktx2"
		},
		{
			"mimeType":"image/ktx2",
			"uri":"golden_delicious_apple_occlusion_roughness_metallic.ktx2"
		},
		{
			"mimeType":"image/ktx2",
			"uri":"golden_delicious_apple_color.ktx2"
		}
	],
	"accessors":[
		{
			"bufferView":0,
			"componentType":5126,
			"count":2025,
			"max":[
				0.034607525914907455,
				0.03467678278684616,
				0.034906283020973206
			],
			"min":[
				-0.03466423228383064,
				-0.039480872452259064,
				-0.034116506576538086
			],
			"type":"VEC3"
		},
		{
			"bufferView":1,
			"componentType":5126,
			"count":2025,
			"type":"VEC3"
		},
		{
			"bufferView":2,
			"componentType":5126,
			"count":2025,
			"type":"VEC2"
		},
		{
			"bufferView":3,
			"componentType":5123,
			"count":10710,
			"type":"SCALAR"
		}
	],
	"bufferViews":[
		{
			"buffer":0,
			"byteLength":24300,
			"byteOffset":0,
			"target":34962
		},
		{
			"buffer":0,
			"byteLength":24300,
			"byteOffset":24300,
			"target":34962
		},
		{
			"buffer":0,
			"byteLength":16200,
			"byteOffset":48600,
			"target":34962
		},
		{
			"buffer":0,
			"byteLength":21420,
			"byteOffset":64800,
			"target":34963
		}
	],
	"samplers":[
		{
			"magFilter":9729,
			"minFilter":9987
		}
	],
	"buffers":[
		{
			"byteLength":86220,
			"uri":"golden_delicious_apple.bin"
		}
	],
	"extensionsUsed":[
		"KHR_texture_basisu"
	]
}
