{
	"asset":{
		"generator":"Khronos glTF Blender I/O v4.1.63",
		"version":"2.0"
	},
	"scene":0,
	"scenes":[
		{
			"name":"Scene",
			"nodes":[
				0
			]
		}
	],
	"nodes":[
		{
			"mesh":0,
			"name":"granny_smith_apple"
		}
	],
	"materials":[
		{
			"doubleSided":true,
			"name":"granny_smith_apple_material",
			"normalTexture":{
				"index":0
			},
			"occlusionTexture":{
				"index":1
			},
			"pbrMetallicRoughness":{
				"baseColorTexture":{
					"index":2
				},
				"metallicRoughnessTexture":{
					"index":1
				}
			}
		}
	],
	"meshes":[
		{
			"name":"granny_smith_apple",
			"primitives":[
				{
					"attributes":{
						"POSITION":0,
						"NORMAL":1,
						"TEXCOORD_0":2
					},
					"indices":3,
					"material":0
				}
			]
		}
	],
	"textures":[
		{
			"sampler":0,
			"source":0,
			"extensions":{
				"KHR_texture_basisu":{
					"source":3
				}
			}
		},
		{
			"sampler":0,
			"source":1,
			"extensions":{
				"KHR_texture_basisu":{
					"source":4
				}
			}
		},
		{
			"sampler":0,
			"source":2,
			"extensions":{
				"KHR_texture_basisu":{
					"source":5
				}
			}
		}
	],
	"images":[
		{
			"mimeType":"image/png",
			"name":"granny_smith_apple_normal",
			"uri":"granny_smith_apple_normal.png"
		},
		{
			"mimeType":"image/png",
			"name":"granny_smith_apple_occlusion_roughness_metallic",
			"uri":"granny_smith_apple_occlusion_roughness_metallic.png"
		},
		{
			"mimeType":"image/png",
			"name":"granny_smith_apple_color",
			"uri":"granny_smith_apple_color.png"
		},
		{
			"mimeType":"image/ktx2",
			"uri":"granny_smith_apple_normal.ktx2"
		},
		{
			"mimeType":"image/ktx2",
			"uri":"granny_smith_apple_occlusion_roughness_metallic.ktx2"
		},
		{
			"mimeType":"image/ktx2",
			"uri":"granny_smith_apple_color.ktx2"
		}
	],
	"accessors":[
		{
			"bufferView":0,
			"componentType":5126,
			"count":1635,
			"max":[
				0.0373476967215538,
				0.030874157324433327,
				0.035691630095243454
			],
			"min":[
				-0.037655360996723175,
				-0.03126966208219528,
				-0.0353434681892395
			],
			"type":"VEC3"
		},
		{
			"bufferView":1,
			"componentType":5126,
			"count":1635,
			"type":"VEC3"
		},
		{
			"bufferView":2,
			"componentType":5126,
			"count":1635,
			"type":"VEC2"
		},
		{
			"bufferView":3,
			"componentType":5123,
			"count":8598,
			"type":"SCALAR"
		}
	],
	"bufferViews":[
		{
			"buffer":0,
			"byteLength":19620,
			"byteOffset":0,
			"target":34962
		},
		{
			"buffer":0,
			"byteLength":19620,
			"byteOffset":19620,
			"target":34962
		},
		{
			"buffer":0,
			"byteLength":13080,
			"byteOffset":39240,
			"target":34962
		},
		{
			"buffer":0,
			"byteLength":17196,
			"byteOffset":52320,
			"target":34963
		}
	],
	"samplers":[
		{
			"magFilter":9729,
			"minFilter":9987
		}
	],
	"buffers":[
		{
			"byteLength":69516,
			"uri":"granny_smith_apple.bin"
		}
	],
	"extensionsUsed":[
		"KHR_texture_basisu"
	]
}
