{
	"asset":{
		"generator":"Khronos glTF Blender I/O v4.1.63",
		"version":"2.0"
	},
	"scene":0,
	"scenes":[
		{
			"name":"Scene",
			"nodes":[
				0
			]
		}
	],
	"nodes":[
		{
			"mesh":0,
			"name":"fuerte_avocado"
		}
	],
	"materials":[
		{
			"doubleSided":true,
			"name":"fuerte_avocado_material",
			"normalTexture":{
				"index":0
			},
			"occlusionTexture":{
				"index":1
			},
			"pbrMetallicRoughness":{
				"baseColorTexture":{
					"index":2
				},
				"metallicRoughnessTexture":{
					"index":1
				}
			}
		}
	],
	"meshes":[
		{
			"name":"fuerte_avocado",
			"primitives":[
				{
					"attributes":{
						"POSITION":0,
						"NORMAL":1,
						"TEXCOORD_0":2
					},
					"indices":3,
					"material":0
				}
			]
		}
	],
	"textures":[
		{
			"sampler":0,
			"source":0,
			"extensions":{
				"KHR_texture_basisu":{
					"source":3
				}
			}
		},
		{
			"sampler":0,
			"source":1,
			"extensions":{
				"KHR_texture_basisu":{
					"source":4
				}
			}
		},
		{
			"sampler":0,
			"source":2,
			"extensions":{
				"KHR_texture_basisu":{
					"source":5
				}
			}
		}
	],
	"images":[
		{
			"mimeType":"image/png",
			"name":"fuerte_avocado_normal",
			"uri":"fuerte_avocado_normal.png"
		},
		{
			"mimeType":"image/png",
			"name":"fuerte_avocado_occlusion_roughness_metallic",
			"uri":"fuerte_avocado_occlusion_roughness_metallic.png"
		},
		{
			"mimeType":"image/png",
			"name":"fuerte_avocado_color",
			"uri":"fuerte_avocado_color.png"
		},
		{
			"mimeType":"image/ktx2",
			"uri":"fuerte_avocado_normal.ktx2"
		},
		{
			"mimeType":"image/ktx2",
			"uri":"fuerte_avocado_occlusion_roughness_metallic.ktx2"
		},
		{
			"mimeType":"image/ktx2",
			"uri":"fuerte_avocado_color.ktx2"
		}
	],
	"accessors":[
		{
			"bufferView":0,
			"componentType":5126,
			"count":1046,
			"max":[
				0.03074122592806816,
				0.06295239180326462,
				0.03294236212968826
			],
			"min":[
				-0.03114267997443676,
				-0.04339241981506348,
				-0.031360793858766556
			],
			"type":"VEC3"
		},
		{
			"bufferView":1,
			"componentType":5126,
			"count":1046,
			"type":"VEC3"
		},
		{
			"bufferView":2,
			"componentType":5126,
			"count":1046,
			"type":"VEC2"
		},
		{
			"bufferView":3,
			"componentType":5123,
			"count":5448,
			"type":"SCALAR"
		}
	],
	"bufferViews":[
		{
			"buffer":0,
			"byteLength":12552,
			"byteOffset":0,
			"target":34962
		},
		{
			"buffer":0,
			"byteLength":12552,
			"byteOffset":12552,
			"target":34962
		},
		{
			"buffer":0,
			"byteLength":8368,
			"byteOffset":25104,
			"target":34962
		},
		{
			"buffer":0,
			"byteLength":10896,
			"byteOffset":33472,
			"target":34963
		}
	],
	"samplers":[
		{
			"magFilter":9729,
			"minFilter":9987
		}
	],
	"buffers":[
		{
			"byteLength":44368,
			"uri":"fuerte_avocado.bin"
		}
	],
	"extensionsUsed":[
		"KHR_texture_basisu"
	]
}
