{
	"asset":{
		"generator":"glTF-Transform v3.10.1",
		"version":"2.0"
	},
	"accessors":[
		{
			"type":"VEC3",
			"componentType":5126,
			"count":17681,
			"max":[
				0.26806721091270447,
				0.08442410081624985,
				0.03894847631454468
			],
			"min":[
				-0.044725921005010605,
				-0.0007627234444953501,
				-0.03894847631454468
			],
			"bufferView":0,
			"byteOffset":0
		},
		{
			"type":"VEC3",
			"componentType":5126,
			"count":17681,
			"bufferView":0,
			"byteOffset":12
		},
		{
			"type":"VEC2",
			"componentType":5126,
			"count":17681,
			"bufferView":0,
			"byteOffset":24
		},
		{
			"type":"SCALAR",
			"componentType":5123,
			"count":41304,
			"bufferView":1,
			"byteOffset":0
		}
	],
	"bufferViews":[
		{
			"buffer":0,
			"byteOffset":0,
			"byteLength":565792,
			"byteStride":32,
			"target":34962
		},
		{
			"buffer":0,
			"byteOffset":565792,
			"byteLength":82608,
			"target":34963
		}
	],
	"samplers":[
		{
			"magFilter":9729,
			"minFilter":9987,
			"wrapS":10497,
			"wrapT":10497
		}
	],
	"textures":[
		{
			"source":1,
			"sampler":0,
			"extensions":{
				"KHR_texture_basisu":{
					"source":4
				}
			}
		},
		{
			"source":0,
			"sampler":0,
			"extensions":{
				"KHR_texture_basisu":{
					"source":3
				}
			}
		},
		{
			"source":2,
			"sampler":0,
			"extensions":{
				"KHR_texture_basisu":{
					"source":5
				}
			}
		}
	],
	"images":[
		{
			"name":"chef_craft_stainless_turner_normal",
			"mimeType":"image/png",
			"uri":"chef_craft_stainless_turner_normal.png"
		},
		{
			"name":"chef_craft_stainless_turner_color",
			"mimeType":"image/png",
			"uri":"chef_craft_stainless_turner_color.png"
		},
		{
			"name":"chef_craft_stainless_turner_occlusion_roughness_metallic",
			"mimeType":"image/png",
			"uri":"chef_craft_stainless_turner_occlusion_roughness_metallic.png"
		},
		{
			"mimeType":"image/ktx2",
			"uri":"chef_craft_stainless_turner_normal.ktx2"
		},
		{
			"mimeType":"image/ktx2",
			"uri":"chef_craft_stainless_turner_color.ktx2"
		},
		{
			"mimeType":"image/ktx2",
			"uri":"chef_craft_stainless_turner_occlusion_roughness_metallic.ktx2"
		}
	],
	"buffers":[
		{
			"uri":"chef_craft_stainless_turner.bin",
			"byteLength":648400
		}
	],
	"materials":[
		{
			"name":"chef_craft_stainless_turner_material",
			"doubleSided":true,
			"pbrMetallicRoughness":{
				"baseColorTexture":{
					"index":0
				},
				"metallicRoughnessTexture":{
					"index":2
				}
			},
			"normalTexture":{
				"index":1
			}
		}
	],
	"meshes":[
		{
			"name":"chef_craft_stainless_turner",
			"primitives":[
				{
					"attributes":{
						"POSITION":0,
						"NORMAL":1,
						"TEXCOORD_0":2
					},
					"mode":4,
					"material":0,
					"indices":3
				}
			]
		}
	],
	"nodes":[
		{
			"name":"chef_craft_stainless_turner",
			"mesh":0
		}
	],
	"scenes":[
		{
			"name":"Scene",
			"nodes":[
				0
			]
		}
	],
	"scene":0,
	"extensionsUsed":[
		"KHR_texture_basisu"
	]
}
