{
	"asset":{
		"generator":"glTF-Transform v3.10.1",
		"version":"2.0"
	},
	"accessors":[
		{
			"type":"VEC3",
			"componentType":5126,
			"count":24212,
			"max":[
				0.19451168179512024,
				0.07886781543493271,
				0.03224719688296318
			],
			"min":[
				-0.0385022796690464,
				-0.0026232819072902203,
				-0.03224719688296318
			],
			"bufferView":0,
			"byteOffset":0
		},
		{
			"type":"VEC3",
			"componentType":5126,
			"count":24212,
			"bufferView":0,
			"byteOffset":12
		},
		{
			"type":"VEC2",
			"componentType":5126,
			"count":24212,
			"bufferView":0,
			"byteOffset":24
		},
		{
			"type":"VEC3",
			"componentType":5126,
			"count":5918,
			"max":[
				0.09776060283184052,
				0.039732176810503006,
				0.007202126085758209
			],
			"min":[
				0.0363762341439724,
				-0.0007254578522406518,
				-0.007201350759714842
			],
			"bufferView":1,
			"byteOffset":0
		},
		{
			"type":"VEC3",
			"componentType":5126,
			"count":5918,
			"bufferView":1,
			"byteOffset":12
		},
		{
			"type":"VEC2",
			"componentType":5126,
			"count":5918,
			"bufferView":1,
			"byteOffset":24
		},
		{
			"type":"SCALAR",
			"componentType":5123,
			"count":76224,
			"bufferView":2,
			"byteOffset":0
		},
		{
			"type":"SCALAR",
			"componentType":5123,
			"count":18900,
			"bufferView":2,
			"byteOffset":152448
		}
	],
	"bufferViews":[
		{
			"buffer":0,
			"byteOffset":0,
			"byteLength":774784,
			"byteStride":32,
			"target":34962
		},
		{
			"buffer":0,
			"byteOffset":774784,
			"byteLength":189376,
			"byteStride":32,
			"target":34962
		},
		{
			"buffer":0,
			"byteOffset":964160,
			"byteLength":190248,
			"target":34963
		}
	],
	"samplers":[
		{
			"magFilter":9729,
			"minFilter":9987,
			"wrapS":10497,
			"wrapT":10497
		}
	],
	"textures":[
		{
			"source":0,
			"sampler":0,
			"extensions":{
				"KHR_texture_basisu":{
					"source":3
				}
			}
		},
		{
			"source":1,
			"sampler":0,
			"extensions":{
				"KHR_texture_basisu":{
					"source":4
				}
			}
		},
		{
			"source":2,
			"sampler":0,
			"extensions":{
				"KHR_texture_basisu":{
					"source":5
				}
			}
		}
	],
	"images":[
		{
			"name":"gejoy_silicon_spatula_normal",
			"mimeType":"image/png",
			"uri":"gejoy_silicon_spatula_normal.png"
		},
		{
			"name":"gejoy_silicon_spatula_occlusion_roughness_metallic",
			"mimeType":"image/png",
			"uri":"gejoy_silicon_spatula_occlusion_roughness_metallic.png"
		},
		{
			"name":"gejoy_silicon_spatula_color",
			"mimeType":"image/png",
			"uri":"gejoy_silicon_spatula_color.png"
		},
		{
			"mimeType":"image/ktx2",
			"uri":"gejoy_silicon_spatula_normal.ktx2"
		},
		{
			"mimeType":"image/ktx2",
			"uri":"gejoy_silicon_spatula_occlusion_roughness_metallic.ktx2"
		},
		{
			"mimeType":"image/ktx2",
			"uri":"gejoy_silicon_spatula_color.ktx2"
		}
	],
	"buffers":[
		{
			"uri":"gejoy_silicon_spatula.bin",
			"byteLength":1154408
		}
	],
	"materials":[
		{
			"name":"gejoy_silicon_spatula_color",
			"doubleSided":true,
			"pbrMetallicRoughness":{
				"baseColorFactor":[
					0.4620693325996399,
					0.01849992573261261,
					0.010330025106668472,
					1
				],
				"metallicRoughnessTexture":{
					"index":1
				}
			},
			"normalTexture":{
				"index":0
			}
		},
		{
			"name":"gejoy_silicon_spatula_material",
			"doubleSided":true,
			"pbrMetallicRoughness":{
				"baseColorTexture":{
					"index":2
				},
				"metallicRoughnessTexture":{
					"index":1
				}
			},
			"normalTexture":{
				"index":0
			}
		}
	],
	"meshes":[
		{
			"name":"gejoy_silicon_spatula",
			"primitives":[
				{
					"attributes":{
						"POSITION":0,
						"NORMAL":1,
						"TEXCOORD_0":2
					},
					"mode":4,
					"material":0,
					"indices":6
				},
				{
					"attributes":{
						"POSITION":3,
						"NORMAL":4,
						"TEXCOORD_0":5
					},
					"mode":4,
					"material":1,
					"indices":7
				}
			]
		}
	],
	"nodes":[
		{
			"name":"gejoy_silicon_spatula",
			"mesh":0
		}
	],
	"scenes":[
		{
			"name":"Scene",
			"nodes":[
				0
			]
		}
	],
	"scene":0,
	"extensionsUsed":[
		"KHR_texture_basisu"
	]
}
