{
	"asset":{
		"generator":"glTF-Transform v3.10.1",
		"version":"2.0"
	},
	"accessors":[
		{
			"type":"VEC3",
			"componentType":5126,
			"count":13135,
			"max":[
				0.17663346230983734,
				0.00524557288736105,
				0.02304164133965969
			],
			"min":[
				-0.033373646438121796,
				-0.006280106492340565,
				-0.023041635751724243
			],
			"bufferView":0,
			"byteOffset":0
		},
		{
			"type":"VEC3",
			"componentType":5126,
			"count":13135,
			"bufferView":0,
			"byteOffset":12
		},
		{
			"type":"VEC2",
			"componentType":5126,
			"count":13135,
			"bufferView":0,
			"byteOffset":24
		},
		{
			"type":"SCALAR",
			"componentType":5123,
			"count":53964,
			"bufferView":1,
			"byteOffset":0
		}
	],
	"bufferViews":[
		{
			"buffer":0,
			"byteOffset":0,
			"byteLength":420320,
			"byteStride":32,
			"target":34962
		},
		{
			"buffer":0,
			"byteOffset":420320,
			"byteLength":107928,
			"target":34963
		}
	],
	"samplers":[
		{
			"magFilter":9729,
			"minFilter":9987,
			"wrapS":10497,
			"wrapT":10497
		}
	],
	"textures":[
		{
			"source":0,
			"sampler":0,
			"extensions":{
				"KHR_texture_basisu":{
					"source":2
				}
			}
		},
		{
			"source":1,
			"sampler":0,
			"extensions":{
				"KHR_texture_basisu":{
					"source":3
				}
			}
		}
	],
	"images":[
		{
			"name":"moacc_silicon_spoonula_normal",
			"mimeType":"image/png",
			"uri":"moacc_silicon_spoonula_normal.png"
		},
		{
			"name":"moacc_silicon_spoonula_occlusion_roughness_metallic",
			"mimeType":"image/png",
			"uri":"moacc_silicon_spoonula_occlusion_roughness_metallic.png"
		},
		{
			"mimeType":"image/ktx2",
			"uri":"moacc_silicon_spoonula_normal.ktx2"
		},
		{
			"mimeType":"image/ktx2",
			"uri":"moacc_silicon_spoonula_occlusion_roughness_metallic.ktx2"
		}
	],
	"buffers":[
		{
			"uri":"moacc_silicon_spoonula.bin",
			"byteLength":528248
		}
	],
	"materials":[
		{
			"name":"moacc_silicon_spoonula_material",
			"doubleSided":true,
			"pbrMetallicRoughness":{
				"baseColorFactor":[
					0.010580956004559994,
					0.2727299928665161,
					0.6828579306602478,
					1
				],
				"metallicRoughnessTexture":{
					"index":1
				}
			},
			"normalTexture":{
				"index":0
			}
		}
	],
	"meshes":[
		{
			"name":"moacc_silicon_spoonula",
			"primitives":[
				{
					"attributes":{
						"POSITION":0,
						"NORMAL":1,
						"TEXCOORD_0":2
					},
					"mode":4,
					"material":0,
					"indices":3
				}
			]
		}
	],
	"nodes":[
		{
			"name":"moacc_silicon_spoonula",
			"mesh":0
		}
	],
	"scenes":[
		{
			"name":"Scene",
			"nodes":[
				0
			]
		}
	],
	"scene":0,
	"extensionsUsed":[
		"KHR_texture_basisu"
	]
}
