{
	"asset":{
		"generator":"glTF-Transform v3.10.1",
		"version":"2.0"
	},
	"accessors":[
		{
			"type":"VEC3",
			"componentType":5126,
			"count":12067,
			"max":[
				0.20207375288009644,
				0.09294380992650986,
				0.015315762721002102
			],
			"min":[
				0.10395712405443192,
				0.02623574249446392,
				-0.015315762721002102
			],
			"bufferView":0,
			"byteOffset":0
		},
		{
			"type":"VEC3",
			"componentType":5126,
			"count":12067,
			"bufferView":0,
			"byteOffset":12
		},
		{
			"type":"VEC2",
			"componentType":5126,
			"count":12067,
			"bufferView":0,
			"byteOffset":24
		},
		{
			"type":"VEC3",
			"componentType":5126,
			"count":9658,
			"max":[
				0.19896741211414337,
				0.08544392883777618,
				0.03847319260239601
			],
			"min":[
				-0.05780315771698952,
				-0.002943425439298153,
				-0.03847319260239601
			],
			"bufferView":1,
			"byteOffset":0
		},
		{
			"type":"VEC3",
			"componentType":5126,
			"count":9658,
			"bufferView":1,
			"byteOffset":12
		},
		{
			"type":"VEC2",
			"componentType":5126,
			"count":9658,
			"bufferView":1,
			"byteOffset":24
		},
		{
			"type":"SCALAR",
			"componentType":5123,
			"count":46344,
			"bufferView":2,
			"byteOffset":0
		},
		{
			"type":"SCALAR",
			"componentType":5123,
			"count":38832,
			"bufferView":2,
			"byteOffset":92688
		}
	],
	"bufferViews":[
		{
			"buffer":0,
			"byteOffset":0,
			"byteLength":386144,
			"byteStride":32,
			"target":34962
		},
		{
			"buffer":0,
			"byteOffset":386144,
			"byteLength":309056,
			"byteStride":32,
			"target":34962
		},
		{
			"buffer":0,
			"byteOffset":695200,
			"byteLength":170352,
			"target":34963
		}
	],
	"samplers":[
		{
			"magFilter":9729,
			"minFilter":9987,
			"wrapS":10497,
			"wrapT":10497
		}
	],
	"textures":[
		{
			"source":0,
			"sampler":0,
			"extensions":{
				"KHR_texture_basisu":{
					"source":3
				}
			}
		},
		{
			"source":1,
			"sampler":0,
			"extensions":{
				"KHR_texture_basisu":{
					"source":4
				}
			}
		},
		{
			"source":2,
			"sampler":0,
			"extensions":{
				"KHR_texture_basisu":{
					"source":5
				}
			}
		}
	],
	"images":[
		{
			"name":"oxo_stainless_flexible_turner_normal",
			"mimeType":"image/png",
			"uri":"oxo_stainless_flexible_turner_normal.png"
		},
		{
			"name":"oxo_stainless_flexible_turner_occlusion_roughness_metallic",
			"mimeType":"image/png",
			"uri":"oxo_stainless_flexible_turner_occlusion_roughness_metallic.png"
		},
		{
			"name":"oxo_stainless_flexible_turner_color",
			"mimeType":"image/png",
			"uri":"oxo_stainless_flexible_turner_color.png"
		},
		{
			"mimeType":"image/ktx2",
			"uri":"oxo_stainless_flexible_turner_normal.ktx2"
		},
		{
			"mimeType":"image/ktx2",
			"uri":"oxo_stainless_flexible_turner_occlusion_roughness_metallic.ktx2"
		},
		{
			"mimeType":"image/ktx2",
			"uri":"oxo_stainless_flexible_turner_color.ktx2"
		}
	],
	"buffers":[
		{
			"uri":"oxo_stainless_flexible_turner.bin",
			"byteLength":865552
		}
	],
	"materials":[
		{
			"name":"oxo_stainless_flexible_turner_color",
			"doubleSided":true,
			"pbrMetallicRoughness":{
				"baseColorFactor":[
					0.004999999888241291,
					0.004999999888241291,
					0.004999999888241291,
					1
				],
				"metallicRoughnessTexture":{
					"index":1
				}
			},
			"normalTexture":{
				"index":0
			},
			"occlusionTexture":{
				"index":1
			}
		},
		{
			"name":"oxo_stainless_flexible_turner_material",
			"doubleSided":true,
			"pbrMetallicRoughness":{
				"baseColorTexture":{
					"index":2
				},
				"metallicRoughnessTexture":{
					"index":1
				}
			},
			"normalTexture":{
				"index":0
			},
			"occlusionTexture":{
				"index":1
			}
		}
	],
	"meshes":[
		{
			"name":"oxo_stainless_flexible_turner",
			"primitives":[
				{
					"attributes":{
						"POSITION":0,
						"NORMAL":1,
						"TEXCOORD_0":2
					},
					"mode":4,
					"material":0,
					"indices":6
				},
				{
					"attributes":{
						"POSITION":3,
						"NORMAL":4,
						"TEXCOORD_0":5
					},
					"mode":4,
					"material":1,
					"indices":7
				}
			]
		}
	],
	"nodes":[
		{
			"name":"oxo_stainless_flexible_turner",
			"mesh":0
		}
	],
	"scenes":[
		{
			"name":"Scene",
			"nodes":[
				0
			]
		}
	],
	"scene":0,
	"extensionsUsed":[
		"KHR_texture_basisu"
	]
}
