{
	"asset":{
		"generator":"glTF-Transform v3.10.1",
		"version":"2.0"
	},
	"accessors":[
		{
			"type":"VEC3",
			"componentType":5126,
			"count":9977,
			"max":[
				0.237147718667984,
				0.05560138449072838,
				0.014634913764894009
			],
			"min":[
				0.11585702747106552,
				0.009480939246714115,
				-0.014634924940764904
			],
			"bufferView":0,
			"byteOffset":0
		},
		{
			"type":"VEC3",
			"componentType":5126,
			"count":9977,
			"bufferView":0,
			"byteOffset":12
		},
		{
			"type":"VEC2",
			"componentType":5126,
			"count":9977,
			"bufferView":0,
			"byteOffset":24
		},
		{
			"type":"VEC3",
			"componentType":5126,
			"count":6165,
			"max":[
				0.12436673045158386,
				0.019297171384096146,
				0.015500005334615707
			],
			"min":[
				-0.08049401640892029,
				-0.0003750017494894564,
				-0.015500005334615707
			],
			"bufferView":1,
			"byteOffset":0
		},
		{
			"type":"VEC3",
			"componentType":5126,
			"count":6165,
			"bufferView":1,
			"byteOffset":12
		},
		{
			"type":"VEC2",
			"componentType":5126,
			"count":6165,
			"bufferView":1,
			"byteOffset":24
		},
		{
			"type":"SCALAR",
			"componentType":5123,
			"count":37536,
			"bufferView":2,
			"byteOffset":0
		},
		{
			"type":"SCALAR",
			"componentType":5123,
			"count":11952,
			"bufferView":2,
			"byteOffset":75072
		}
	],
	"bufferViews":[
		{
			"buffer":0,
			"byteOffset":0,
			"byteLength":319264,
			"byteStride":32,
			"target":34962
		},
		{
			"buffer":0,
			"byteOffset":319264,
			"byteLength":197280,
			"byteStride":32,
			"target":34962
		},
		{
			"buffer":0,
			"byteOffset":516544,
			"byteLength":98976,
			"target":34963
		}
	],
	"samplers":[
		{
			"magFilter":9729,
			"minFilter":9987,
			"wrapS":10497,
			"wrapT":10497
		}
	],
	"textures":[
		{
			"source":0,
			"sampler":0,
			"extensions":{
				"KHR_texture_basisu":{
					"source":3
				}
			}
		},
		{
			"source":1,
			"sampler":0,
			"extensions":{
				"KHR_texture_basisu":{
					"source":4
				}
			}
		},
		{
			"source":2,
			"sampler":0,
			"extensions":{
				"KHR_texture_basisu":{
					"source":5
				}
			}
		}
	],
	"images":[
		{
			"name":"oxo_stainless_icing_spatula_normal",
			"mimeType":"image/png",
			"uri":"oxo_stainless_icing_spatula_normal.png"
		},
		{
			"name":"oxo_stainless_icing_spatula_occlusion_roughness_metallic",
			"mimeType":"image/png",
			"uri":"oxo_stainless_icing_spatula_occlusion_roughness_metallic.png"
		},
		{
			"name":"oxo_stainless_icing_spatula_color",
			"mimeType":"image/png",
			"uri":"oxo_stainless_icing_spatula_color.png"
		},
		{
			"mimeType":"image/ktx2",
			"uri":"oxo_stainless_icing_spatula_normal.ktx2"
		},
		{
			"mimeType":"image/ktx2",
			"uri":"oxo_stainless_icing_spatula_occlusion_roughness_metallic.ktx2"
		},
		{
			"mimeType":"image/ktx2",
			"uri":"oxo_stainless_icing_spatula_color.ktx2"
		}
	],
	"buffers":[
		{
			"uri":"oxo_stainless_icing_spatula.bin",
			"byteLength":615520
		}
	],
	"materials":[
		{
			"name":"oxo_stainless_icing_spatula_color",
			"doubleSided":true,
			"pbrMetallicRoughness":{
				"baseColorFactor":[
					0.004999999888241291,
					0.004999999888241291,
					0.004999999888241291,
					1
				],
				"metallicRoughnessTexture":{
					"index":1
				}
			},
			"normalTexture":{
				"index":0
			},
			"occlusionTexture":{
				"index":1
			}
		},
		{
			"name":"oxo_stainless_icing_spatula_material",
			"doubleSided":true,
			"pbrMetallicRoughness":{
				"baseColorTexture":{
					"index":2
				},
				"metallicRoughnessTexture":{
					"index":1
				}
			},
			"normalTexture":{
				"index":0
			},
			"occlusionTexture":{
				"index":1
			}
		}
	],
	"meshes":[
		{
			"name":"oxo_stainless_icing_spatula",
			"primitives":[
				{
					"attributes":{
						"POSITION":0,
						"NORMAL":1,
						"TEXCOORD_0":2
					},
					"mode":4,
					"material":0,
					"indices":6
				},
				{
					"attributes":{
						"POSITION":3,
						"NORMAL":4,
						"TEXCOORD_0":5
					},
					"mode":4,
					"material":1,
					"indices":7
				}
			]
		}
	],
	"nodes":[
		{
			"name":"oxo_stainless_icing_spatula",
			"mesh":0
		}
	],
	"scenes":[
		{
			"name":"Scene",
			"nodes":[
				0
			]
		}
	],
	"scene":0,
	"extensionsUsed":[
		"KHR_texture_basisu"
	]
}
