{
	"asset":{
		"generator":"glTF-Transform v3.10.1",
		"version":"2.0"
	},
	"accessors":[
		{
			"type":"VEC3",
			"componentType":5126,
			"count":20162,
			"max":[
				0.25485581159591675,
				0.08154454827308655,
				0.051777224987745285
			],
			"min":[
				-0.08974827826023102,
				-0.002890720497816801,
				-0.04807629808783531
			],
			"bufferView":0,
			"byteOffset":0
		},
		{
			"type":"VEC3",
			"componentType":5126,
			"count":20162,
			"bufferView":0,
			"byteOffset":12
		},
		{
			"type":"VEC2",
			"componentType":5126,
			"count":20162,
			"bufferView":0,
			"byteOffset":24
		},
		{
			"type":"VEC3",
			"componentType":5126,
			"count":2119,
			"max":[
				0.1659487932920456,
				0.03675735741853714,
				0.010288827121257782
			],
			"min":[
				0.08764903992414474,
				-0.0014391617150977254,
				-0.010288843885064125
			],
			"bufferView":1,
			"byteOffset":0
		},
		{
			"type":"VEC3",
			"componentType":5126,
			"count":2119,
			"bufferView":1,
			"byteOffset":12
		},
		{
			"type":"VEC2",
			"componentType":5126,
			"count":2119,
			"bufferView":1,
			"byteOffset":24
		},
		{
			"type":"SCALAR",
			"componentType":5123,
			"count":67620,
			"bufferView":2,
			"byteOffset":0
		},
		{
			"type":"SCALAR",
			"componentType":5123,
			"count":7308,
			"bufferView":2,
			"byteOffset":135240
		}
	],
	"bufferViews":[
		{
			"buffer":0,
			"byteOffset":0,
			"byteLength":645184,
			"byteStride":32,
			"target":34962
		},
		{
			"buffer":0,
			"byteOffset":645184,
			"byteLength":67808,
			"byteStride":32,
			"target":34962
		},
		{
			"buffer":0,
			"byteOffset":712992,
			"byteLength":149856,
			"target":34963
		}
	],
	"samplers":[
		{
			"magFilter":9729,
			"minFilter":9987,
			"wrapS":10497,
			"wrapT":10497
		}
	],
	"textures":[
		{
			"source":0,
			"sampler":0,
			"extensions":{
				"KHR_texture_basisu":{
					"source":3
				}
			}
		},
		{
			"source":1,
			"sampler":0,
			"extensions":{
				"KHR_texture_basisu":{
					"source":4
				}
			}
		},
		{
			"source":2,
			"sampler":0,
			"extensions":{
				"KHR_texture_basisu":{
					"source":5
				}
			}
		}
	],
	"images":[
		{
			"name":"oxo_silicon_omelet_turner_normal",
			"mimeType":"image/png",
			"uri":"oxo_silicon_omelet_turner_normal.png"
		},
		{
			"name":"oxo_silicon_omelet_turner_occlusion_roughness_metallic",
			"mimeType":"image/png",
			"uri":"oxo_silicon_omelet_turner_occlusion_roughness_metallic.png"
		},
		{
			"name":"oxo_silicon_omelet_turner_color",
			"mimeType":"image/png",
			"uri":"oxo_silicon_omelet_turner_color.png"
		},
		{
			"mimeType":"image/ktx2",
			"uri":"oxo_silicon_omelet_turner_normal.ktx2"
		},
		{
			"mimeType":"image/ktx2",
			"uri":"oxo_silicon_omelet_turner_occlusion_roughness_metallic.ktx2"
		},
		{
			"mimeType":"image/ktx2",
			"uri":"oxo_silicon_omelet_turner_color.ktx2"
		}
	],
	"buffers":[
		{
			"uri":"oxo_silicon_omelet_turner.bin",
			"byteLength":862848
		}
	],
	"materials":[
		{
			"name":"oxo_silicon_omelet_turner_color",
			"doubleSided":true,
			"pbrMetallicRoughness":{
				"baseColorFactor":[
					0.009126137010753155,
					0.009126137010753155,
					0.009126137010753155,
					1
				],
				"metallicRoughnessTexture":{
					"index":1
				}
			},
			"normalTexture":{
				"index":0
			},
			"occlusionTexture":{
				"index":1
			}
		},
		{
			"name":"oxo_silicon_omelet_turner_material",
			"doubleSided":true,
			"pbrMetallicRoughness":{
				"baseColorTexture":{
					"index":2
				},
				"metallicRoughnessTexture":{
					"index":1
				}
			},
			"normalTexture":{
				"index":0
			},
			"occlusionTexture":{
				"index":1
			}
		}
	],
	"meshes":[
		{
			"name":"oxo_silicon_omelet_turner",
			"primitives":[
				{
					"attributes":{
						"POSITION":0,
						"NORMAL":1,
						"TEXCOORD_0":2
					},
					"mode":4,
					"material":0,
					"indices":6
				},
				{
					"attributes":{
						"POSITION":3,
						"NORMAL":4,
						"TEXCOORD_0":5
					},
					"mode":4,
					"material":1,
					"indices":7
				}
			]
		}
	],
	"nodes":[
		{
			"name":"oxo_silicon_omelet_turner",
			"mesh":0
		}
	],
	"scenes":[
		{
			"name":"Scene",
			"nodes":[
				0
			]
		}
	],
	"scene":0,
	"extensionsUsed":[
		"KHR_texture_basisu"
	]
}
