{
	"asset":{
		"generator":"glTF-Transform v3.10.1",
		"version":"2.0"
	},
	"accessors":[
		{
			"type":"VEC3",
			"componentType":5126,
			"count":8546,
			"max":[
				0.2466346025466919,
				0.046164222061634064,
				0.03487500920891762
			],
			"min":[
				-0.05317385867238045,
				-0.004677838180214167,
				-0.03487500920891762
			],
			"bufferView":0,
			"byteOffset":0
		},
		{
			"type":"VEC3",
			"componentType":5126,
			"count":8546,
			"bufferView":0,
			"byteOffset":12
		},
		{
			"type":"VEC2",
			"componentType":5126,
			"count":8546,
			"bufferView":0,
			"byteOffset":24
		},
		{
			"type":"VEC2",
			"componentType":5126,
			"count":8546,
			"bufferView":0,
			"byteOffset":32
		},
		{
			"type":"SCALAR",
			"componentType":5123,
			"count":30528,
			"bufferView":1,
			"byteOffset":0
		}
	],
	"bufferViews":[
		{
			"buffer":0,
			"byteOffset":0,
			"byteLength":341840,
			"byteStride":40,
			"target":34962
		},
		{
			"buffer":0,
			"byteOffset":341840,
			"byteLength":61056,
			"target":34963
		}
	],
	"samplers":[
		{
			"magFilter":9729,
			"minFilter":9987,
			"wrapS":10497,
			"wrapT":10497
		}
	],
	"textures":[
		{
			"source":2,
			"sampler":0,
			"extensions":{
				"KHR_texture_basisu":{
					"source":5
				}
			}
		},
		{
			"source":0,
			"sampler":0,
			"extensions":{
				"KHR_texture_basisu":{
					"source":3
				}
			}
		},
		{
			"source":1,
			"sampler":0,
			"extensions":{
				"KHR_texture_basisu":{
					"source":4
				}
			}
		}
	],
	"images":[
		{
			"name":"thimma_wood_flat_spatula_normal",
			"mimeType":"image/png",
			"uri":"thimma_wood_flat_spatula_normal.png"
		},
		{
			"name":"thimma_wood_flat_spatula_occlusion_roughness_metallic",
			"mimeType":"image/png",
			"uri":"thimma_wood_flat_spatula_occlusion_roughness_metallic.png"
		},
		{
			"name":"thimma_wood_blue_flat_spatula_color",
			"mimeType":"image/png",
			"uri":"thimma_wood_blue_flat_spatula_color.png"
		},
		{
			"mimeType":"image/ktx2",
			"uri":"thimma_wood_flat_spatula_normal.ktx2"
		},
		{
			"mimeType":"image/ktx2",
			"uri":"thimma_wood_flat_spatula_occlusion_roughness_metallic.ktx2"
		},
		{
			"mimeType":"image/ktx2",
			"uri":"thimma_wood_blue_flat_spatula_color.ktx2"
		}
	],
	"buffers":[
		{
			"uri":"thimma_wood_flat_spatula.bin",
			"byteLength":402896
		}
	],
	"materials":[
		{
			"name":"thimma_wood_blue_flat_spatula_material",
			"doubleSided":true,
			"pbrMetallicRoughness":{
				"baseColorTexture":{
					"index":0
				},
				"metallicRoughnessTexture":{
					"index":2
				}
			},
			"normalTexture":{
				"index":1
			},
			"occlusionTexture":{
				"index":2
			}
		}
	],
	"meshes":[
		{
			"name":"thimma_flat_spatula_wood",
			"primitives":[
				{
					"attributes":{
						"POSITION":0,
						"NORMAL":1,
						"TEXCOORD_0":2,
						"TEXCOORD_1":3
					},
					"mode":4,
					"material":0,
					"indices":4
				}
			]
		}
	],
	"nodes":[
		{
			"name":"thimma_wood_blue_flat_spatula",
			"mesh":0
		}
	],
	"scenes":[
		{
			"name":"Scene",
			"nodes":[
				0
			]
		}
	],
	"scene":0,
	"extensionsUsed":[
		"KHR_texture_basisu"
	]
}
