{
	"asset":{
		"generator":"glTF-Transform v3.10.1",
		"version":"2.0"
	},
	"accessors":[
		{
			"type":"VEC3",
			"componentType":5126,
			"count":5270,
			"max":[
				0.21899306774139404,
				0.0875183567404747,
				0.03600000590085983
			],
			"min":[
				-0.05999995023012161,
				-0.0009000015561468899,
				-0.03600000590085983
			],
			"bufferView":0,
			"byteOffset":0
		},
		{
			"type":"VEC3",
			"componentType":5126,
			"count":5270,
			"bufferView":0,
			"byteOffset":12
		},
		{
			"type":"VEC2",
			"componentType":5126,
			"count":5270,
			"bufferView":0,
			"byteOffset":24
		},
		{
			"type":"SCALAR",
			"componentType":5123,
			"count":14694,
			"bufferView":1,
			"byteOffset":0
		}
	],
	"bufferViews":[
		{
			"buffer":0,
			"byteOffset":0,
			"byteLength":168640,
			"byteStride":32,
			"target":34962
		},
		{
			"buffer":0,
			"byteOffset":168640,
			"byteLength":29388,
			"target":34963
		}
	],
	"samplers":[
		{
			"magFilter":9729,
			"minFilter":9987,
			"wrapS":10497,
			"wrapT":10497
		}
	],
	"textures":[
		{
			"source":1,
			"sampler":0,
			"extensions":{
				"KHR_texture_basisu":{
					"source":4
				}
			}
		},
		{
			"source":0,
			"sampler":0,
			"extensions":{
				"KHR_texture_basisu":{
					"source":3
				}
			}
		},
		{
			"source":2,
			"sampler":0,
			"extensions":{
				"KHR_texture_basisu":{
					"source":5
				}
			}
		}
	],
	"images":[
		{
			"name":"vovoly_stainless_grill_turner_normal",
			"mimeType":"image/png",
			"uri":"vovoly_stainless_grill_turner_normal.png"
		},
		{
			"name":"vovoly_stainless_grill_turner_color",
			"mimeType":"image/png",
			"uri":"vovoly_stainless_grill_turner_color.png"
		},
		{
			"name":"vovoly_stainless_grill_turner_occlusion_roughness_metallic",
			"mimeType":"image/png",
			"uri":"vovoly_stainless_grill_turner_occlusion_roughness_metallic.png"
		},
		{
			"mimeType":"image/ktx2",
			"uri":"vovoly_stainless_grill_turner_normal.ktx2"
		},
		{
			"mimeType":"image/ktx2",
			"uri":"vovoly_stainless_grill_turner_color.ktx2"
		},
		{
			"mimeType":"image/ktx2",
			"uri":"vovoly_stainless_grill_turner_occlusion_roughness_metallic.ktx2"
		}
	],
	"buffers":[
		{
			"uri":"vovoly_stainless_grill_turner.bin",
			"byteLength":198028
		}
	],
	"materials":[
		{
			"name":"vovoly_stainless_grill_turner_material",
			"doubleSided":true,
			"pbrMetallicRoughness":{
				"baseColorTexture":{
					"index":0
				},
				"metallicRoughnessTexture":{
					"index":2
				}
			},
			"normalTexture":{
				"index":1
			}
		}
	],
	"meshes":[
		{
			"name":"vovoly_stainless_grill_turner",
			"primitives":[
				{
					"attributes":{
						"POSITION":0,
						"NORMAL":1,
						"TEXCOORD_0":2
					},
					"mode":4,
					"material":0,
					"indices":3
				}
			]
		}
	],
	"nodes":[
		{
			"name":"vovoly_stainless_grill_turner",
			"mesh":0
		}
	],
	"scenes":[
		{
			"name":"Scene",
			"nodes":[
				0
			]
		}
	],
	"scene":0,
	"extensionsUsed":[
		"KHR_texture_basisu"
	]
}
