{
	"asset":{
		"generator":"glTF-Transform v3.10.1",
		"version":"2.0"
	},
	"accessors":[
		{
			"type":"VEC3",
			"componentType":5126,
			"count":28,
			"max":[
				0.04999999701976776,
				0.05000000074505806,
				0.05000000074505806
			],
			"min":[
				-0.04999999701976776,
				-0.05000000074505806,
				-0.05000000074505806
			],
			"bufferView":0,
			"byteOffset":0
		},
		{
			"type":"VEC3",
			"componentType":5126,
			"count":28,
			"bufferView":0,
			"byteOffset":12
		},
		{
			"type":"VEC2",
			"componentType":5126,
			"count":28,
			"bufferView":0,
			"byteOffset":24
		},
		{
			"type":"SCALAR",
			"componentType":5123,
			"count":36,
			"bufferView":1,
			"byteOffset":0
		}
	],
	"bufferViews":[
		{
			"buffer":0,
			"byteOffset":0,
			"byteLength":896,
			"byteStride":32,
			"target":34962
		},
		{
			"buffer":0,
			"byteOffset":896,
			"byteLength":72,
			"target":34963
		}
	],
	"samplers":[
		{
			"magFilter":9729,
			"minFilter":9987,
			"wrapS":10497,
			"wrapT":10497
		}
	],
	"textures":[
		{
			"source":1,
			"sampler":0,
			"extensions":{
				"KHR_texture_basisu":{
					"source":4
				}
			}
		},
		{
			"source":0,
			"sampler":0,
			"extensions":{
				"KHR_texture_basisu":{
					"source":3
				}
			}
		},
		{
			"source":2,
			"sampler":0,
			"extensions":{
				"KHR_texture_basisu":{
					"source":5
				}
			}
		}
	],
	"images":[
		{
			"name":"cube_black_10cm_normal",
			"mimeType":"image/png",
			"uri":"cube_black_10cm_normal.png"
		},
		{
			"name":"cube_black_10cm_color",
			"mimeType":"image/png",
			"uri":"cube_black_10cm_color.png"
		},
		{
			"name":"cube_black_10cm_occlusion_roughness_metallic",
			"mimeType":"image/png",
			"uri":"cube_black_10cm_occlusion_roughness_metallic.png"
		},
		{
			"mimeType":"image/ktx2",
			"uri":"cube_black_10cm_normal.ktx2"
		},
		{
			"mimeType":"image/ktx2",
			"uri":"cube_black_10cm_color.ktx2"
		},
		{
			"mimeType":"image/ktx2",
			"uri":"cube_black_10cm_occlusion_roughness_metallic.ktx2"
		}
	],
	"buffers":[
		{
			"uri":"cube_black_10cm.bin",
			"byteLength":968
		}
	],
	"materials":[
		{
			"name":"cube_black_10cm_material",
			"doubleSided":true,
			"pbrMetallicRoughness":{
				"baseColorTexture":{
					"index":0
				},
				"metallicRoughnessTexture":{
					"index":2
				}
			},
			"normalTexture":{
				"index":1
			}
		}
	],
	"meshes":[
		{
			"name":"cube_black_10cm",
			"primitives":[
				{
					"attributes":{
						"POSITION":0,
						"NORMAL":1,
						"TEXCOORD_0":2
					},
					"mode":4,
					"material":0,
					"indices":3
				}
			]
		}
	],
	"nodes":[
		{
			"name":"cube_black_10cm",
			"mesh":0
		}
	],
	"scenes":[
		{
			"name":"Scene",
			"nodes":[
				0
			]
		}
	],
	"scene":0,
	"extensionsUsed":[
		"KHR_texture_basisu"
	]
}
