{
	"asset":{
		"generator":"Khronos glTF Blender I/O v4.2.69",
		"version":"2.0"
	},
	"scene":0,
	"scenes":[
		{
			"name":"Scene",
			"nodes":[
				0
			]
		}
	],
	"nodes":[
		{
			"mesh":0,
			"name":"tumbler_8oz"
		}
	],
	"materials":[
		{
			"doubleSided":true,
			"name":"tumbler_8oz_material",
			"normalTexture":{
				"index":0
			},
			"occlusionTexture":{
				"index":1
			},
			"pbrMetallicRoughness":{
				"baseColorTexture":{
					"index":2
				},
				"metallicRoughnessTexture":{
					"index":1
				}
			}
		}
	],
	"meshes":[
		{
			"name":"tumbler_8oz",
			"primitives":[
				{
					"attributes":{
						"POSITION":0,
						"NORMAL":1,
						"TEXCOORD_0":2
					},
					"indices":3,
					"material":0
				}
			]
		}
	],
	"textures":[
		{
			"sampler":0,
			"source":0,
			"extensions":{
				"KHR_texture_basisu":{
					"source":3
				}
			}
		},
		{
			"sampler":0,
			"source":1,
			"extensions":{
				"KHR_texture_basisu":{
					"source":4
				}
			}
		},
		{
			"sampler":0,
			"source":2,
			"extensions":{
				"KHR_texture_basisu":{
					"source":5
				}
			}
		}
	],
	"images":[
		{
			"mimeType":"image/png",
			"name":"tumbler_8oz_ceramic_light_pattern_black_normal",
			"uri":"tumbler_8oz_ceramic_light_pattern_black_normal.png"
		},
		{
			"mimeType":"image/png",
			"name":"tumbler_8oz_ceramic_light_pattern_black_occlusion_roughness_metallic",
			"uri":"tumbler_8oz_ceramic_light_pattern_black_occlusion_roughness_metallic.png"
		},
		{
			"mimeType":"image/png",
			"name":"tumbler_8oz_ceramic_light_pattern_black_color",
			"uri":"tumbler_8oz_ceramic_light_pattern_black_color.png"
		},
		{
			"mimeType":"image/ktx2",
			"uri":"tumbler_8oz_ceramic_light_pattern_black_normal.ktx2"
		},
		{
			"mimeType":"image/ktx2",
			"uri":"tumbler_8oz_ceramic_light_pattern_black_occlusion_roughness_metallic.ktx2"
		},
		{
			"mimeType":"image/ktx2",
			"uri":"tumbler_8oz_ceramic_light_pattern_black_color.ktx2"
		}
	],
	"accessors":[
		{
			"bufferView":0,
			"componentType":5126,
			"count":2167,
			"max":[
				0.035875000059604645,
				0.10579998046159744,
				0.035875000059604645
			],
			"min":[
				-0.035875000059604645,
				0,
				-0.035875000059604645
			],
			"type":"VEC3"
		},
		{
			"bufferView":1,
			"componentType":5126,
			"count":2167,
			"type":"VEC3"
		},
		{
			"bufferView":2,
			"componentType":5126,
			"count":2167,
			"type":"VEC2"
		},
		{
			"bufferView":3,
			"componentType":5123,
			"count":11280,
			"type":"SCALAR"
		}
	],
	"bufferViews":[
		{
			"buffer":0,
			"byteLength":26004,
			"byteOffset":0,
			"target":34962
		},
		{
			"buffer":0,
			"byteLength":26004,
			"byteOffset":26004,
			"target":34962
		},
		{
			"buffer":0,
			"byteLength":17336,
			"byteOffset":52008,
			"target":34962
		},
		{
			"buffer":0,
			"byteLength":22560,
			"byteOffset":69344,
			"target":34963
		}
	],
	"samplers":[
		{
			"magFilter":9729,
			"minFilter":9987
		}
	],
	"buffers":[
		{
			"byteLength":91904,
			"uri":"tumbler_8oz.bin"
		}
	],
	"extensionsUsed":[
		"KHR_texture_basisu"
	]
}
