{
	"asset":{
		"generator":"glTF-Transform v3.10.1",
		"version":"2.0"
	},
	"accessors":[
		{
			"type":"VEC3",
			"componentType":5126,
			"count":3412,
			"max":[
				0.06350000202655792,
				0.15240003168582916,
				0.06350000947713852
			],
			"min":[
				-0.06350000202655792,
				-8.531787720755801e-09,
				-0.06350003182888031
			],
			"bufferView":0,
			"byteOffset":0
		},
		{
			"type":"VEC3",
			"componentType":5126,
			"count":3412,
			"bufferView":0,
			"byteOffset":12
		},
		{
			"type":"VEC2",
			"componentType":5126,
			"count":3412,
			"bufferView":0,
			"byteOffset":24
		},
		{
			"type":"SCALAR",
			"componentType":5123,
			"count":5208,
			"bufferView":1,
			"byteOffset":0
		}
	],
	"bufferViews":[
		{
			"buffer":0,
			"byteOffset":0,
			"byteLength":109184,
			"byteStride":32,
			"target":34962
		},
		{
			"buffer":0,
			"byteOffset":109184,
			"byteLength":10416,
			"target":34963
		}
	],
	"samplers":[
		{
			"magFilter":9729,
			"minFilter":9987,
			"wrapS":10497,
			"wrapT":10497
		}
	],
	"textures":[
		{
			"source":2,
			"sampler":0,
			"extensions":{
				"KHR_texture_basisu":{
					"source":5
				}
			}
		},
		{
			"source":0,
			"sampler":0,
			"extensions":{
				"KHR_texture_basisu":{
					"source":3
				}
			}
		},
		{
			"source":1,
			"sampler":0,
			"extensions":{
				"KHR_texture_basisu":{
					"source":4
				}
			}
		}
	],
	"images":[
		{
			"name":"slnihams_bamboo_utensil_crock_normal",
			"mimeType":"image/png",
			"uri":"slnihams_bamboo_utensil_crock_normal.png"
		},
		{
			"name":"slnihams_bamboo_utensil_crock_occlusion_roughness_metallic",
			"mimeType":"image/png",
			"uri":"slnihams_bamboo_utensil_crock_occlusion_roughness_metallic.png"
		},
		{
			"name":"slnihams_bamboo_utensil_crock_color",
			"mimeType":"image/png",
			"uri":"slnihams_bamboo_utensil_crock_color.png"
		},
		{
			"mimeType":"image/ktx2",
			"uri":"slnihams_bamboo_utensil_crock_normal.ktx2"
		},
		{
			"mimeType":"image/ktx2",
			"uri":"slnihams_bamboo_utensil_crock_occlusion_roughness_metallic.ktx2"
		},
		{
			"mimeType":"image/ktx2",
			"uri":"slnihams_bamboo_utensil_crock_color.ktx2"
		}
	],
	"buffers":[
		{
			"uri":"slnihams_bamboo_utensil_crock.bin",
			"byteLength":119600
		}
	],
	"materials":[
		{
			"name":"slnihams_bamboo_utensil_crock_material",
			"doubleSided":true,
			"pbrMetallicRoughness":{
				"baseColorTexture":{
					"index":0
				},
				"metallicRoughnessTexture":{
					"index":2
				}
			},
			"normalTexture":{
				"index":1
			},
			"occlusionTexture":{
				"index":2
			}
		}
	],
	"meshes":[
		{
			"name":"slnihams_bamboo_utensil_crock",
			"primitives":[
				{
					"attributes":{
						"POSITION":0,
						"NORMAL":1,
						"TEXCOORD_0":2
					},
					"mode":4,
					"material":0,
					"indices":3
				}
			]
		}
	],
	"nodes":[
		{
			"name":"slnihams_bamboo_utensil_crock",
			"mesh":0
		}
	],
	"scenes":[
		{
			"name":"Scene",
			"nodes":[
				0
			]
		}
	],
	"scene":0,
	"extensionsUsed":[
		"KHR_texture_basisu"
	]
}
