{
	"asset":{
		"generator":"Khronos glTF Blender I/O v4.2.69",
		"version":"2.0"
	},
	"scene":0,
	"scenes":[
		{
			"name":"Scene",
			"nodes":[
				0
			]
		}
	],
	"nodes":[
		{
			"mesh":0,
			"name":"coaster_double_wood"
		}
	],
	"materials":[
		{
			"doubleSided":true,
			"name":"coaster_Baked.001",
			"normalTexture":{
				"index":0
			},
			"occlusionTexture":{
				"index":1
			},
			"pbrMetallicRoughness":{
				"baseColorTexture":{
					"index":2
				},
				"metallicRoughnessTexture":{
					"index":1
				}
			}
		}
	],
	"meshes":[
		{
			"name":"coaster_double_wood",
			"primitives":[
				{
					"attributes":{
						"POSITION":0,
						"NORMAL":1,
						"TEXCOORD_0":2
					},
					"indices":3,
					"material":0
				}
			]
		}
	],
	"textures":[
		{
			"sampler":0,
			"source":0,
			"extensions":{
				"KHR_texture_basisu":{
					"source":3
				}
			}
		},
		{
			"sampler":0,
			"source":1,
			"extensions":{
				"KHR_texture_basisu":{
					"source":4
				}
			}
		},
		{
			"sampler":0,
			"source":2,
			"extensions":{
				"KHR_texture_basisu":{
					"source":5
				}
			}
		}
	],
	"images":[
		{
			"mimeType":"image/png",
			"name":"coaster_double_wood_normal",
			"uri":"coaster_double_wood_normal.png"
		},
		{
			"mimeType":"image/png",
			"name":"coaster_double_wood_occlusion_roughness_metallic",
			"uri":"coaster_double_wood_occlusion_roughness_metallic.png"
		},
		{
			"mimeType":"image/png",
			"name":"coaster_double_wood_color",
			"uri":"coaster_double_wood_color.png"
		},
		{
			"mimeType":"image/ktx2",
			"uri":"coaster_double_wood_normal.ktx2"
		},
		{
			"mimeType":"image/ktx2",
			"uri":"coaster_double_wood_occlusion_roughness_metallic.ktx2"
		},
		{
			"mimeType":"image/ktx2",
			"uri":"coaster_double_wood_color.ktx2"
		}
	],
	"accessors":[
		{
			"bufferView":0,
			"componentType":5126,
			"count":998,
			"max":[
				0.04774999991059303,
				0.015000000596046448,
				0.04774999991059303
			],
			"min":[
				-0.04774999991059303,
				0,
				-0.04774999991059303
			],
			"type":"VEC3"
		},
		{
			"bufferView":1,
			"componentType":5126,
			"count":998,
			"type":"VEC3"
		},
		{
			"bufferView":2,
			"componentType":5126,
			"count":998,
			"type":"VEC2"
		},
		{
			"bufferView":3,
			"componentType":5123,
			"count":5040,
			"type":"SCALAR"
		}
	],
	"bufferViews":[
		{
			"buffer":0,
			"byteLength":11976,
			"byteOffset":0,
			"target":34962
		},
		{
			"buffer":0,
			"byteLength":11976,
			"byteOffset":11976,
			"target":34962
		},
		{
			"buffer":0,
			"byteLength":7984,
			"byteOffset":23952,
			"target":34962
		},
		{
			"buffer":0,
			"byteLength":10080,
			"byteOffset":31936,
			"target":34963
		}
	],
	"samplers":[
		{
			"magFilter":9729,
			"minFilter":9987
		}
	],
	"buffers":[
		{
			"byteLength":42016,
			"uri":"coaster_double_wood.bin"
		}
	],
	"extensionsUsed":[
		"KHR_texture_basisu"
	]
}
