{
	"asset":{
		"generator":"Khronos glTF Blender I/O v4.3.47",
		"version":"2.0"
	},
	"scene":0,
	"scenes":[
		{
			"name":"Scene",
			"nodes":[
				0
			]
		}
	],
	"nodes":[
		{
			"mesh":0,
			"name":"carlisle_plate"
		}
	],
	"materials":[
		{
			"doubleSided":true,
			"name":"carlisle_plate_purple_material",
			"normalTexture":{
				"index":0
			},
			"occlusionTexture":{
				"index":1
			},
			"pbrMetallicRoughness":{
				"baseColorTexture":{
					"index":2
				},
				"metallicRoughnessTexture":{
					"index":1
				}
			}
		}
	],
	"meshes":[
		{
			"name":"carlisle_plate",
			"primitives":[
				{
					"attributes":{
						"POSITION":0,
						"NORMAL":1,
						"TEXCOORD_0":2
					},
					"indices":3,
					"material":0
				}
			]
		}
	],
	"textures":[
		{
			"sampler":0,
			"source":0,
			"extensions":{
				"KHR_texture_basisu":{
					"source":3
				}
			}
		},
		{
			"sampler":0,
			"source":1,
			"extensions":{
				"KHR_texture_basisu":{
					"source":4
				}
			}
		},
		{
			"sampler":0,
			"source":2,
			"extensions":{
				"KHR_texture_basisu":{
					"source":5
				}
			}
		}
	],
	"images":[
		{
			"mimeType":"image/png",
			"name":"carlisle_plate_normal",
			"uri":"carlisle_plate_normal.png"
		},
		{
			"mimeType":"image/png",
			"name":"carlisle_plate_occlusion_roughness_metallic",
			"uri":"carlisle_plate_occlusion_roughness_metallic.png"
		},
		{
			"mimeType":"image/png",
			"name":"carlisle_plate_purple_color",
			"uri":"carlisle_plate_purple_color.png"
		},
		{
			"mimeType":"image/ktx2",
			"uri":"carlisle_plate_normal.ktx2"
		},
		{
			"mimeType":"image/ktx2",
			"uri":"carlisle_plate_occlusion_roughness_metallic.ktx2"
		},
		{
			"mimeType":"image/ktx2",
			"uri":"carlisle_plate_purple_color.ktx2"
		}
	],
	"accessors":[
		{
			"bufferView":0,
			"componentType":5126,
			"count":7661,
			"max":[
				0.08193099498748779,
				0.01508800033479929,
				0.08193100243806839
			],
			"min":[
				-0.08193099498748779,
				3.4924596548080444e-10,
				-0.08193099498748779
			],
			"type":"VEC3"
		},
		{
			"bufferView":1,
			"componentType":5126,
			"count":7661,
			"type":"VEC3"
		},
		{
			"bufferView":2,
			"componentType":5126,
			"count":7661,
			"type":"VEC2"
		},
		{
			"bufferView":3,
			"componentType":5123,
			"count":37944,
			"type":"SCALAR"
		}
	],
	"bufferViews":[
		{
			"buffer":0,
			"byteLength":91932,
			"byteOffset":0,
			"target":34962
		},
		{
			"buffer":0,
			"byteLength":91932,
			"byteOffset":91932,
			"target":34962
		},
		{
			"buffer":0,
			"byteLength":61288,
			"byteOffset":183864,
			"target":34962
		},
		{
			"buffer":0,
			"byteLength":75888,
			"byteOffset":245152,
			"target":34963
		}
	],
	"samplers":[
		{
			"magFilter":9729,
			"minFilter":9987
		}
	],
	"buffers":[
		{
			"byteLength":321040,
			"uri":"carlisle_plate.bin"
		}
	],
	"extensionsUsed":[
		"KHR_texture_basisu"
	]
}
