{
	"accessors":[
		{
			"name":"Node-Mesh_0_positions",
			"componentType":5126,
			"count":12704,
			"min":[
				-0.0981220006942749,
				-0.0981220006942749,
				0.00020700000459328294
			],
			"max":[
				0.0981220006942749,
				0.0981220006942749,
				0.01796800084412098
			],
			"type":"VEC3",
			"bufferView":0,
			"byteOffset":0
		},
		{
			"name":"Node-Mesh_0_normals",
			"componentType":5126,
			"count":12704,
			"min":[
				-0.9999549388885498,
				-0.9999551773071289,
				-1
			],
			"max":[
				0.9999549388885498,
				0.9999549388885498,
				1
			],
			"type":"VEC3",
			"bufferView":1,
			"byteOffset":0
		},
		{
			"name":"Node-Mesh_0_texcoords",
			"componentType":5126,
			"count":12704,
			"min":[
				0.004631000105291605,
				0.00931399967521429
			],
			"max":[
				0.9943410158157349,
				0.9942229986190796
			],
			"type":"VEC2",
			"bufferView":2,
			"byteOffset":0
		},
		{
			"name":"Node-Mesh_0_indices",
			"componentType":5123,
			"count":74772,
			"min":[
				0
			],
			"max":[
				12703
			],
			"type":"SCALAR",
			"bufferView":3,
			"byteOffset":0
		}
	],
	"asset":{
		"generator":"obj2gltf",
		"version":"2.0"
	},
	"buffers":[
		{
			"name":"ikea_dinera_plate_8in",
			"byteLength":556072,
			"uri":"ikea_dinera_plate_8in.bin"
		}
	],
	"bufferViews":[
		{
			"name":"bufferView_0",
			"buffer":0,
			"byteLength":152448,
			"byteOffset":0,
			"byteStride":12,
			"target":34962
		},
		{
			"name":"bufferView_1",
			"buffer":0,
			"byteLength":152448,
			"byteOffset":152448,
			"byteStride":12,
			"target":34962
		},
		{
			"name":"bufferView_2",
			"buffer":0,
			"byteLength":101632,
			"byteOffset":304896,
			"byteStride":8,
			"target":34962
		},
		{
			"name":"bufferView_3",
			"buffer":0,
			"byteLength":149544,
			"byteOffset":406528,
			"target":34963
		}
	],
	"images":[
		{
			"name":"ikea_dinera_plate_8in_color",
			"uri":"ikea_dinera_plate_8in_color.png",
			"mimeType":"image/png"
		},
		{
			"name":"ikea_dinera_plate_8in_occlusion_roughness_metallic",
			"uri":"ikea_dinera_plate_8in_occlusion_roughness_metallic.png",
			"mimeType":"image/png"
		},
		{
			"name":"ikea_dinera_plate_8in_normal",
			"uri":"ikea_dinera_plate_8in_normal.png",
			"mimeType":"image/png"
		},
		{
			"mimeType":"image/ktx2",
			"uri":"ikea_dinera_plate_8in_color.ktx2"
		},
		{
			"mimeType":"image/ktx2",
			"uri":"ikea_dinera_plate_8in_occlusion_roughness_metallic.ktx2"
		},
		{
			"mimeType":"image/ktx2",
			"uri":"ikea_dinera_plate_8in_normal.ktx2"
		}
	],
	"materials":[
		{
			"name":"ikea_dinera_plate_8in",
			"pbrMetallicRoughness":{
				"baseColorTexture":{
					"index":0
				},
				"metallicRoughnessTexture":{
					"index":1
				},
				"baseColorFactor":[
					0.5,
					1,
					0.5,
					1
				],
				"metallicFactor":1.0,
				"roughnessFactor":1.0
			},
			"normalTexture":{
				"index":2,
				"scale":0.25
			},
			"emissiveFactor":[
				0,
				0,
				0
			],
			"alphaMode":"OPAQUE",
			"doubleSided":false
		}
	],
	"meshes":[
		{
			"name":"Node-Mesh",
			"primitives":[
				{
					"attributes":{
						"POSITION":0,
						"NORMAL":1,
						"TEXCOORD_0":2
					},
					"indices":3,
					"material":0,
					"mode":4
				}
			]
		}
	],
	"nodes":[
		{
			"name":"Node",
			"mesh":0
		}
	],
	"samplers":[
		{
			"magFilter":9729,
			"minFilter":9986,
			"wrapS":10497,
			"wrapT":10497
		}
	],
	"scene":0,
	"scenes":[
		{
			"nodes":[
				0
			]
		}
	],
	"textures":[
		{
			"name":"ikea_dinera_plate_8in_color",
			"sampler":0,
			"source":0,
			"extensions":{
				"KHR_texture_basisu":{
					"source":3
				}
			}
		},
		{
			"name":"ikea_dinera_plate_8in_occlusion_roughness_metallic",
			"sampler":0,
			"source":1,
			"extensions":{
				"KHR_texture_basisu":{
					"source":4
				}
			}
		},
		{
			"name":"ikea_dinera_plate_8in_normal",
			"sampler":0,
			"source":2,
			"extensions":{
				"KHR_texture_basisu":{
					"source":5
				}
			}
		}
	],
	"extensionsUsed":[
		"KHR_texture_basisu"
	]
}
