{
	"asset":{
		"generator":"Khronos glTF Blender I/O v4.1.63",
		"version":"2.0"
	},
	"scene":0,
	"scenes":[
		{
			"name":"Scene",
			"nodes":[
				0
			]
		}
	],
	"nodes":[
		{
			"mesh":0,
			"name":"fake_unripe_banana"
		}
	],
	"materials":[
		{
			"doubleSided":true,
			"name":"fake_unripe_banana_material",
			"normalTexture":{
				"index":0
			},
			"occlusionTexture":{
				"index":1
			},
			"pbrMetallicRoughness":{
				"baseColorTexture":{
					"index":2
				},
				"metallicRoughnessTexture":{
					"index":1
				}
			}
		}
	],
	"meshes":[
		{
			"name":"fake_unripe_banana",
			"primitives":[
				{
					"attributes":{
						"POSITION":0,
						"NORMAL":1,
						"TEXCOORD_0":2
					},
					"indices":3,
					"material":0
				}
			]
		}
	],
	"textures":[
		{
			"sampler":0,
			"source":0,
			"extensions":{
				"KHR_texture_basisu":{
					"source":3
				}
			}
		},
		{
			"sampler":0,
			"source":1,
			"extensions":{
				"KHR_texture_basisu":{
					"source":4
				}
			}
		},
		{
			"sampler":0,
			"source":2,
			"extensions":{
				"KHR_texture_basisu":{
					"source":5
				}
			}
		}
	],
	"images":[
		{
			"mimeType":"image/png",
			"name":"fake_banana_normal",
			"uri":"fake_banana_normal.png"
		},
		{
			"mimeType":"image/png",
			"name":"fake_banana_occlusion_roughness_metallic",
			"uri":"fake_banana_occlusion_roughness_metallic.png"
		},
		{
			"mimeType":"image/png",
			"name":"fake_unripe_banana_color",
			"uri":"fake_unripe_banana_color.png"
		},
		{
			"mimeType":"image/ktx2",
			"uri":"fake_banana_normal.ktx2"
		},
		{
			"mimeType":"image/ktx2",
			"uri":"fake_banana_occlusion_roughness_metallic.ktx2"
		},
		{
			"mimeType":"image/ktx2",
			"uri":"fake_unripe_banana_color.ktx2"
		}
	],
	"accessors":[
		{
			"bufferView":0,
			"componentType":5126,
			"count":3104,
			"max":[
				0.05879692733287811,
				0.08507564663887024,
				0.017684336751699448
			],
			"min":[
				-0.030555997043848038,
				-0.09365130215883255,
				-0.017931055277585983
			],
			"type":"VEC3"
		},
		{
			"bufferView":1,
			"componentType":5126,
			"count":3104,
			"type":"VEC3"
		},
		{
			"bufferView":2,
			"componentType":5126,
			"count":3104,
			"type":"VEC2"
		},
		{
			"bufferView":3,
			"componentType":5123,
			"count":12936,
			"type":"SCALAR"
		}
	],
	"bufferViews":[
		{
			"buffer":0,
			"byteLength":37248,
			"byteOffset":0,
			"target":34962
		},
		{
			"buffer":0,
			"byteLength":37248,
			"byteOffset":37248,
			"target":34962
		},
		{
			"buffer":0,
			"byteLength":24832,
			"byteOffset":74496,
			"target":34962
		},
		{
			"buffer":0,
			"byteLength":25872,
			"byteOffset":99328,
			"target":34963
		}
	],
	"samplers":[
		{
			"magFilter":9729,
			"minFilter":9987
		}
	],
	"buffers":[
		{
			"byteLength":125200,
			"uri":"fake_banana.bin"
		}
	],
	"extensionsUsed":[
		"KHR_texture_basisu"
	]
}
