{
	"asset":{
		"generator":"glTF-Transform v3.10.1",
		"version":"2.0"
	},
	"accessors":[
		{
			"type":"VEC3",
			"componentType":5126,
			"count":7732,
			"max":[
				0.09823759645223618,
				0.3460000455379486,
				0.09823756664991379
			],
			"min":[
				-0.09823759645223618,
				-1.0345632794894755e-08,
				-0.09823764860630035
			],
			"bufferView":0,
			"byteOffset":0
		},
		{
			"type":"VEC3",
			"componentType":5126,
			"count":7732,
			"bufferView":0,
			"byteOffset":12
		},
		{
			"type":"VEC2",
			"componentType":5126,
			"count":7732,
			"bufferView":0,
			"byteOffset":24
		},
		{
			"type":"SCALAR",
			"componentType":5123,
			"count":25584,
			"bufferView":1,
			"byteOffset":0
		}
	],
	"bufferViews":[
		{
			"buffer":0,
			"byteOffset":0,
			"byteLength":247424,
			"byteStride":32,
			"target":34962
		},
		{
			"buffer":0,
			"byteOffset":247424,
			"byteLength":51168,
			"target":34963
		}
	],
	"samplers":[
		{
			"magFilter":9729,
			"minFilter":9987,
			"wrapS":10497,
			"wrapT":10497
		}
	],
	"textures":[
		{
			"source":2,
			"sampler":0,
			"extensions":{
				"KHR_texture_basisu":{
					"source":5
				}
			}
		},
		{
			"source":0,
			"sampler":0,
			"extensions":{
				"KHR_texture_basisu":{
					"source":3
				}
			}
		},
		{
			"source":1,
			"sampler":0,
			"extensions":{
				"KHR_texture_basisu":{
					"source":4
				}
			}
		}
	],
	"images":[
		{
			"name":"dorhors_wood_mug_holder_normal",
			"mimeType":"image/png",
			"uri":"dorhors_wood_mug_holder_normal.png"
		},
		{
			"name":"dorhors_wood_mug_holder_occlusion_roughness_metallic",
			"mimeType":"image/png",
			"uri":"dorhors_wood_mug_holder_occlusion_roughness_metallic.png"
		},
		{
			"name":"dorhors_wood_mug_holder_color",
			"mimeType":"image/png",
			"uri":"dorhors_wood_mug_holder_color.png"
		},
		{
			"mimeType":"image/ktx2",
			"uri":"dorhors_wood_mug_holder_normal.ktx2"
		},
		{
			"mimeType":"image/ktx2",
			"uri":"dorhors_wood_mug_holder_occlusion_roughness_metallic.ktx2"
		},
		{
			"mimeType":"image/ktx2",
			"uri":"dorhors_wood_mug_holder_color.ktx2"
		}
	],
	"buffers":[
		{
			"uri":"dorhors_wood_mug_holder.bin",
			"byteLength":298592
		}
	],
	"materials":[
		{
			"name":"MergedBake_Baked",
			"doubleSided":true,
			"pbrMetallicRoughness":{
				"baseColorTexture":{
					"index":0
				},
				"metallicRoughnessTexture":{
					"index":2
				}
			},
			"normalTexture":{
				"index":1
			},
			"occlusionTexture":{
				"index":2
			}
		}
	],
	"meshes":[
		{
			"name":"dorhors_wood_mug_holder",
			"primitives":[
				{
					"attributes":{
						"POSITION":0,
						"NORMAL":1,
						"TEXCOORD_0":2
					},
					"mode":4,
					"material":0,
					"indices":3
				}
			]
		}
	],
	"nodes":[
		{
			"name":"dorhors_wood_mug_holder",
			"mesh":0
		}
	],
	"scenes":[
		{
			"name":"Scene",
			"nodes":[
				0
			]
		}
	],
	"scene":0,
	"extensionsUsed":[
		"KHR_texture_basisu"
	]
}
