{
	"asset":{
		"generator":"Khronos glTF Blender I/O v4.1.63",
		"version":"2.0"
	},
	"scene":0,
	"scenes":[
		{
			"name":"Scene",
			"nodes":[
				0
			]
		}
	],
	"nodes":[
		{
			"mesh":0,
			"name":"vivo_custom_single_shelf"
		}
	],
	"materials":[
		{
			"doubleSided":true,
			"name":"vivo_custom_single_shelf_material",
			"normalTexture":{
				"index":0
			},
			"occlusionTexture":{
				"index":1
			},
			"pbrMetallicRoughness":{
				"baseColorTexture":{
					"index":2
				},
				"metallicRoughnessTexture":{
					"index":1
				}
			}
		}
	],
	"meshes":[
		{
			"name":"vivo_custom_single_shelf",
			"primitives":[
				{
					"attributes":{
						"POSITION":0,
						"NORMAL":1,
						"TEXCOORD_0":2
					},
					"indices":3,
					"material":0
				}
			]
		}
	],
	"textures":[
		{
			"sampler":0,
			"source":0,
			"extensions":{
				"KHR_texture_basisu":{
					"source":3
				}
			}
		},
		{
			"sampler":0,
			"source":1,
			"extensions":{
				"KHR_texture_basisu":{
					"source":4
				}
			}
		},
		{
			"sampler":0,
			"source":2,
			"extensions":{
				"KHR_texture_basisu":{
					"source":5
				}
			}
		}
	],
	"images":[
		{
			"mimeType":"image/png",
			"name":"vivo_custom_single_shelf_normal",
			"uri":"vivo_custom_single_shelf_normal.png"
		},
		{
			"mimeType":"image/png",
			"name":"vivo_custom_single_shelf_occlusion_roughness_metallic",
			"uri":"vivo_custom_single_shelf_occlusion_roughness_metallic.png"
		},
		{
			"mimeType":"image/png",
			"name":"vivo_custom_single_shelf_color",
			"uri":"vivo_custom_single_shelf_color.png"
		},
		{
			"mimeType":"image/ktx2",
			"uri":"vivo_custom_single_shelf_normal.ktx2"
		},
		{
			"mimeType":"image/ktx2",
			"uri":"vivo_custom_single_shelf_occlusion_roughness_metallic.ktx2"
		},
		{
			"mimeType":"image/ktx2",
			"uri":"vivo_custom_single_shelf_color.ktx2"
		}
	],
	"accessors":[
		{
			"bufferView":0,
			"componentType":5126,
			"count":10510,
			"max":[
				0.28349998593330383,
				0.4090000092983246,
				0.13599999248981476
			],
			"min":[
				-0.28349998593330383,
				0,
				-0.13599999248981476
			],
			"type":"VEC3"
		},
		{
			"bufferView":1,
			"componentType":5126,
			"count":10510,
			"type":"VEC3"
		},
		{
			"bufferView":2,
			"componentType":5126,
			"count":10510,
			"type":"VEC2"
		},
		{
			"bufferView":3,
			"componentType":5123,
			"count":35352,
			"type":"SCALAR"
		}
	],
	"bufferViews":[
		{
			"buffer":0,
			"byteLength":126120,
			"byteOffset":0,
			"target":34962
		},
		{
			"buffer":0,
			"byteLength":126120,
			"byteOffset":126120,
			"target":34962
		},
		{
			"buffer":0,
			"byteLength":84080,
			"byteOffset":252240,
			"target":34962
		},
		{
			"buffer":0,
			"byteLength":70704,
			"byteOffset":336320,
			"target":34963
		}
	],
	"samplers":[
		{
			"magFilter":9729,
			"minFilter":9987
		}
	],
	"buffers":[
		{
			"byteLength":407024,
			"uri":"vivo_custom_single_shelf.bin"
		}
	],
	"extensionsUsed":[
		"KHR_texture_basisu"
	]
}
